<svg id="love-bird" xmlns="http://www.w3.org/2000/svg" viewBox="0 0 46 59" width="46px" height="59px" >
<defs>
<style>
.bird-one{fill:none;}
.bird-two{fill:#43525b;}
</style>
</defs>
<path class="bird-one" d="M27.65,22a5.14,5.14,0,0,0,2-.46l.41-.17.14-.43c.18-.19,1.68-1.89-.93-5.19l-.05-.07-.06-.06c-.66-.58-6.46-5.92-6.9-12.22L22.05,0l-1.6,3c-.05.09-5.22,9.68-4.28,12l.23.56.78.06c.14,0,3,.15,8.19,5.54a3.17,3.17,0,0,0,2.28.85Z"/>
<path class="bird-one" d="M11.56,57.84A3.39,3.39,0,0,0,13,56.64a56.55,56.55,0,0,0,7.38-11.43c1.19-3.07,2.91-3.34,3.24-3.37h.1C35.46,39.71,37,29.39,37,29c.76-4.79,3.69-6.66,6-7.38L44.77,21l-1.38-1.15a18.42,18.42,0,0,0-3.8-2.48,2.33,2.33,0,0,0-.87-.15c-2.79,0-7.89,3.61-8.11,3.77a5.91,5.91,0,0,1-3,.92,3.16,3.16,0,0,1-2.27-.83c-4.48-4.67-7.26-5.42-8-5.54l-.22,0-.21.06a.61.61,0,0,1-.18,0l-.13-.05h-.14a20.91,20.91,0,0,1-9.4-3l-3.18-2,1.8,3.3c2.2,4.06,9.33,13.63,15,20.81-1.85.81-3.05,4.36-3.1,4.51l0,.07,0,.08c-.35,2-6.32,4.9-14.86,7.13l-.1,0-.08,0a4.07,4.07,0,0,0-1.25.84l-.61.68.63.65a4.34,4.34,0,0,0,1.6.9,4.85,4.85,0,0,0-.77,1.06l-.49,1,1.08.33A4.29,4.29,0,0,0,4,52c.41,0,.72,0,.75,0a4.49,4.49,0,0,0-.28,1l-1.14.66,1.63.8a1.53,1.53,0,0,0,.71.14A4.39,4.39,0,0,0,7,54.32c-.11,1.25.14,1.68.34,1.89l.29.32h.89l.07-.08a4.84,4.84,0,0,0,1.3-.64,3.69,3.69,0,0,0,.74,1.75L11,58Z"/>
<path class="bird-one" d="M30.19,21.91a1,1,0,0,1-.75-.34,1,1,0,0,1,.09-1.41s1.09-1.17-1-3.84c-.77-.69-6.71-6.19-7.22-12.82-2.78,5.14-4.69,10.28-4.12,11.17A1,1,0,0,1,18,15.8a1,1,0,0,1-1.18.8,1.89,1.89,0,0,1-1.41-1.07c-1.31-2.7,3.07-11,4.45-13.51C20.13,1.45,20.88.09,22,.29a1.64,1.64,0,0,1,1.23,1.5.74.74,0,0,1,0,.21c-.42,6.67,6.55,12.81,6.62,12.87L30,15c3.42,4.28.94,6.56.83,6.66a1,1,0,0,1-.66.25Z"/>
<path class="bird-one" d="M11.25,58.88c-.65,0-1.45-.31-2-1.6a3.23,3.23,0,0,1-1.2.26,2,2,0,0,1-1.47-.62A2.58,2.58,0,0,1,6,55.55H5.65a2.15,2.15,0,0,1-1.89-.87A2.36,2.36,0,0,1,3.43,53a2.45,2.45,0,0,1-2.29-1.24,2.08,2.08,0,0,1,.23-1.9A2.51,2.51,0,0,1,0,48c-.09-1.48,1.64-2.29,2.22-2.56l.17-.06c6.72-1.75,14-4.71,14.22-6.35a1.42,1.42,0,0,1,0-.2,11.87,11.87,0,0,1,2.63-4.5C2.92,13.61,3.82,11.76,4.11,11.15a1.26,1.26,0,0,1,1.17-.71,2.62,2.62,0,0,1,1.18.35.83.83,0,0,1,.18.13,19.46,19.46,0,0,0,10.61,3.64c.32,0,3.47.26,8.83,5.84a2.24,2.24,0,0,0,1.57.55,5.06,5.06,0,0,0,2.51-.82c.49-.36,5.48-3.87,8.56-3.87a3.06,3.06,0,0,1,1.25.23c1.49.62,4.94,3,5.58,4.33a1,1,0,0,1,0,.94,1,1,0,0,1-.82.49c-.22,0-5.65.37-6.67,6.88A17,17,0,0,1,23.81,42.82l-.17,0s-1.34.12-2.33,2.68a56,56,0,0,1-7.58,11.79,3.58,3.58,0,0,1-2.48,1.57ZM9.84,54.82a1.09,1.09,0,0,1,.36.06,1,1,0,0,1,.62.73,2.67,2.67,0,0,0,.47,1.26,2.58,2.58,0,0,0,.85-.76,55.65,55.65,0,0,0,7.32-11.35c1.35-3.49,3.5-3.88,4.06-3.92A14.92,14.92,0,0,0,36,28.85c.87-5.52,4.43-7.51,6.68-8.22a17.74,17.74,0,0,0-3.52-2.3,1.28,1.28,0,0,0-.48-.07c-2.07,0-6.09,2.55-7.46,3.53A7,7,0,0,1,27.65,23a4.14,4.14,0,0,1-3-1.19c-4.74-4.94-7.43-5.2-7.46-5.21A22,22,0,0,1,6.63,13.34C8.68,17.08,15.21,26,21.51,33.93a1,1,0,0,1-.38,1.54C20,36,19,38.26,18.58,39.38c-.65,3.73-12,7-15.6,7.92a3.16,3.16,0,0,0-.92.6,3.61,3.61,0,0,0,1.17.62,1,1,0,0,1,.66.7,1,1,0,0,1-.23.93,3.49,3.49,0,0,0-.59.79A3.87,3.87,0,0,0,4,51c.35,0,.61,0,.63,0a1,1,0,0,1,1,1.36,2.21,2.21,0,0,0-.24,1.2s.09,0,.23,0h0a3.3,3.3,0,0,0,.95-.18,1,1,0,0,1,1.35,1A2.08,2.08,0,0,0,8,55.57,3.36,3.36,0,0,0,9.25,55a1,1,0,0,1,.59-.19Z"/>
<circle class="bird-two" cx="38.18" cy="20.14" r="0.98"/>
</svg>