<svg xmlns="http://www.w3.org/2000/svg" width="65" height="38" viewBox="0 0 65 38" fill="none">
<path d="M38.5159 37.3693C36.8245 37.3693 35.1607 36.6403 33.9093 35.2582L7.52166 6.12708C6.93038 5.47398 6.25659 5.67143 6.00908 5.79294C5.74781 5.91444 5.14278 6.27896 5.14278 7.22063C5.14278 8.78502 3.98772 10.0608 2.57139 10.0608C1.15506 10.0608 8.39279e-07 8.78502 8.39279e-07 7.22063C8.39279e-07 4.2893 1.58134 1.67692 4.02897 0.552986C6.4766 -0.570945 9.26801 0.0517734 11.1519 2.11738L37.5258 31.2485C38.1171 31.9016 38.7909 31.7041 39.0384 31.5826C39.2996 31.4611 39.9047 31.0966 39.9047 30.1549V3.22612C39.9047 1.66173 41.0597 0.385915 42.4761 0.385915C43.8924 0.385915 45.0475 1.66173 45.0475 3.22612V30.1549C45.0475 33.0862 43.4661 35.6986 41.0185 36.8226C40.2072 37.2023 39.3546 37.3693 38.5159 37.3693Z" transform="translate(19.9531 0.247803)" fill="url(#line-one)"/>
<path d="M2.57139 37.3997C1.15506 37.3997 0 36.1239 0 34.5595V7.22063C0 4.2893 1.58134 1.67692 4.02897 0.552986C6.4766 -0.570945 9.26801 0.0517732 11.1519 2.11738L37.5258 31.2485C38.1171 31.9016 38.7909 31.7041 39.0384 31.5826C39.2996 31.4611 39.9047 31.0966 39.9047 30.1549V3.24131C39.9047 1.67692 41.0597 0.401103 42.4761 0.401103C43.8924 0.401103 45.0475 1.67692 45.0475 3.24131V30.1701C45.0475 33.1014 43.4661 35.7138 41.0185 36.8377C38.5709 37.9617 35.7795 37.339 33.8956 35.2734L7.52166 6.14227C6.93038 5.48917 6.25659 5.68662 6.00908 5.80813C5.74781 5.92963 5.14278 6.29415 5.14278 7.23582V34.5747C5.14278 36.1239 3.98772 37.3997 2.57139 37.3997Z" transform="translate(0 0.232666)" fill="url(#line-two)"/>
<path d="M2.57139 33.0193C1.15506 33.0193 8.39279e-07 31.7435 8.39279e-07 30.1791V2.84021C8.39279e-07 1.27581 1.15506 -1.15877e-07 2.57139 -1.15877e-07C3.98772 -1.15877e-07 5.14278 1.27581 5.14278 2.84021V30.1791C5.14278 31.7435 3.98772 33.0193 2.57139 33.0193Z" transform="translate(19.9531 4.61304)" fill="url(#line-three)"/>
<defs>
<linearGradient id="line-one" x2="1" gradientUnits="userSpaceOnUse" gradientTransform="translate(0.0018151 -6.1953) scale(45.0484 49.7578)">
<stop offset="0.1122" stop-color="#705FA9"/>
<stop offset="0.5244" stop-color="#884F9F"/>
<stop offset="1" stop-color="#ED4D64"/>
</linearGradient>
<linearGradient id="line-two" x2="1" gradientUnits="userSpaceOnUse" gradientTransform="translate(0 -6.17738) scale(45.0481 49.7575)">
<stop stop-color="#647DBE"/>
<stop offset="1" stop-color="#653F99"/>
</linearGradient>
<linearGradient id="line-three" x2="1" gradientUnits="userSpaceOnUse" gradientTransform="translate(9.71541 4.67177) scale(13.3954 14.7957) rotate(92.3533)">
<stop offset="0.1122" stop-color="#705FA9"/>
<stop offset="1" stop-color="#7654A3"/>
</linearGradient>
</defs>
</svg>