<svg width="76" height="87" viewBox="0 0 76 87" fill="none" xmlns="http://www.w3.org/2000/svg">
<g clip-path="url(#clip0)">
<path d="M67.7757 5.41113H8.51034C4.04693 5.41113 0.428711 9.04477 0.428711 13.5272V73.0451C0.428711 77.5275 4.04693 81.1611 8.51034 81.1611H67.7757C72.2391 81.1611 75.8573 77.5275 75.8573 73.0451V13.5272C75.8573 9.04477 72.2391 5.41113 67.7757 5.41113ZM30.4178 44.3182C15.1489 33.1896 15.3045 33.1615 11.2042 29.9567V25.7013C11.2042 23.4601 13.0133 21.6433 15.245 21.6433H61.041C63.2727 21.6433 65.0818 23.4601 65.0818 25.7013V29.9567C60.9785 33.164 61.1363 33.1902 45.8682 44.3184C44.1003 45.6127 40.5828 48.7349 38.143 48.6967C35.7012 48.7335 32.1884 45.6148 30.4178 44.3182V44.3182ZM65.0818 36.8229V60.871C65.0818 63.1122 63.2727 64.929 61.041 64.929H15.245C13.0133 64.929 11.2042 63.1122 11.2042 60.871V36.8229C13.5543 38.648 16.8157 41.0899 27.2501 48.695C29.6346 50.4435 33.6439 54.1302 38.1425 54.1074C42.6694 54.13 46.7355 50.3806 49.0392 48.6924C59.4709 41.0896 62.7317 38.6478 65.0818 36.8229V36.8229Z" fill="url(#paint0_linear)"/>
</g>
<defs>
<linearGradient id="paint0_linear" x1="38.143" y1="5.41113" x2="38.143" y2="81.1611" gradientUnits="userSpaceOnUse">
<stop stop-color="#9CC8D6"/>
<stop offset="1" stop-color="#7199A8"/>
</linearGradient>
<clipPath id="clip0">
<rect width="75.4286" height="86.5714" fill="white" transform="translate(0.428711)"/>
</clipPath>
</defs>
</svg>
