<svg width="76" height="88" viewBox="0 0 76 88" fill="none" xmlns="http://www.w3.org/2000/svg">
<g clip-path="url(#clip0)">
<path d="M67.9182 6.26855H8.65292C4.1895 6.26855 0.571289 9.90219 0.571289 14.3846V73.9025C0.571289 78.3849 4.1895 82.0186 8.65292 82.0186H67.9182C72.3817 82.0186 75.9999 78.3849 75.9999 73.9025V14.3846C75.9999 9.90219 72.3817 6.26855 67.9182 6.26855ZM30.5604 45.1756C15.2915 34.047 15.4471 34.0189 11.3468 30.8141V26.5587C11.3468 24.3175 13.1559 22.5007 15.3876 22.5007H61.1835C63.4152 22.5007 65.2243 24.3175 65.2243 26.5587V30.8141C61.1211 34.0215 61.2788 34.0477 46.0108 45.1758C44.2429 46.4702 40.7254 49.5923 38.2856 49.5541C35.8437 49.591 32.3309 46.4722 30.5604 45.1756ZM65.2243 37.6803V61.7284C65.2243 63.9696 63.4152 65.7864 61.1835 65.7864H15.3876C13.1559 65.7864 11.3468 63.9696 11.3468 61.7284V37.6803C13.6969 39.5054 16.9583 41.9473 27.3927 49.5524C29.7771 51.3009 33.7865 54.9876 38.2851 54.9648C42.812 54.9875 46.878 51.238 49.1818 49.5499C59.6135 41.947 62.8743 39.5052 65.2243 37.6803Z" fill="url(#paint0_linear)"/>
</g>
<defs>
<linearGradient id="paint0_linear" x1="38.2856" y1="6.26855" x2="38.2856" y2="82.0186" gradientUnits="userSpaceOnUse">
<stop stop-color="#6100FF"/>
<stop offset="0.375" stop-color="#C10CC5"/>
<stop offset="0.848958" stop-color="#121898"/>
</linearGradient>
<clipPath id="clip0">
<rect width="75.4286" height="86.5714" fill="white" transform="translate(0.571289 0.857422)"/>
</clipPath>
</defs>
</svg>
