<svg xmlns="http://www.w3.org/2000/svg" viewBox="0 0 426 345" width="426" height="345"><path fill="#ecd8e7" d="M99.58,195.34c-4.14-1.29-20.07-16-48.35-44.62-35.85-36.29-40-40.95-44.21-49.58C2,90.81,0,82,0,69.88c0-19.71,6.27-34.52,20.76-49,7.68-7.7,10.46-9.75,18.53-13.67C51.4,1.29,57.18,0,70.79,0c12.65,0,21.37,2.18,33,8.17,6.23,3.2,11.6,8.19,48.63,45.15,38.9,38.84,41.7,41.87,42.75,46.25,2.73,11.4.77,22.89-6.37,37.44-12.16,24.8-37.5,47.84-62.09,56.43C119.94,195.81,104.57,196.88,99.58,195.34Zm36.5-22c7.57-3.73,10.3-5.88,20.81-16.39s12.64-13.21,16.5-21,4.44-9.9,4.71-16.5c.24-6.24-.06-8.16-1.75-10.84-6.07-9.69-20.37-9.76-36.69-.18-7.44,4.36-26.84,23.69-31.13,31-7.69,13.13-9.35,25.75-4.31,32.83,3.44,4.82,7.25,6.21,15.86,5.77,6.12-.31,8.65-1.05,16-4.68ZM92.66,138.88c12.78-23.37,37.42-44.6,61.63-53.12l6.5-2.28-29.5-29.21C115.07,38.21,99.4,23.52,96.47,21.64c-31.22-20-73.94-1.39-81.78,35.74A54.09,54.09,0,0,0,20.93,95.3c1.48,2.58,15.75,17.78,32.7,34.81l30.09,30.24,2.56-7.24A116.44,116.44,0,0,1,92.66,138.88Zm211,55.58c-7.58-2.05-19.16-7.48-26.09-12.24-4-2.74-4.46-2.83-8.83-1.72-15.95,4-30.43-11-26.15-27.11,1.16-4.35,1.07-4.72-3-12.5-9.05-17.1-11.74-33.37-7.21-43.51,1.52-3.41,11.86-14.31,42.73-45,38.24-38.07,41.21-40.79,48.83-44.73a79.11,79.11,0,0,1,14.5-5.7c8.53-2,28.61-2,36.32,0,17.49,4.56,36.34,20.06,44.4,36.51,5.69,11.61,7.5,19.3,7.53,32,0,12.24-2.09,20.52-8.59,33.45-3.85,7.66-6,10-44.16,48.08C347.78,178,332.4,192.6,329.79,193.83c-5.82,2.76-17.23,3-26.12.63Zm13-17.47c7.92-3.31,10.8-14.46,6.72-26-3.5-10-8.13-16.59-19.61-28.07-15.24-15.25-26.36-21.4-38.8-21.47-6.34,0-9.88,1.37-13.67,5.42-3.56,3.82-4,14-1.1,22.82,3.06,9.21,3.72,9.87,8.57,8.71,7-1.66,13.89.42,19.51,5.86,6.53,6.33,8.26,13.49,5.82,24.13-.38,1.64,7.49,6.33,14.17,8.46,5.83,1.85,14.19,1.94,18.39.18ZM362.36,54.17c2.54-4.88,2.53-12.3,0-16.49-4.24-7-15.15-8.57-23.09-3.41-4.45,2.89-56.76,54.72-55.9,55.38.25.2,4,2.5,8.21,5.12a137.47,137.47,0,0,1,13,9.11l5.24,4.34,25.32-25.17C349,69.21,361.3,56.21,362.36,54.17Zm-166.71,167A21.36,21.36,0,1,1,217,242.56,21.36,21.36,0,0,1,195.65,221.2Zm17,57.7a17.92,17.92,0,1,1,17.92,17.92A17.92,17.92,0,0,1,212.62,278.9ZM200.72,333a12,12,0,1,1,12,12A12,12,0,0,1,200.72,333ZM250.3,207.7a12.22,12.22,0,1,1,12.22,12.22A12.22,12.22,0,0,1,250.3,207.7ZM155.08,216a16.72,16.72,0,1,1,16.71,16.71A16.72,16.72,0,0,1,155.08,216Zm16.79-37.45a12.62,12.62,0,1,1,12.62,12.62A12.61,12.61,0,0,1,171.87,178.53Z"/></svg>
