<svg xmlns="http://www.w3.org/2000/svg" xmlns:xlink="http://www.w3.org/1999/xlink" width="133px" height="34px" viewBox="0 0 133 34" version="1.1">
    <title>logo_rr</title>
    <desc>Created with Sketch.</desc>
    <defs/>
    <g id="Basic-Pages" stroke="none" stroke-width="1" fill="none" fill-rule="evenodd">
        <g id="logo_1" transform="translate(-42.000000, -35.000000)" fill="#FFFFFF">
            <g id="logo_rr" transform="translate(42.000000, 34.500000)">
                <path d="M46.3420118,9.10252168 L49.3754486,13.6701105 L49.3754486,13.8444459 L46.6209485,13.8444459 L43.8141477,9.3814584 L41.7569894,9.3814584 L41.7569894,13.8444459 L39.3685937,13.8444459 L39.3685937,1.64096441 L44.7206921,1.64096441 C45.9642912,1.64096441 46.9550877,2.00706519 47.6931115,2.73927774 C48.4311353,3.4714903 48.8001416,4.37802557 48.8001416,5.45891077 C48.8001416,6.3422148 48.5793189,7.10056643 48.1376669,7.7339884 C47.6960149,8.36741037 47.0974692,8.82358357 46.3420118,9.10252168 Z M41.7569894,3.78529045 L41.7569894,7.25456591 L44.5986573,7.25456591 C45.1797783,7.25456591 45.6156126,7.08894889 45.9061731,6.75770988 C46.1967337,6.42647086 46.3420118,5.99935328 46.3420118,5.47634431 C46.3420118,4.98820261 46.1938281,4.58432952 45.8974564,4.26471293 C45.6010846,3.94509634 45.1681559,3.78529045 44.5986573,3.78529045 L41.7569894,3.78529045 Z M59.498527,1.64096441 L63.7871791,13.6701105 L63.7871791,13.8444459 L61.1547138,13.8444459 L60.3179036,11.2817148 L55.5411123,11.2817148 L54.7043021,13.8444459 L52.1938717,13.8444459 L52.1938717,13.6701105 L56.4650902,1.64096441 L59.498527,1.64096441 Z M56.2384541,9.17225586 L59.6205618,9.17225586 L57.9643751,4.08166071 L57.8946409,4.08166071 L56.2384541,9.17225586 Z M67.6690484,13.8444459 L67.6690484,1.64096441 L70.0748776,1.64096441 L70.0748776,13.8444459 L67.6690484,13.8444459 Z M75.0550603,13.8444459 L75.0550603,1.64096441 L77.4434559,1.64096441 L77.4434559,11.7001199 L83.074491,11.7001199 L83.074491,13.8444459 L75.0550603,13.8444459 Z M91.0706769,14.0013478 C89.5132724,14.0013478 88.3074643,13.6265304 87.4532163,12.8768842 C86.5989683,12.127238 86.1427951,11.1073858 86.084683,9.81729703 L88.5079458,9.81729703 C88.5544355,10.4913975 88.8014082,11.0027764 89.2488715,11.351449 C89.6963347,11.7001216 90.3035971,11.8744553 91.0706769,11.8744553 C92.7210608,11.8744553 93.5462403,11.3746987 93.5462403,10.3751705 C93.5462403,9.96838572 93.4125845,9.64877392 93.1452688,9.41632549 C92.8779531,9.18387707 92.4537411,9.00373223 91.87262,8.8758856 L90.0943984,8.49234761 C88.9321563,8.24827676 88.0401488,7.85312035 87.4183492,7.30686654 C86.7965497,6.76061274 86.4856546,5.97029993 86.4856546,4.93590442 C86.4856546,3.90150891 86.9011499,3.06761268 87.732153,2.4341907 C88.5631562,1.80076873 89.6817975,1.4840625 91.0881105,1.4840625 C92.4595562,1.4840625 93.5840086,1.84435216 94.4615014,2.56494229 C95.3389943,3.28553242 95.7835452,4.2153122 95.7951676,5.3543095 L93.3719049,5.3543095 C93.3370376,4.84292295 93.1278372,4.42742762 92.7442972,4.10781103 C92.3607573,3.78819444 91.7970784,3.62838854 91.0532434,3.62838854 C90.3558981,3.62838854 89.8299914,3.74751657 89.4755076,3.98577621 C89.1210237,4.22403585 88.9437844,4.54074209 88.9437844,4.93590442 C88.9437844,5.26133222 89.0629125,5.53445503 89.3011721,5.75528104 C89.5394317,5.97610704 89.9433048,6.15044075 90.5128035,6.27828739 L92.1689903,6.62695829 C93.3893445,6.88265156 94.3336521,7.2981469 95.0019413,7.87345676 C95.6702306,8.44876662 96.0043702,9.26522948 96.0043702,10.3228698 C96.0043702,11.4618671 95.594686,12.3596857 94.7753052,13.0163525 C93.9559245,13.6730194 92.7210608,14.0013478 91.0706769,14.0013478 Z M46.3420118,27.1850121 L49.3754486,31.7526009 L49.3754486,31.9269363 L46.6209485,31.9269363 L43.8141477,27.4639488 L41.7569894,27.4639488 L41.7569894,31.9269363 L39.3685937,31.9269363 L39.3685937,19.7234548 L44.7206921,19.7234548 C45.9642912,19.7234548 46.9550877,20.0895556 47.6931115,20.8217681 C48.4311353,21.5539807 48.8001416,22.460516 48.8001416,23.5414012 C48.8001416,24.4247052 48.5793189,25.1830568 48.1376669,25.8164788 C47.6960149,26.4499008 47.0974692,26.906074 46.3420118,27.1850121 Z M41.7569894,21.8677808 L41.7569894,25.3370563 L44.5986573,25.3370563 C45.1797783,25.3370563 45.6156126,25.1714393 45.9061731,24.8402003 C46.1967337,24.5089613 46.3420118,24.0818437 46.3420118,23.5588347 C46.3420118,23.070693 46.1938281,22.6668199 45.8974564,22.3472033 C45.6010846,22.0275867 45.1681559,21.8677808 44.5986573,21.8677808 L41.7569894,21.8677808 Z M53.292185,31.9269363 L53.292185,19.7234548 L61.7474543,19.7234548 L61.7474543,21.8677808 L55.6805807,21.8677808 L55.6805807,24.5699803 L61.2070144,24.5699803 L61.2070144,26.6968728 L55.6805807,26.6968728 L55.6805807,29.8000438 L61.7474543,29.8000438 L61.7474543,31.9269363 L53.292185,31.9269363 Z M72.3761056,19.7234548 L76.6647577,31.7526009 L76.6647577,31.9269363 L74.0322924,31.9269363 L73.1954822,29.3642052 L68.4186909,29.3642052 L67.5818807,31.9269363 L65.0714502,31.9269363 L65.0714502,31.7526009 L69.3426687,19.7234548 L72.3761056,19.7234548 Z M69.1160327,27.2547463 L72.4981404,27.2547463 L70.8419536,22.1641511 L70.7722194,22.1641511 L69.1160327,27.2547463 Z M85.3757189,32.0838382 C83.5393763,32.0838382 82.1214622,31.5056314 81.1219339,30.3492005 C80.1224057,29.1927696 79.6226491,27.6905941 79.6226491,25.8426291 C79.6226491,23.9830417 80.1224057,22.4721495 81.1219339,21.3099074 C82.1214622,20.1476652 83.5393763,19.5665529 85.3757189,19.5665529 C86.8750113,19.5665529 88.1011584,20.0023872 89.0541969,20.8740688 C90.0072355,21.7457504 90.5302366,22.8440527 90.623216,24.1690088 L88.1825197,24.1690088 C88.1127852,23.4600411 87.8425679,22.8789287 87.3718598,22.4256543 C86.9011518,21.9723798 86.2357781,21.745746 85.3757189,21.745746 C84.2832113,21.745746 83.4580318,22.1118468 82.9001555,22.8440594 C82.3422793,23.5762719 82.0633454,24.5757852 82.0633454,25.8426291 C82.0633454,27.109473 82.3422793,28.1060807 82.9001555,28.8324821 C83.4580318,29.5588834 84.2832113,29.9220786 85.3757189,29.9220786 C86.2009109,29.9220786 86.8459456,29.7099726 87.3108424,29.2857542 C87.7757393,28.8615359 88.0721066,28.3007624 88.1999532,27.6034172 L90.623216,27.6034172 C90.4837469,28.9051284 89.946218,29.9772807 89.0106131,30.8199062 C88.0750081,31.6625318 86.8633889,32.0838382 85.3757189,32.0838382 Z M97.4339209,31.9269363 L97.4339209,21.8852144 L93.8426106,21.8852144 L93.8426106,19.7234548 L103.43106,19.7234548 L103.43106,21.8852144 L99.8397501,21.8852144 L99.8397501,31.9269363 L97.4339209,31.9269363 Z M112.420958,32.0838382 C110.549748,32.0838382 109.120212,31.4998203 108.132306,30.331767 C107.1444,29.1637136 106.650455,27.6615382 106.650455,25.8251956 C106.650455,23.988853 107.1444,22.4866775 108.132306,21.3186242 C109.120212,20.1505708 110.549748,19.5665529 112.420958,19.5665529 C114.280546,19.5665529 115.707177,20.1505708 116.700894,21.3186242 C117.694611,22.4866775 118.191462,23.988853 118.191462,25.8251956 C118.191462,27.6615382 117.694611,29.1637136 116.700894,30.331767 C115.707177,31.4998203 114.280546,32.0838382 112.420958,32.0838382 Z M112.420958,29.9046451 C113.525088,29.9046451 114.356079,29.5414499 114.913955,28.8150485 C115.471832,28.0886472 115.750765,27.0920395 115.750765,25.8251956 C115.750765,24.5583516 115.471832,23.5617439 114.913955,22.8353426 C114.356079,22.1089412 113.525088,21.745746 112.420958,21.745746 C111.316828,21.745746 110.485838,22.1089412 109.927961,22.8353426 C109.370085,23.5617439 109.091151,24.5583516 109.091151,25.8251956 C109.091151,27.0920395 109.370085,28.0886472 109.927961,28.8150485 C110.485838,29.5414499 111.316828,29.9046451 112.420958,29.9046451 Z M129.465154,27.1850121 L132.498591,31.7526009 L132.498591,31.9269363 L129.744091,31.9269363 L126.93729,27.4639488 L124.880132,27.4639488 L124.880132,31.9269363 L122.491736,31.9269363 L122.491736,19.7234548 L127.843834,19.7234548 C129.087434,19.7234548 130.07823,20.0895556 130.816254,20.8217681 C131.554278,21.5539807 131.923284,22.460516 131.923284,23.5414012 C131.923284,24.4247052 131.702461,25.1830568 131.260809,25.8164788 C130.819157,26.4499008 130.220612,26.906074 129.465154,27.1850121 Z M124.880132,21.8677808 L124.880132,25.3370563 L127.7218,25.3370563 C128.302921,25.3370563 128.738755,25.1714393 129.029316,24.8402003 C129.319876,24.5089613 129.465154,24.0818437 129.465154,23.5588347 C129.465154,23.070693 129.316971,22.6668199 129.020599,22.3472033 C128.724227,22.0275867 128.291298,21.8677808 127.7218,21.8677808 L124.880132,21.8677808 Z" id="Rails-Reactor"/>
                <g id="Group" transform="translate(0.375293, 0.733950)">
                    <polygon id="Triangle" points="18.6 0.18503418 13.2 14.2980341 0 14.2980341"/>
                    <polygon id="Triangle" transform="translate(14.899268, 25.990411) scale(-1, -1) translate(-14.899268, -25.990411) " points="24.1992676 18.9339111 18.7992676 33.046911 5.59926758 33.046911"/>
                </g>
            </g>
        </g>
    </g>
</svg>