<svg xmlns="http://www.w3.org/2000/svg" viewBox="0 0 64 64" width="64px" height="64px"><path fill="#241f20" d="M63,20.55,59.42,17c-1.43-1.44-3.63-.27-3.63-.27h0a6.31,6.31,0,0,1-8.25-8.29l0-.06a3.74,3.74,0,0,0-.69-4L43.28.77C41.72-.8,40,.63,39.61,1L1,39.45c-2.14,2.13-.37,3.83-.37,3.83L4.8,47.44a2.66,2.66,0,0,0,3,.3L8,47.69a6.3,6.3,0,0,1,8.57,8.09h0s-1.21,2.24.24,3.69l3.63,3.64c.26.26,2.16,2,4.54-.4L63.28,24.54A2.68,2.68,0,0,0,63,20.55ZM23.46,45.2l-.33.33a.64.64,0,0,1-.94,0l-4.25-4.27-1.07,1.07a.66.66,0,0,1-1,0l-.14-.14s-.38-.35.2-.93L19.18,38s.51-.57,1-.08l.11.11a.62.62,0,0,1,0,.91L19.16,40l4.09,4.1C23.76,44.61,23.61,45,23.46,45.2Zm3.61-3.6-.26.26c-.42.41-1-.06-1.09-.19l-4.49-4.5s-.62-.64-.11-1.15l.19-.18s.54-.5,1.28.24L27,40.5A.73.73,0,0,1,27.07,41.6Zm5.48-5.73a5.59,5.59,0,0,1-1.1,1.52,3.44,3.44,0,0,1-2.69,1.16A4.6,4.6,0,0,1,25.91,37a5,5,0,0,1-1.24-1.9,3.28,3.28,0,0,1-.1-2,4,4,0,0,1,1.08-1.8,5.32,5.32,0,0,1,1.61-1,.64.64,0,0,1,.75.38l.07.16c.3.71-.55.95-.55.95h0l-.11.05a2.71,2.71,0,0,0-.75.52A1.78,1.78,0,0,0,26.11,34a3.44,3.44,0,0,0,1.07,1.82q1.92,1.93,3.37.49a5.89,5.89,0,0,0,.82-1.15h0s.35-.61.68-.28l.21.21A.77.77,0,0,1,32.55,35.87Zm5.84-5.54-.59.58a1.09,1.09,0,0,1-.93.23l-3.36-.8-.15.89,1.39,1.39c.5.5.38.89.23,1.11l-.31.3c-.42.42-.9,0-1.08-.12l-4.52-4.54s-.64-.63-.18-1.09l.28-.28c.18-.14.6-.37,1.15.18l2,2L32.1,29l-.34-3.06a1,1,0,0,1,.29-.8l.46-.46s.55-.56.65.25h0l.44,3.76,4.53,1C38.37,29.79,38.75,30,38.39,30.33Zm4.14-4-2.22,2.2a.83.83,0,0,1-1.26,0L34.58,24a1.05,1.05,0,0,1,0-1.33l2.16-2.15s.46-.51.84-.13l.17.17a.61.61,0,0,1,0,1l-1.18,1.18a.59.59,0,0,0,0,.87l.35.35a.68.68,0,0,0,1-.05l.94-.94s.48-.49.84-.12l.14.14a.63.63,0,0,1,.08.92l-.91.91c-.57.57-.25,1-.15,1.1l.63.62a.56.56,0,0,0,.82-.05l1.16-1.16s.48-.51.79-.2l.2.2A.68.68,0,0,1,42.53,26.33ZM45.7,23l-.19.19c-.38.38-.85,0-1-.17l-3.63-3.63a.66.66,0,0,0-1-.05l-.66.65a.58.58,0,0,1-.88,0l-.18-.17a.57.57,0,0,1,.08-.84l3.37-3.35a.66.66,0,0,1,1-.11l.11.11a.63.63,0,0,1,0,.93l-.68.68c-.09.09-.38.48.16,1l3.56,3.58A.79.79,0,0,1,45.7,23Z"/></svg>