<svg class="figure figure-logo" viewBox="0 0 92 32" width="92" height="32" version="1.1" xmlns="http://www.w3.org/2000/svg" xmlns:xlink="http://www.w3.org/1999/xlink" preserveAspectRatio="xMinYMid">
    <g class="star-logo" stroke="none" stroke-width="1" fill="#fff" fill-rule="evenodd">
        <g class="figure-star-text">
          <path d="M30.5742801,0 C16.090443,12.6117212 14.6707777,12.6117212 0.189649943,0 L0,0.189649943 C12.6117212,14.6707777 12.6117212,16.090443 0,30.5742801 L0.189649943,30.7612207 C14.6707777,18.1494995 16.090443,18.1494995 30.5742801,30.7612207 L30.7612207,30.5742801 C18.1522088,16.090443 18.1522088,14.6707777 30.7612207,0.189649943 L30.5742801,0 Z"></path>
          <path d="M58.41733,22.1996095 L58.41733,13.8658492 L56.03045,13.8658492 L56.03045,11.115925 L58.41733,11.115925 L58.41733,7.797051 L61.5492633,6.55077995 L61.5492633,11.115925 L64.4698725,11.115925 L64.4698725,13.8658492 L61.5492633,13.8658492 L61.5492633,21.4220447 C61.5492633,22.4082244 62.0260975,23.1261849 62.9201615,23.1261849 C63.5162042,23.1261849 64.0824447,22.8850586 64.3208618,22.6168394 L65.0686244,24.9766265 C64.5023839,25.5157742 63.5758084,25.903202 62.1155039,25.903202 C59.6988218,25.903202 58.41733,24.5891988 58.41733,22.1996095"></path>
          <path d="M41.6219311,20.0484373 C42.9928292,21.5141604 45.1412922,22.7983615 47.9155999,22.7983615 C50.7766047,22.7983615 51.9090858,21.3922426 51.9090858,20.0782394 C51.9090858,18.2874021 49.7931343,17.7482544 47.3791615,17.1197003 C44.1280196,16.3150427 40.3106372,15.3586651 40.3106372,11.1457271 C40.3106372,7.85936455 43.2014442,5.32076461 47.555265,5.32076461 C50.6573962,5.32076461 53.1634847,6.30694431 55.011217,8.09778163 L53.0144741,10.6986951 C51.4620538,9.14627488 49.3461023,8.42831438 47.2599529,8.42831438 C45.2008964,8.42831438 43.8868932,9.41449409 43.8868932,10.9073101 C43.8868932,12.4597303 45.9161476,12.9690759 48.2732255,13.5651185 C51.5541695,14.4022876 55.458249,15.4182694 55.458249,19.750416 C55.458249,23.0665807 53.1336826,25.903202 47.7665892,25.903202 C44.0982175,25.903202 41.4431183,24.6190009 39.6847924,22.7387572 L41.6219311,20.0484373 Z"></path>
          <path d="M76.6798067,23.5737588 C75.5771277,25.0069705 73.905499,25.9037438 72.0550574,25.9037438 C68.3595928,25.9037438 65.6448893,23.0969247 65.6448893,18.344839 C65.6448893,13.6848689 68.3297906,10.7588413 72.0550574,10.7588413 C73.8458947,10.7588413 75.5473256,11.5960103 76.6798067,13.1186284 L76.6798067,11.1164669 L79.81174,11.1164669 L79.81174,25.5461182 L76.6798067,25.5461182 L76.6798067,23.5737588 Z M76.6798067,15.5082177 C75.9645555,14.4326316 74.4419374,13.5656604 72.9518307,13.5656604 C70.4755443,13.5656604 68.8960312,15.5380198 68.8960312,18.344839 C68.8960312,21.1245653 70.4755443,23.1267268 72.9518307,23.1267268 C74.4419374,23.1267268 75.9645555,22.2895578 76.6798067,21.2139717 L76.6798067,15.5082177 Z"></path>
        </g>
        <g class="figure-star">
          <path d="M82.8670006,11.1161959 L85.998934,11.1161959 L85.998934,13.237566 C87.0718108,11.8639586 88.8003345,10.7883725 90.6805783,10.7883725 C91.3904109,10.7883725 92,10.9915688 92,10.9915688 L92,14.0991186 C92,14.0991186 91.4039573,13.8065158 89.9030135,13.8065158 C88.4020697,13.8065158 86.6247788,14.7005798 85.998934,15.7165617 L85.998934,25.5458473 L82.8670006,25.5458473 L82.8670006,11.1161959 Z"></path>
        </g>
    </g>
</svg>