<svg xmlns="http://www.w3.org/2000/svg" viewBox="0 0 62 62" width="62px" height="62px"><path d="M20,27.4l8.34,7.35,1.32-1.5L21.35,25.9A3.88,3.88,0,0,1,20,23H18A5.89,5.89,0,0,0,20,27.4Z"/><path d="M17.38,30.4,32,43.33,46.67,30.38A9.84,9.84,0,0,0,50,23v-.13a9.8,9.8,0,0,0-2.87-7A10.08,10.08,0,0,0,46,15V11.22l-2.89-.73-.06-.15,1.52-2.57L39.23,2.43,36.66,4l-.14-.06L35.78,1H28.22l-.74,2.89L27.34,4,24.77,2.43,19.43,7.77,21,10.34l-.06.14L18,11.22V15a9.84,9.84,0,0,0-4,7.88V23A9.89,9.89,0,0,0,17.38,30.4ZM20,12.78l2.41-.62.18-.5a8,8,0,0,1,.39-1l.23-.48L21.94,8.09l3.15-3.15,2.13,1.27L27.71,6a7.89,7.89,0,0,1,.95-.39l.5-.18L29.78,3h4.44l.62,2.41.5.18a7.27,7.27,0,0,1,.95.39l.48.23,2.14-1.27,3.15,3.15-1.27,2.13.23.48c.14.32.28.63.39,1l.18.5,2.41.62v1A9.73,9.73,0,0,0,40.14,13l-.39,0a8,8,0,0,0-15.49,0H23.9a9.79,9.79,0,0,0-3.9.81Zm10,2.33S30,15,30,15a2,2,0,0,1,4,0,.77.77,0,0,1,0,.15l-2,1.57L30.1,15.18ZM35.85,14a4,4,0,0,0-7.7,0,9.68,9.68,0,0,0-1.89-.68,6,6,0,0,1,11.48,0A10,10,0,0,0,35.85,14ZM16,22.86a7.87,7.87,0,0,1,12.81-6.12L32,19.28l3.23-2.57A7.91,7.91,0,0,1,40.14,15,7.87,7.87,0,0,1,48,22.9V23a7.89,7.89,0,0,1-2.65,5.85L32,40.67,18.7,28.9A7.9,7.9,0,0,1,16,23Z"/><path d="M59.88,34a3.15,3.15,0,0,0-2.21.91L51.59,41H48.2l1.28-1.91A3.14,3.14,0,0,0,50,37.36v-.24a3.13,3.13,0,0,0-5.33-2.21l-9.62,9.63a7,7,0,0,0-2,5V55H31V49.49a7,7,0,0,0-2.05-5l-9.62-9.62A3.13,3.13,0,0,0,14,37.12v.24a3.16,3.16,0,0,0,.52,1.73L15.8,41H12.41L6.33,34.91A3.13,3.13,0,0,0,1,37.12v.24a3.16,3.16,0,0,0,.52,1.73l5.87,8.79A7,7,0,0,0,13.21,51H19a1,1,0,0,1,1,1v3H18v8H46V55H44V52a1,1,0,0,1,1-1h5.79a7,7,0,0,0,5.82-3.12l5.87-8.79A3.14,3.14,0,0,0,63,37.36v-.24A3.12,3.12,0,0,0,59.88,34ZM19,49H13.21a5,5,0,0,1-4.16-2.23L3.19,38A1.16,1.16,0,0,1,3,37.36v-.24a1.12,1.12,0,0,1,1.91-.79L11.59,43h5.54l1,1.56,1.66-1.11L16.19,38a1.16,1.16,0,0,1-.19-.62v-.24a1.12,1.12,0,0,1,1.91-.79L27.53,46A4.94,4.94,0,0,1,29,49.48V55H22V52A3,3,0,0,0,19,49ZM31,61H20V57H31Zm13,0H33V57H44ZM61,37.36a1.08,1.08,0,0,1-.19.62L55,46.77A5,5,0,0,1,50.79,49H45a3,3,0,0,0-3,3v3H35V49.49A4.94,4.94,0,0,1,36.47,46l9.62-9.62a1.1,1.1,0,0,1,.79-.33A1.12,1.12,0,0,1,48,37.12v.24a1.08,1.08,0,0,1-.19.62l-3.64,5.46,1.66,1.11,1-1.55h5.54l6.68-6.67a1.1,1.1,0,0,1,.79-.33A1.12,1.12,0,0,1,61,37.12Z"/></svg>