<svg  xmlns="http://www.w3.org/2000/svg" viewBox="0 0 498 497" width="498px" height="497px"><style>.cls-1{fill:none;stroke:#000;stroke-linecap:round;stroke-linejoin:round;stroke-width:20px;}</style><path class="cls-1" d="M336.43,92.55a86.75,86.75,0,0,0-55.64-81V79.31a13.24,13.24,0,0,1-13.24,13.24H231.84A13.24,13.24,0,0,1,218.6,79.31V11.57a86.75,86.75,0,0,0-9.71,157.53V267H290.5V169.1A86.71,86.71,0,0,0,336.43,92.55Z"/><path class="cls-1" d="M63.18,377.82S99,347.55,143.44,339.29s81.68,8.45,81.68,8.45h96.64a19.71,19.71,0,0,1,19.69,19.69h0A19.68,19.68,0,0,1,324.23,387L201.74,402.45l52,16c48.56,5.84,97.72-13.49,140.48-37.22l65.09-36.12a20.41,20.41,0,0,1,25.78,5.75h0A20.4,20.4,0,0,1,478.58,381l-95.17,51.78c-47.71,26-102,60-156.11,55.15L63.18,473.34H10.76V377.82Z"/><path class="cls-1" d="M394.24,381.19l47.66-26.45a17.77,17.77,0,0,0,6.92-24.16,17.18,17.18,0,0,0-1.09-1.72h0A17.78,17.78,0,0,0,425,323.47l-83.55,44"/><path class="cls-1" d="M305.3,347.74l66-35.72a17.56,17.56,0,0,1,23.39,6.35h0a17.57,17.57,0,0,1-5.95,24.13l-.89.5-26.09,13.72"/><path class="cls-1" d="M328.46,335.21l9.72-5.26a18.37,18.37,0,0,0,6-27h0a18.34,18.34,0,0,0-23.28-5.38l-95.82,50.17"/></svg>