<?xml version="1.0" ?><!DOCTYPE svg  PUBLIC '-//W3C//DTD SVG 1.1//EN'  'http://www.w3.org/Graphics/SVG/1.1/DTD/svg11.dtd'><svg enable-background="new 0 0 51.5352 58.8809" id="love-bird" version="1.1" viewBox="0 0 51.5352 58.8809" xml:space="preserve" xmlns="http://www.w3.org/2000/svg" xmlns:xlink="http://www.w3.org/1999/xlink"><g><circle cx="25.8163" cy="29.5732" fill="#C0DFCF" r="20.9863"/><g><path d="M45.6444,8.7051c-0.4082-0.9268-1.3311-1.5762-2.4102-1.5762c-1.4463,0-2.4922,1.2002-2.625,2.627    c0,0-0.0703,0.3535,0.084,0.9941c0.2148,0.8691,0.7168,1.6367,1.3857,2.2305l3.5655,3.0683l3.5039-3.0683    c0.6709-0.5938,1.1699-1.3614,1.3847-2.2305c0.1524-0.6406,0.085-0.9941,0.085-0.9941c-0.1318-1.4268-1.1767-2.627-2.6289-2.627    C46.9139,7.1289,46.0506,7.7783,45.6444,8.7051z" fill="#FFA8A6"/><g><path d="M45.6444,16.9492c-0.209,0-0.4185-0.0732-0.5869-0.2178l-3.5655-3.0683     c-0.8466-0.752-1.4214-1.6807-1.6723-2.6973c-0.1875-0.7783-0.1187-1.2568-0.0933-1.3857     c0.1694-1.8711,1.6831-3.3516,3.5078-3.3516c0.9063,0,1.7583,0.3486,2.3999,0.9434c0.6265-0.5996,1.4551-0.9434,2.355-0.9434     c1.8281,0,3.3438,1.4815,3.5249,3.4444c0.0122,0.0419,0.0772,0.5166-0.1055,1.2851c-0.2539,1.0274-0.8286,1.957-1.6635,2.6963     l-3.5079,3.0713C46.0677,16.874,45.8558,16.9492,45.6444,16.9492L45.6444,16.9492z M43.2342,8.0293     c-1.0244,0-1.645,0.9102-1.729,1.8096c-0.0083,0.0654-0.0356,0.291,0.063,0.7002c0.1621,0.6562,0.5459,1.2695,1.1084,1.7685     l2.9624,2.5498l2.9165-2.5537c0.5566-0.4932,0.9399-1.1064,1.104-1.7695c0.0967-0.4072,0.0698-0.6358,0.0698-0.6377     c-0.0908-0.957-0.7124-1.8672-1.7402-1.8672c-0.6675,0-1.2358,0.3877-1.5205,1.0371c-0.1431,0.3272-0.4663,0.5381-0.8232,0.5391     c-0.0005,0-0.0005,0-0.0005,0c-0.3575,0-0.6802-0.211-0.8243-0.5381C44.5428,8.4365,43.9198,8.0293,43.2342,8.0293     L43.2342,8.0293z" fill="#43525B"/></g></g><g><path d="M27.6473,21.9502c0.626,0,1.3066-0.1533,2.0244-0.4561l0.4131-0.1738l0.1377-0.4258    c0.1729-0.1933,1.6816-1.8896-0.9297-5.1972l-0.0527-0.0674l-0.0645-0.0567c-0.6601-0.5869-6.457-5.9218-6.8965-12.2265L22.0467,0    l-1.5986,2.9492c-0.0518,0.0957-5.2217,9.6758-4.2813,11.9863l0.2314,0.5694l0.7812,0.0508    c0.1416,0.0048,3.0078,0.1494,8.1894,5.5459C25.5135,21.249,26.2694,21.9502,27.6473,21.9502L27.6473,21.9502z" fill="#CCCCCC"/><path d="M11.5565,57.8359c0.5625-0.164,1.1621-0.8281,1.4277-1.1953c4.8701-6.0029,7.1328-10.8926,7.375-11.4306    c1.1904-3.0713,2.9062-3.3448,3.2383-3.3692l0.1016-0.0127c11.7597-2.1162,13.2744-12.4336,13.333-12.872    c0.7549-4.7901,3.6924-6.6592,6.0234-7.3799l1.7149-0.5313l-1.378-1.1504c-1.0586-0.8857-2.707-2.0244-3.8066-2.4863    c-0.2412-0.1016-0.5313-0.1523-0.8633-0.1523c-2.7969,0-7.8965,3.6152-8.1123,3.7695c-1.0068,0.5996-2.0254,0.9248-2.9629,0.9248    c-1.4834-0.001-2.2344-0.7998-2.2646-0.835c-4.4854-4.6699-7.2676-5.4199-8.0137-5.539l-0.2168-0.0342l-0.21,0.0615    c-0.0615-0.0058-0.123-0.0293-0.1836-0.0527l-0.1299-0.0488l-0.1367-0.0118c-4.6289-0.3906-7.8779-2.0722-9.4023-3.039    l-3.1758-2.0137l1.7949,3.3037c2.2021,4.0567,9.3301,13.6318,15.0195,20.8135c-1.8447,0.8086-3.0478,4.3584-3.0986,4.5088    l-0.0234,0.0713l-0.0127,0.0722c-0.3496,2.0352-6.3242,4.8985-14.8672,7.128l-0.0918,0.0244l-0.084,0.041    c-0.5781,0.2773-1,0.5605-1.2539,0.8418L0.6873,47.916l0.6289,0.6563c0.3653,0.3789,1.087,0.7324,1.6036,0.9004    c-0.3594,0.3925-0.6192,0.748-0.7676,1.0537L1.661,51.5469l1.081,0.3359c0.3194,0.0996,0.7481,0.1524,1.2383,0.1524    c0.4082,0,0.7246-0.0372,0.7481-0.0391c-0.1543,0.4014-0.2383,0.7187-0.2832,0.9609l-1.1368,0.666l1.6309,0.8008    c0.1894,0.0918,0.4297,0.1397,0.7139,0.1397c0.622,0,1.2646-0.2295,1.292-0.2403c-0.1035,1.2432,0.1484,1.6739,0.3457,1.8897    l0.291,0.3183l0.4473,0.0098h0.4414l0.0703-0.0781c0.6523-0.1797,1.2656-0.6211,1.2969-0.6445    c0.1777,0.8339,0.4258,1.4257,0.7441,1.7558L10.9911,58L11.5565,57.8359z" fill="#FFFFFF"/></g><g><g><path d="M30.1898,21.9072c-0.2764,0-0.5518-0.1142-0.749-0.3369c-0.3662-0.4141-0.3277-1.0459,0.0854-1.4121     c0.0244-0.0264,1.0923-1.167-1.0176-3.8398c-0.7719-0.6885-6.7124-6.1895-7.2197-12.8204     c-2.7808,5.1426-4.6841,10.2852-4.1143,11.1758c0.5444,0.0918,0.8804,0.583,0.7881,1.128     c-0.0923,0.5439-0.6401,0.8808-1.1836,0.7939c-0.6313-0.1074-1.1323-0.4844-1.4106-1.0615     c-1.3037-2.7051,3.0747-11.0264,4.4473-13.5117c0.3144-0.5772,1.0596-1.9336,2.2158-1.7373     c0.7642,0.1357,1.1377,0.8681,1.2329,1.5087c0.0103,0.0694,0.0132,0.1407,0.0088,0.211     c-0.4282,6.665,6.5483,12.8056,6.6186,12.8672c0.0454,0.039,0.0869,0.083,0.1245,0.1299     c3.4273,4.2753,0.9434,6.5585,0.836,6.6542C30.662,21.8242,30.4251,21.9072,30.1898,21.9072L30.1898,21.9072z" fill="#43525B"/></g><g><path d="M11.2518,58.8809c-0.647,0-1.4561-0.3086-2.0083-1.6016c-0.3691,0.1465-0.7881,0.2588-1.207,0.2588     c-0.5893,0-1.0972-0.2149-1.4697-0.6221c-0.3115-0.3408-0.5083-0.793-0.5923-1.3662c-0.1055,0.0088-0.2134,0.0137-0.3218,0.0137     c-1.0669,0-1.6167-0.4746-1.8902-0.8731c-0.3061-0.4463-0.4179-1.0009-0.3354-1.6767c-1.1992-0.0938-1.9673-0.5108-2.2861-1.2403     c-0.2925-0.6699-0.0865-1.3525,0.229-1.9072c-0.6592-0.3965-1.3116-1.0019-1.3663-1.8574     c-0.0947-1.4785,1.6412-2.2901,2.2115-2.5567c0.0552-0.0253,0.1128-0.0459,0.1719-0.0615     c6.7211-1.7461,14.0395-4.7148,14.2211-6.3525c0.0078-0.0664,0.0215-0.1319,0.042-0.1963     c0.1152-0.3564,1.0195-3.0459,2.6304-4.5059C2.9227,13.6143,3.8172,11.7617,4.1136,11.1484     c0.2149-0.4443,0.6509-0.7099,1.167-0.7099c0.3394,0,0.7139,0.1123,1.1787,0.3535c0.0659,0.0342,0.1274,0.0752,0.1841,0.123     c0.0376,0.0313,4.0225,3.2989,10.6108,3.6426c0.3193,0.0098,3.4678,0.2608,8.8243,5.8399     c0.0327,0.0341,0.5488,0.5527,1.5683,0.5527c0.7544,0,1.6001-0.2773,2.5147-0.8252c0.4902-0.3555,5.4795-3.8691,8.5615-3.8691     c0.4653,0,0.8857,0.0771,1.2505,0.2304c1.4892,0.626,4.9385,2.9756,5.5805,4.3321c0.1436,0.3027,0.1255,0.6572-0.0473,0.9433     c-0.1729,0.2871-0.4776,0.4688-0.8125,0.4834c-0.2261,0.0117-5.6514,0.375-6.6773,6.8887     c-0.0107,0.0869-1.6191,11.4639-14.2041,13.6894c-0.0576,0.0108-0.1157,0.0157-0.1743,0.0157     c-0.0249,0.0029-1.3364,0.125-2.3242,2.6777c-0.1079,0.25-2.3398,5.3271-7.5854,11.7969     C13.576,57.5322,12.5541,58.8809,11.2518,58.8809L11.2518,58.8809z M9.8426,54.8154c0.1211,0,0.2427,0.0215,0.3584,0.0664     c0.3183,0.1221,0.5522,0.3985,0.6211,0.7315c0.1797,0.874,0.3906,1.1719,0.4688,1.2568     c0.2022-0.0683,0.6113-0.4346,0.8452-0.7646c5.1143-6.3106,7.3066-11.2989,7.3281-11.3487     c1.3477-3.4834,3.4956-3.872,4.0596-3.9131c11.1001-1.998,12.5005-11.8935,12.5136-11.9931     c0.8697-5.5235,4.4327-7.5088,6.6812-8.2168c-1.0195-0.8467-2.5488-1.8955-3.5205-2.3037     c-0.1157-0.0489-0.2803-0.0742-0.4751-0.0742c-2.0737,0-6.0918,2.5546-7.4649,3.539c-1.2978,0.7822-2.4902,1.1553-3.6113,1.1553     c-1.9136,0-2.9263-1.0723-3.0356-1.1943c-4.7417-4.9375-7.436-5.1983-7.4624-5.2012c-5.0781-0.2647-8.7158-2.0811-10.5176-3.21     c2.0513,3.7344,8.5791,12.6358,14.8809,20.5889c0.1929,0.2432,0.2617,0.5615,0.1865,0.8623     c-0.0747,0.3018-0.2851,0.5508-0.5693,0.6748c-1.1113,0.4863-2.1763,2.791-2.5503,3.9082     c-0.6465,3.7295-11.9546,6.9727-15.5971,7.9238c-0.5698,0.2735-0.8213,0.4825-0.9268,0.5938     c0.2027,0.1972,0.7285,0.4824,1.1729,0.624c0.3257,0.1045,0.5757,0.3682,0.6631,0.6982     c0.0869,0.3311-0.0015,0.6836-0.2339,0.9346c-0.3506,0.3789-0.5147,0.6328-0.5913,0.7822     c0.167,0.0489,0.4599,0.0987,0.915,0.0987c0.3447,0,0.6113-0.0293,0.6323-0.0313c0.3467-0.0439,0.6924,0.1045,0.9063,0.3809     c0.2143,0.2773,0.269,0.6455,0.143,0.9726c-0.3164,0.8194-0.2627,1.1426-0.247,1.2032c0.0063-0.0157,0.0898,0.0039,0.2368,0.0039     l0,0c0.4468,0,0.9477-0.1787,0.9526-0.1807c0.3213-0.1191,0.6807-0.0654,0.9551,0.1426c0.2725,0.208,0.4194,0.542,0.3892,0.8838     c-0.081,0.9121,0.0928,1.1553,0.0942,1.1582c0.3433-0.0293,0.9565-0.3731,1.207-0.5576     C9.4247,54.8818,9.6327,54.8154,9.8426,54.8154L9.8426,54.8154z" fill="#43525B"/></g></g><circle cx="38.18" cy="20.1387" fill="#43525B" r="0.9761"/></g></svg>