<?xml version="1.0" encoding="UTF-8" standalone="no"?>
<!-- Created with Inkscape (http://www.inkscape.org/) -->

<svg
   xmlns:dc="http://purl.org/dc/elements/1.1/"
   xmlns:cc="http://creativecommons.org/ns#"
   xmlns:rdf="http://www.w3.org/1999/02/22-rdf-syntax-ns#"
   xmlns:svg="http://www.w3.org/2000/svg"
   xmlns="http://www.w3.org/2000/svg"
   xmlns:sodipodi="http://sodipodi.sourceforge.net/DTD/sodipodi-0.dtd"
   xmlns:inkscape="http://www.inkscape.org/namespaces/inkscape"
   width="210mm"
   height="297mm"
   viewBox="0 0 210 297"
   version="1.1"
   id="svg3698"
   inkscape:version="0.92.1 r15371"
   sodipodi:docname="owl.svg">
  <defs
     id="defs3692" />
  <sodipodi:namedview
     id="base"
     pagecolor="#ffffff"
     bordercolor="#666666"
     borderopacity="1.0"
     inkscape:pageopacity="0.0"
     inkscape:pageshadow="2"
     inkscape:zoom="0.1767767"
     inkscape:cx="-598.27824"
     inkscape:cy="328.48043"
     inkscape:document-units="mm"
     inkscape:current-layer="layer1"
     showgrid="false"
     inkscape:window-width="1680"
     inkscape:window-height="1028"
     inkscape:window-x="-8"
     inkscape:window-y="-8"
     inkscape:window-maximized="1" />
  <metadata
     id="metadata3695">
    <rdf:RDF>
      <cc:Work
         rdf:about="">
        <dc:format>image/svg+xml</dc:format>
        <dc:type
           rdf:resource="http://purl.org/dc/dcmitype/StillImage" />
        <dc:title></dc:title>
      </cc:Work>
    </rdf:RDF>
  </metadata>
  <g
     inkscape:label="Layer 1"
     inkscape:groupmode="layer"
     id="layer1">
    <g
       id="g5103"
       transform="matrix(1.3213676,0,0,1.3213676,-42.23113,-77.994007)">
      <path
         inkscape:connector-curvature="0"
         id="path3690"
         d="m 96.193676,282.79667 c -1.027667,-1.0955 -1.040634,-1.2105 -1.040634,-9.23205 v -8.12273 l 1.11708,-0.93669 c 1.033977,-0.86701 1.688407,-0.93848 8.797208,-0.96081 l 7.68013,-0.0241 -5.08755,-1.92182 C 80.135829,251.2013 63.829394,233.6608 59.914001,210.23917 c -0.964214,-5.76786 -0.682889,-16.40329 0.609676,-23.04912 0.604316,-3.10712 1.377674,-6.49172 1.718584,-7.52136 l 0.619819,-1.87206 -2.670936,-2.31006 C 56.796399,172.55043 52.594453,167.80632 49.654546,163.59043 35.770614,143.68053 33.740408,117.808 44.336482,95.818127 53.074817,77.683611 69.029239,64.825383 87.801851,60.787905 c 5.809653,-1.249508 17.198559,-1.131071 22.987119,0.239041 12.89207,3.051479 23.01451,9.081581 32.07437,19.107269 7.91191,8.755323 12.64889,17.815997 15.56578,29.773405 1.0917,4.47528 1.29736,6.26818 1.48032,12.90512 0.30037,10.89649 -1.13266,19.27221 -4.81887,28.16502 -0.55374,1.33592 -1.00683,2.58354 -1.00683,2.77252 0,0.18896 1.45285,2.04488 3.22854,4.12425 23.02565,26.9634 34.98553,62.55068 33.20195,98.79425 -0.48468,9.84921 -1.16498,14.80893 -2.22907,16.25099 -0.83253,1.12825 -0.97214,1.15756 -4.2822,0.89923 -1.88188,-0.14687 -5.78974,-0.78568 -8.68412,-1.41955 -4.97076,-1.08863 -6.24594,-1.16901 -22.99994,-1.44975 l -17.73741,-0.29721 v 5.02368 c 0,2.77112 -0.21476,5.52614 -0.47896,6.14426 -1.07283,2.51001 -4.75263,2.51001 -5.82546,0 -0.26344,-0.61631 -0.47896,-3.34813 -0.47896,-6.07069 v -4.95012 h -4.87557 -4.87556 v 5.44387 c 0,5.17732 -0.051,5.49818 -1.04063,6.55318 -1.31767,1.40464 -2.82191,1.41144 -4.34125,0.0196 -1.1636,-1.06594 -1.19261,-1.20877 -1.33103,-6.55319 l -0.1415,-5.46347 h -4.84005 -4.84006 v 5.61649 c 0,5.52929 -0.0173,5.63104 -1.11707,6.55318 -1.481865,1.24257 -2.929964,1.18308 -4.201714,-0.17262 z m 87.552814,-25.29433 c 0.72626,-12.2701 -0.34192,-25.88674 -2.94541,-37.5464 -4.82621,-21.61403 -14.05851,-40.46284 -27.93442,-57.03131 l -2.34334,-2.79807 -1.35076,2.12015 c -8.5381,13.4014 -23.52276,23.89502 -38.6443,27.06225 l -3.55476,0.74453 0.28805,1.84486 c 0.46308,2.96592 2.57955,10.48442 4.22815,15.02008 11.12429,30.60508 37.54712,53.53819 68.04503,59.05817 2.93365,0.53096 3.1887,0.5137 3.46917,-0.23502 0.16651,-0.44446 0.50066,-4.15212 0.74259,-8.23924 z m -32.63048,5.84782 c 0,-0.12003 -0.90622,-0.70864 -2.01382,-1.30787 -2.93883,-1.58996 -10.39937,-6.92535 -14.30872,-10.23286 -4.74403,-4.0137 -12.1107,-12.06722 -16.023,-17.51695 -8.22694,-11.45991 -14.22937,-24.56872 -17.42905,-38.0636 l -1.33945,-5.64929 -4.862244,-0.29742 c -8.226653,-0.50322 -15.617983,-2.59347 -22.836641,-6.45818 -2.099597,-1.12408 -3.905214,-1.89241 -4.012473,-1.70739 -0.358912,0.61907 -1.610784,6.14831 -2.221253,9.81082 -0.807357,4.84381 -0.790629,14.43022 0.03329,19.0394 2.153016,12.0452 7.872632,21.75954 17.802918,30.23697 13.337242,11.38591 35.599653,19.19367 62.334923,21.86178 2.09862,0.20943 4.05414,0.40827 4.34561,0.44188 0.29148,0.0336 0.52996,-0.0372 0.52996,-0.15729 z m -38.45865,-81.96138 c 8.99027,-2.47598 17.08881,-7.28211 23.80642,-14.12805 7.83612,-7.98583 13.53103,-18.78803 15.62101,-29.63027 1.04866,-5.44009 -0.24516,-12.4003 -3.3051,-17.78007 -2.99603,-5.26742 -8.68907,-9.96234 -14.41018,-11.88373 -2.37163,-0.79648 -3.9896,-0.99668 -8.05527,-0.99668 -6.24414,0 -9.84704,1.0948 -14.48481,4.40147 -3.90277,2.78261 -6.47196,5.90374 -8.7394,10.61687 -1.31937,2.74246 -2.1063,3.85983 -2.99514,4.25285 -2.113071,0.93436 -3.263716,0.10261 -5.063553,-3.65999 -3.896525,-8.1458 -9.986193,-13.29772 -17.950978,-15.18667 -8.973968,-2.12829 -19.506191,1.40893 -25.394297,8.52862 -3.57238,4.31959 -6.53041,12.28042 -6.553171,17.63624 -0.0084,2.05565 1.2708,7.59413 2.810162,12.16391 5.463684,16.21947 18.864572,29.76711 34.491124,34.86881 6.393166,2.08722 9.71054,2.52327 17.806403,2.34051 6.58623,-0.14867 7.98048,-0.32203 12.41678,-1.54382 z m -16.727078,-2.67271 c -0.972927,-0.93214 -2.502554,-2.90037 -3.399168,-4.37385 -5.412332,-8.89457 -4.439706,-20.06235 2.459687,-28.24261 3.117218,-3.69594 5.325469,-3.46489 8.584299,0.89818 7.17665,9.60838 6.76912,22.22697 -1.0007,30.98574 -2.736765,3.08509 -4.038751,3.22865 -6.644118,0.73254 z m 4.636328,-9.74877 c 1.04822,-2.11911 1.15783,-2.79004 1.15783,-7.08614 0,-4.39975 -0.0902,-4.91908 -1.23919,-7.12973 -0.681565,-1.31138 -1.444697,-2.31243 -1.695857,-2.22459 -1.641622,0.57425 -3.522411,7.71762 -3.028238,11.50147 0.327798,2.50995 2.659567,7.93066 3.245412,7.54469 0.221224,-0.14575 0.923232,-1.31831 1.560043,-2.6057 z m 19.97855,-16.70937 c -2.88698,-1.29958 -4.52085,-2.50517 -6.26508,-4.62284 -4.84585,-5.88341 -5.12568,-14.03548 -0.69415,-20.22234 3.02834,-4.22785 8.80952,-7.03487 13.32378,-6.46929 8.01263,1.00387 14.73885,9.61475 13.7968,17.6626 -0.60827,5.19645 -4.50434,10.87247 -9.04535,13.17781 -3.43882,1.74577 -7.87101,1.93479 -11.116,0.47406 z m 8.1436,-6.70824 c 3.91466,-1.39469 6.00505,-5.81533 5.03349,-10.64458 -1.20533,-5.99123 -7.53786,-8.66293 -12.88771,-5.43735 -4.04915,2.44136 -4.9206,10.06424 -1.6055,14.04398 1.83794,2.2064 6.29295,3.16617 9.45972,2.03795 z m -70.651654,-6.0192 c -1.693971,-1.80578 -1.265765,-4.34068 0.94531,-5.59603 1.259936,-0.71533 25.09706,-0.73685 26.564784,-0.024 2.070454,1.00563 2.550818,3.89635 0.933893,5.62001 l -1.040635,1.10933 H 72.259099 59.077729 Z m 42.792814,-26.84927 c 3.9597,-5.26269 10.6397,-9.95974 16.7931,-11.80814 11.34639,-3.408277 23.00051,0.001 31.92466,9.34104 l 2.51415,2.63113 -0.30243,-1.5818 c -1.05951,-5.54148 -4.35956,-13.553316 -7.93046,-19.253458 -2.78961,-4.453003 -9.29251,-11.438576 -13.48719,-14.488261 -18.31096,-13.312749 -42.169738,-13.877855 -60.901273,-1.442468 -4.538205,3.01279 -11.448438,9.953165 -14.686446,14.750477 -3.844043,5.695196 -7.502279,14.29379 -8.977466,21.10133 -0.278681,1.28603 -0.214578,1.25229 1.449529,-0.76301 3.617411,-4.38085 9.619662,-8.33611 15.7241,-10.3616 4.241076,-1.407208 12.347839,-1.498704 16.516255,-0.1864 6.53744,2.05812 11.440373,5.2383 16.048221,10.4093 1.666534,1.87023 3.030064,3.60318 3.030064,3.851 0,0.75724 0.220251,0.54528 2.285186,-2.19914 z"
         style="fill:#2c2b47;fill-opacity:1;stroke-width:0.43772933" />
      <path
         transform="scale(0.26458333)"
         inkscape:connector-curvature="0"
         id="path5065"
         d="m 682.75204,1005.6566 c -32.81029,-5.6313 -70.60767,-18.90707 -100.32583,-35.23796 -14.07241,-7.73315 -36.30339,-22.66149 -49.68182,-33.36185 -14.38716,-11.50719 -42.16258,-39.26259 -53.46367,-53.42516 -21.47409,-26.91141 -45.05258,-67.97032 -55.68865,-96.97465 -7.14886,-19.49479 -16.46843,-52.16575 -18.05814,-63.30516 l -0.67306,-4.7163 5.85799,-1.16044 c 3.22189,-0.63824 10.89531,-2.47904 17.05203,-4.09065 53.22078,-13.93137 104.06068,-51.13247 136.27436,-99.71607 2.67078,-4.02798 4.95587,-7.32361 5.07796,-7.32361 0.1221,0 4.05188,4.65933 8.73285,10.35407 50.50744,61.44586 82.66453,125.14735 101.83823,201.7361 6.47005,25.8444 10.2919,48.88587 13.32738,80.349 2.64656,27.43198 1.06923,99.47399 -2.31646,105.80018 -0.92538,1.7291 -2.71861,1.9709 -7.95317,1.0725 z"
         style="fill:#e49165;fill-opacity:1;stroke-width:1.01015258" />
      <path
         transform="scale(0.26458333)"
         inkscape:connector-curvature="0"
         id="path5069"
         d="M 345.73237,690.06621 C 326.38548,688.03399 297.77701,678.26864 277.56476,666.79754 226.64991,637.9017 190.15887,588.53495 175.22144,528.3428 c -5.75336,-23.18389 -5.27325,-33.78183 2.5328,-55.90853 6.02368,-17.07448 12.37926,-27.95826 22.59204,-38.68841 7.9651,-8.36858 16.31685,-14.27089 27.98711,-19.77892 15.39567,-7.26631 23.86836,-9.09408 42.27641,-9.12009 13.34844,-0.0189 16.83344,0.31811 23.63255,2.28512 29.04822,8.40372 49.0421,26.03534 65.23576,57.52819 4.46909,8.69134 9.74155,14.40537 13.29213,14.40537 6.37202,0 10.61926,-4.41464 17.57181,-18.26438 9.37533,-18.676 20.07253,-31.05139 35.99739,-41.64469 16.64478,-11.07219 27.50841,-14.00598 51.85671,-14.00419 19.77253,0.001 26.54122,1.38301 40.4501,8.25631 22.43576,11.08698 40.48911,30.37861 49.31411,52.69654 5.28548,13.3667 7.12446,23.35395 7.12949,38.7193 0.004,12.82625 -0.30527,15.29501 -3.32595,26.53235 -20.91531,77.80777 -77.41477,136.03958 -150.20147,154.80684 -17.64771,4.55027 -52.55915,6.34698 -75.83006,3.9026 z m 34.58197,-9.8783 c 7.38383,-4.50257 19.19182,-21.22279 24.59705,-34.82968 8.89701,-22.39694 7.9612,-49.46048 -2.49264,-72.08644 -7.41651,-16.05208 -18.87783,-29.62243 -26.17484,-30.99134 -7.31132,-1.37162 -14.84527,4.53914 -24.36113,19.11252 -5.99118,9.17537 -10.42744,19.04907 -13.17444,29.32206 -1.45904,5.45636 -1.87009,10.45764 -1.82425,22.19572 0.0524,13.43552 0.36513,16.15811 2.75965,24.02983 5.25322,17.26937 14.73576,32.30293 26.41783,41.88262 4.69703,3.85171 9.43096,4.30499 14.25277,1.36471 z M 490.0319,577.06524 c 22.507,-6.95171 42.20741,-34.07054 42.20741,-58.10111 0,-10.23941 -1.51679,-16.76167 -6.1073,-26.26154 -7.21889,-14.9392 -19.27477,-26.70125 -33.28865,-32.47733 -9.92699,-4.0916 -23.23146,-4.50752 -33.20765,-1.03814 -9.80767,3.41077 -17.36689,8.06377 -24.25276,14.92855 -32.24735,32.14855 -19.65851,87.4844 23.43144,102.99593 7.40464,2.66552 22.51009,2.64308 31.21751,-0.0464 z M 326.49666,528.58867 c 5.67869,-6.74873 5.7238,-14.9111 0.11341,-20.52149 -3.67153,-3.67154 -9.61785,-4.13581 -52.96981,-4.13581 -44.25119,0 -49.33319,0.42869 -54.03646,4.55821 -5.77787,5.07304 -5.9483,12.65352 -0.43487,19.34227 l 3.10064,3.76162 h 50.84936 50.84936 z"
         style="fill:#ffecd1;fill-opacity:1;stroke-width:1.01015258" />
      <path
         transform="scale(0.26458333)"
         inkscape:connector-curvature="0"
         id="path5071"
         d="M 550.42206,993.64479 C 459.42281,982.96048 390.47257,961.44846 340.31033,928.09127 291.71705,895.77743 262.67369,854.83472 251.37081,802.71235 c -2.71139,-12.50339 -3.93399,-53.84669 -2.06179,-69.72132 2.09001,-17.7215 7.70979,-42.69088 9.78776,-43.48828 0.77969,-0.29919 8.07854,2.72567 16.21969,6.72192 20.49041,10.05813 32.30749,14.39797 51.87483,19.0511 6.68979,1.59083 26.12018,3.96206 39.04039,4.76437 l 11.27415,0.7001 4.68518,19.20731 c 18.86048,77.3203 53.78229,139.632 109.65292,195.65597 18.64935,18.70055 48.54166,41.90164 69.94233,54.28619 4.30578,2.49174 7.82869,4.71794 7.82869,4.94711 0,0.68262 -6.84966,0.2572 -19.1929,-1.19203 z"
         style="fill:#ffecd1;fill-opacity:1;stroke-width:1.01015258" />
      <path
         transform="scale(0.26458333)"
         inkscape:connector-curvature="0"
         id="path5089"
         d="m 372.62201,434.63825 c -0.45175,-1.48503 -1.4264,-3.02579 -3.77258,-5.96384 -19.9477,-24.97988 -39.92863,-39.30274 -66.90447,-47.95889 -13.2693,-4.25792 -32.80337,-5.28419 -51.08846,-2.68405 -9.55736,1.35906 -18.0228,4.09546 -28.99138,9.37128 -17.89939,8.60951 -32.4488,19.65189 -44.36851,33.67381 -2.33211,2.74342 -4.36063,4.98802 -4.50781,4.98802 -0.50127,0 -0.26832,-1.29549 1.46774,-8.16217 4.31399,-17.06329 10.51034,-33.50899 19.17083,-50.88124 8.95713,-17.96731 15.75277,-28.10956 28.42707,-42.42641 9.12631,-10.30905 23.35194,-23.8562 32.90106,-31.33185 15.20478,-11.90327 37.09473,-23.14906 58.30317,-29.9528 29.75386,-9.54514 61.49193,-11.86086 92.45421,-6.74577 29.66051,4.90002 58.66761,16.78367 83.4386,34.18317 12.8944,9.05721 27.52022,23.13879 41.76534,40.21121 9.06235,10.86104 14.25523,18.80803 21.43116,32.79747 10.02703,19.54764 17.2696,38.85091 20.72499,55.23733 1.6216,7.69002 2.54802,7.98953 -7.97574,-2.57849 -9.86181,-9.90328 -15.24862,-14.50094 -23.22684,-19.82425 -16.12663,-10.7602 -32.33958,-16.98089 -50.95114,-19.54927 -5.57263,-0.76902 -20.32785,-0.874 -25.8094,-0.18363 -19.16197,2.41333 -35.60586,8.53031 -51.79557,19.26746 -13.25472,8.79065 -23.66928,18.40927 -32.79953,30.2928 -4.8333,6.29082 -6.96159,8.83883 -7.38282,8.83883 -0.17694,0 -0.4064,-0.27842 -0.50992,-0.61872 z"
         style="fill:#e59265;fill-opacity:1;stroke-width:0.35355338" />
    </g>
    <path
       style="fill:#e59265;fill-opacity:1;stroke-width:0.5"
       d="m 463.24588,434.03994 c -14.06039,-2.04194 -22.6784,-6.22554 -28.33782,-13.75656 -6.29215,-8.37299 -9.30785,-19.422 -8.7729,-32.1424 0.69365,-16.49394 7.50561,-29.84417 18.65317,-36.55688 6.77321,-4.07861 14.80483,-6.24747 23.11524,-6.24202 11.59921,0.008 21.45045,4.20429 29.23175,12.45288 8.39776,8.90206 12.23332,20.28813 11.72076,34.79362 -0.29393,8.31815 -1.36491,12.92382 -4.53444,19.5 -5.07829,10.5365 -13.9855,18.04147 -24.64929,20.76881 -3.74166,0.95695 -13.261,1.64226 -16.42647,1.18255 z"
       id="path5105"
       inkscape:connector-curvature="0"
       transform="scale(0.26458333)" />
    <path
       style="fill:#b2d235;fill-opacity:1;stroke-width:0.5"
       d="m 457.54986,432.81812 c -9.81103,-2.13493 -17.36088,-6.23932 -21.83824,-11.87211 -2.93122,-3.68766 -6.4048,-10.78169 -7.76456,-15.85743 -1.35631,-5.06286 -1.86083,-17.23519 -0.96756,-23.34425 1.64548,-11.25353 6.7952,-21.1757 14.17449,-27.31054 3.01217,-2.50419 10.27358,-6.12539 14.59189,-7.27684 8.28706,-2.20969 18.06299,-1.96439 25.6306,0.64312 5.49162,1.8922 8.95094,4.03261 13.70326,8.47873 6.81022,6.37143 10.92268,13.9335 12.68316,23.32209 1.07616,5.73906 0.80682,19.38086 -0.47299,23.95694 -3.41563,12.21293 -10.59018,21.39783 -20.54403,26.30061 -5.66566,2.79063 -8.89968,3.49466 -17.25,3.75528 -6.03175,0.18826 -8.0391,0.0546 -11.94602,-0.7956 z"
       id="path5664"
       inkscape:connector-curvature="0"
       transform="scale(0.26458333)" />
    <path
       style="fill:#fec465;fill-opacity:1;stroke-width:0.17677669"
       d="m 333.80534,561.79258 c -3.17438,-2.21101 -10.83635,-19.63523 -13.92863,-31.67534 -1.24319,-4.84046 -1.62925,-6.12914 -1.63334,-12.72257 -0.004,-6.13819 0.32747,-7.46743 1.14413,-13.36874 1.7645,-12.75108 6.06865,-26.58586 10.27469,-33.02575 0.94897,-1.45299 2.69177,-3.28374 3.54696,-3.72598 0.73429,-0.37972 1.11114,-0.26136 2.11791,0.66517 1.90801,1.75595 4.66531,6.00117 7.47742,11.51242 3.50321,6.86569 4.48686,10.0737 5.15004,16.79597 0.32621,3.30657 0.31981,30.98175 -0.008,34.55522 -0.65488,7.13916 -1.59352,10.34427 -5.17238,17.66179 -3.79782,7.7652 -7.36679,13.6509 -8.26075,13.62304 -0.16363,-0.005 -0.48226,-0.13795 -0.70806,-0.29523 z"
       id="path5683"
       inkscape:connector-curvature="0"
       transform="scale(0.26458333)"
       sodipodi:nodetypes="cccccscsscsccc" />
  </g>
</svg>
