<?xml version="1.0" ?><!DOCTYPE svg  PUBLIC '-//W3C//DTD SVG 1.1//EN'  'http://www.w3.org/Graphics/SVG/1.1/DTD/svg11.dtd'><svg enable-background="new 0 0 64 64" height="64px" id="Layer_1" version="1.1" viewBox="0 0 64 64" width="64px" xml:space="preserve" xmlns="http://www.w3.org/2000/svg" xmlns:xlink="http://www.w3.org/1999/xlink"><path d="M62.981,20.549l-3.557-3.571c-1.431-1.437-3.636-0.265-3.636-0.265l-0.006-0.004  c-2.298,0.957-5.044,0.506-6.91-1.367c-1.867-1.876-2.308-4.628-1.337-6.923c0.009-0.022,0.009-0.036,0.019-0.059  c0.83-2.196-0.35-3.637-0.698-4.001l-3.574-3.588c-1.561-1.567-3.256-0.142-3.671,0.257L1.035,39.45  c-2.143,2.132-0.376,3.835-0.376,3.835l4.139,4.155c0,0,1.021,1.104,3.003,0.304c0.063-0.025,0.111-0.036,0.166-0.053  c2.356-1.135,5.261-0.744,7.21,1.212c1.856,1.865,2.307,4.594,1.359,6.882h0.003c0,0-1.204,2.235,0.244,3.688l3.625,3.64  c0.258,0.254,2.163,1.965,4.541-0.401l38.329-38.173C63.856,23.866,64.758,22.333,62.981,20.549z M23.456,45.199l-0.329,0.326  c-0.369,0.368-0.747,0.132-0.939-0.039l-4.249-4.267l-1.07,1.067c-0.542,0.541-1.005-0.017-1.005-0.017l-0.142-0.143  c0,0-0.385-0.346,0.201-0.928l3.254-3.241c0,0,0.512-0.566,1-0.078l0.111,0.111c0.365,0.388,0.137,0.738-0.02,0.908l-1.104,1.102  l4.085,4.103C23.756,44.611,23.613,44.993,23.456,45.199z M27.073,41.596l-0.266,0.265c-0.414,0.413-0.956-0.063-1.088-0.189  l-4.487-4.507c0,0-0.619-0.637-0.111-1.141l0.189-0.188c0,0,0.538-0.501,1.278,0.243l4.405,4.422  C27.48,40.991,27.235,41.409,27.073,41.596z M32.547,35.873c-0.271,0.535-0.62,1.043-1.097,1.52  c-0.84,0.837-1.736,1.221-2.688,1.154c-0.953-0.064-1.904-0.574-2.854-1.527c-0.597-0.601-1.012-1.233-1.243-1.905  c-0.231-0.669-0.262-1.326-0.092-1.976s0.529-1.246,1.079-1.795c0.44-0.438,0.992-0.772,1.603-1.045  c0.203-0.033,0.577-0.036,0.755,0.379l0.069,0.162c0.304,0.71-0.546,0.947-0.546,0.947l0.001,0.003  c-0.035,0.017-0.074,0.031-0.11,0.047c-0.294,0.139-0.546,0.315-0.757,0.527c-0.461,0.457-0.645,0.987-0.553,1.585  c0.092,0.597,0.446,1.204,1.062,1.823c1.282,1.286,2.408,1.45,3.374,0.487c0.281-0.278,0.553-0.686,0.82-1.146  c0.003,0,0.02,0.006,0.02,0.006s0.352-0.607,0.683-0.276l0.205,0.207C32.625,35.371,32.604,35.681,32.547,35.873z M38.388,30.326  l-0.585,0.583c-0.364,0.362-0.936,0.226-0.936,0.226l-3.362-0.792l-0.146,0.886l1.388,1.394c0.498,0.499,0.387,0.884,0.23,1.104  l-0.303,0.298c-0.426,0.427-0.907,0.054-1.088-0.119l-4.517-4.535c0,0-0.636-0.632-0.177-1.087l0.282-0.281  c0.177-0.148,0.598-0.374,1.151,0.181l1.968,1.976L32.097,29l-0.34-3.06c0,0-0.053-0.457,0.294-0.803l0.458-0.457  c0,0,0.555-0.56,0.647,0.245c0,0,0.002,0,0.002,0.003l0.438,3.76l4.53,1.037C38.368,29.791,38.753,29.961,38.388,30.326z   M42.528,26.33l-2.213,2.205c-0.576,0.574-1.113,0.137-1.266-0.011l-4.468-4.484c0,0-0.555-0.744,0.029-1.327l2.164-2.154  c0,0,0.456-0.51,0.833-0.131l0.173,0.172c0,0,0.531,0.427-0.007,0.962l-1.179,1.173c-0.451,0.451-0.003,0.875-0.003,0.875  l0.348,0.346c0,0,0.471,0.493,1.007-0.042l0.948-0.945c0,0,0.471-0.485,0.833-0.123l0.141,0.142  c0.396,0.432,0.219,0.767,0.084,0.925l-0.912,0.909c-0.571,0.568-0.249,0.989-0.147,1.095l0.624,0.627  c0.188,0.147,0.495,0.276,0.822-0.05l1.164-1.16c0,0,0.478-0.516,0.791-0.203l0.198,0.198C42.913,25.764,42.687,26.148,42.528,26.33  z M45.704,23.041l-0.192,0.189c-0.381,0.379-0.85-0.017-1.002-0.165l-3.625-3.639c-0.47-0.471-0.875-0.18-1.016-0.049l-0.657,0.656  c-0.458,0.457-0.886-0.039-0.886-0.039l-0.174-0.176c0,0-0.382-0.38,0.076-0.837l3.369-3.354c0.203-0.183,0.612-0.456,0.963-0.104  l0.109,0.111c0.389,0.41,0.165,0.772,0.024,0.931l-0.678,0.674c-0.091,0.095-0.389,0.482,0.156,1.031l3.564,3.579  C45.932,22.071,46.213,22.542,45.704,23.041z" fill="#241F20"/></svg>