<?xml version="1.0" ?><svg id="Layer_1_1_" style="enable-background:new 0 0 64 64;" version="1.1" viewBox="0 0 64 64" xml:space="preserve" xmlns="http://www.w3.org/2000/svg" xmlns:xlink="http://www.w3.org/1999/xlink"><g><path d="M20.024,27.396l8.333,7.354l1.324-1.5l-8.334-7.354C20.517,25.164,20.04,24.108,20.04,23h-2   C18.04,24.682,18.764,26.284,20.024,27.396z"/><path d="M17.378,30.396l14.663,12.938l14.634-12.956c2.101-1.861,3.312-4.537,3.324-7.338L50,22.909   c0.012-2.644-1.008-5.131-2.873-7.004c-0.353-0.354-0.733-0.668-1.127-0.96v-3.721l-2.893-0.739   c-0.02-0.049-0.04-0.098-0.061-0.146l1.523-2.567L39.229,2.43l-2.567,1.523c-0.049-0.021-0.098-0.041-0.146-0.061L35.776,1h-7.553   l-0.739,2.893c-0.049,0.02-0.098,0.04-0.146,0.061L24.771,2.43L19.43,7.771l1.523,2.567c-0.021,0.049-0.041,0.098-0.061,0.146   L18,11.224v3.757c-2.399,1.801-3.96,4.66-3.96,7.883V23C14.04,25.829,15.257,28.524,17.378,30.396z M20,12.776l2.407-0.614   l0.179-0.504c0.114-0.326,0.247-0.644,0.395-0.953l0.23-0.481l-1.268-2.137l3.144-3.144l2.137,1.268l0.481-0.23   c0.31-0.147,0.627-0.28,0.953-0.395l0.504-0.179L29.776,3h4.447l0.614,2.407l0.504,0.179c0.326,0.114,0.644,0.247,0.953,0.395   l0.481,0.23l2.137-1.268l3.144,3.144l-1.268,2.137l0.23,0.481c0.147,0.31,0.28,0.627,0.395,0.953l0.179,0.504L44,12.776v1.01   C42.794,13.273,41.487,13,40.136,13c-0.131,0-0.261,0.011-0.391,0.017C38.853,9.529,35.681,7,32,7   c-3.678,0-6.852,2.529-7.744,6.015C24.138,13.011,24.022,13,23.904,13c-1.387,0-2.706,0.291-3.904,0.809V12.776z M30.013,15.115   C30.01,15.076,30,15.039,30,15c0-1.103,0.897-2,2-2s2,0.897,2,2c0,0.052-0.014,0.103-0.018,0.155l-1.967,1.565l-1.914-1.54   C30.072,15.157,30.041,15.137,30.013,15.115z M35.854,13.988C35.403,12.274,33.854,11,32,11c-1.846,0-3.388,1.263-3.847,2.966   c-0.606-0.288-1.239-0.515-1.892-0.675C27.005,10.792,29.32,9,32,9c2.685,0,5.001,1.796,5.743,4.299   C37.091,13.463,36.46,13.697,35.854,13.988z M16.04,22.864c0-4.336,3.528-7.864,7.876-7.864c1.788,0,3.539,0.617,4.931,1.738   l3.16,2.542l3.234-2.571C36.626,15.607,38.364,15,40.136,15c2.107,0,4.087,0.822,5.574,2.316c1.486,1.493,2.3,3.477,2.29,5.58   l-0.001,0.133c-0.01,2.235-0.976,4.368-2.65,5.852l-13.31,11.784L18.701,28.896C17.01,27.404,16.04,25.255,16.04,23V22.864z"/><path d="M59.879,34c-0.822,0-1.626,0.333-2.207,0.914L51.586,41h-3.384l1.274-1.911C49.818,38.574,50,37.976,50,37.357v-0.236   C50,35.4,48.6,34,46.879,34c-0.822,0-1.626,0.333-2.207,0.914l-9.621,9.621C33.729,45.857,33,47.615,33,49.485V55h-2v-5.515   c0-1.87-0.729-3.628-2.051-4.95l-9.621-9.621C18.747,34.333,17.943,34,17.121,34C15.4,34,14,35.4,14,37.121v0.236   c0,0.618,0.182,1.217,0.524,1.731L15.798,41h-3.384l-6.086-6.086C5.747,34.333,4.943,34,4.121,34C2.4,34,1,35.4,1,37.121v0.236   c0,0.618,0.182,1.217,0.524,1.731l5.862,8.794C8.688,49.835,10.866,51,13.211,51H19c0.552,0,1,0.448,1,1v3h-2v8h13h2h13v-8h-2v-3   c0-0.552,0.448-1,1-1h5.789c2.345,0,4.522-1.165,5.824-3.117l5.862-8.794C62.818,38.574,63,37.976,63,37.357v-0.236   C63,35.4,61.6,34,59.879,34z M19,49h-5.789c-1.675,0-3.23-0.832-4.16-2.227l-5.862-8.794C3.065,37.795,3,37.579,3,37.357v-0.236   C3,36.503,3.503,36,4.121,36c0.295,0,0.584,0.119,0.793,0.328L11.586,43h5.546l1.036,1.555l1.664-1.109l-3.644-5.466   C16.065,37.795,16,37.579,16,37.357v-0.236C16,36.503,16.503,36,17.121,36c0.295,0,0.584,0.119,0.793,0.328l9.621,9.621   c0.944,0.944,1.465,2.2,1.465,3.536V55h-7v-3C22,50.346,20.654,49,19,49z M31,61H20v-4h11V61z M44,61H33v-4h11V61z M61,37.357   c0,0.222-0.065,0.438-0.188,0.622l-5.862,8.794C54.02,48.168,52.464,49,50.789,49H45c-1.654,0-3,1.346-3,3v3h-7v-5.515   c0-1.336,0.521-2.592,1.465-3.536l9.621-9.621C46.295,36.119,46.584,36,46.879,36C47.497,36,48,36.503,48,37.121v0.236   c0,0.222-0.065,0.438-0.188,0.622l-3.644,5.466l1.664,1.109L46.868,43h5.546l6.672-6.672C59.295,36.119,59.584,36,59.879,36   C60.497,36,61,36.503,61,37.121V37.357z"/></g></svg>