<svg width="121" height="91" viewBox="0 0 121 91" fill="none" xmlns="http://www.w3.org/2000/svg">
<mask id="mask0" mask-type="alpha" maskUnits="userSpaceOnUse" x="0" y="0" width="121" height="91">
<path d="M37.3375 7.07502C35.3532 10.962 33.4249 14.6811 33.0336 15.3523L32.335 16.5547L33.5367 16.4708L34.7105 16.3869L38.8466 8.30542L42.9828 0.223932L47.0631 8.36135L51.1434 16.5267H52.2613H53.3791L49.2709 8.33338L45.1347 0.168004L43.0387 0.0841138L40.9147 0.000222532L37.3375 7.07502Z" fill="white"/>
<path d="M73.976 5.11819C72.5227 7.94251 70.6223 11.6617 69.756 13.3675L68.1909 16.5273H69.225H70.287L74.479 8.38993L78.6431 0.252514L82.7234 8.38993L86.7758 16.5273H87.8098C88.3967 16.5273 88.8718 16.4714 88.8718 16.3875C88.8718 16.3036 87.0552 12.5845 84.8195 8.13826L80.7671 0.0288053H78.699H76.6309L73.976 5.11819Z" fill="white"/>
<path d="M53.1834 17.5334C53.0996 17.7571 53.1555 18.0927 53.2952 18.2325C53.435 18.3723 56.5371 18.4562 60.9527 18.4282C68.1072 18.3443 68.3308 18.3164 68.3308 17.785C68.3308 17.2537 68.1072 17.2257 60.8409 17.1418C54.2454 17.0859 53.3511 17.1418 53.1834 17.5334Z" fill="white"/>
<path d="M28.4224 25.6706C25.8792 29.194 24.6216 32.9971 24.398 37.9467C24.1465 43.3157 25.3202 47.678 28.0032 51.6768L29.2049 53.4385H30.6581H32.1393L31.1612 52.0962C28.6459 48.5728 27.3604 44.2944 27.3324 39.3169C27.3045 33.8919 28.2826 30.2567 30.7699 26.4257L32.1393 24.3563H30.7699C29.4564 24.3563 29.3446 24.4123 28.4224 25.6706Z" fill="white"/>
<path d="M88.4806 24.6923C88.5923 24.888 88.9836 25.4473 89.3469 25.9227C90.4648 27.4327 92.1696 31.4315 92.6167 33.6406C93.2595 36.7166 93.2036 41.806 92.5049 44.6862C91.8622 47.3428 90.7722 49.8875 89.3469 51.9847L88.3408 53.4668L89.7941 53.3829L91.2473 53.299L92.5608 51.3416C95.132 47.5106 96.3337 42.7567 96.0542 37.5555C95.8027 32.9415 94.4612 29.0266 92.0298 25.671C91.1076 24.4126 90.9958 24.3567 89.6823 24.3567C88.6203 24.3567 88.3408 24.4406 88.4806 24.6923Z" fill="white"/>
<path d="M39.2657 34.1442C37.0299 38.5904 35.2134 42.3095 35.2134 42.3934C35.2134 42.5053 35.8562 42.5333 36.6387 42.4773L38.0919 42.3934L41.222 35.7661C42.9268 32.1028 44.408 29.0548 44.4918 28.9709C44.5477 28.887 46.0569 31.8512 47.7896 35.5703C49.5502 39.2895 51.1153 42.3655 51.3109 42.4494C51.4786 42.5053 52.1493 42.5333 52.7362 42.4773L53.8541 42.3934L49.8577 34.2001L45.8612 26.0347H44.6036H43.318L39.2657 34.1442Z" fill="white"/>
<path d="M70.5946 34.2001L66.5981 42.3934L67.716 42.4773C68.3029 42.5333 68.9737 42.5053 69.1413 42.4494C69.337 42.3655 70.902 39.2895 72.6627 35.5703C74.3954 31.8512 75.9045 28.887 75.9884 28.9709C76.0722 29.0548 77.5255 32.1028 79.2582 35.7661L82.3603 42.3934L83.8136 42.4773C84.5961 42.5333 85.2389 42.5053 85.2389 42.3934C85.2389 42.3095 83.4223 38.5904 81.1865 34.1442L77.1342 26.0347H75.8486H74.591L70.5946 34.2001Z" fill="white"/>
<path d="M0 36.1012V37.2197H10.2007H20.4014V36.1012V34.9826H10.2007H0V36.1012Z" fill="white"/>
<path d="M100.051 36.1012V37.2197H110.251H120.452V36.1012V34.9826H110.251H100.051V36.1012Z" fill="white"/>
<path d="M0 43.0924V44.2109L10.1448 44.155L20.2617 44.0711L20.3455 43.0085L20.4293 41.9738H10.2286H0V43.0924Z" fill="white"/>
<path d="M100.107 43.0085L100.191 44.0711L110.335 44.155L120.452 44.2109V43.0924V41.9738H110.224H100.023L100.107 43.0085Z" fill="white"/>
<path d="M58.8291 45.7493C57.3759 47.1755 58.4099 49.5244 60.5059 49.5244C61.7915 49.5244 62.8814 48.5177 62.8814 47.2873C62.8814 46.0569 61.7915 45.0502 60.5059 45.0502C59.8073 45.0502 59.2763 45.2739 58.8291 45.7493Z" fill="white"/>
<path d="M28.9256 60.4862C28.8418 60.6819 28.4225 62.6394 27.9754 64.8205L27.1929 68.8193H28.2549H29.2889L30.1553 65.1002C31.329 59.9269 31.357 60.3184 30.0994 60.2065C29.4286 60.1506 29.0094 60.2345 28.9256 60.4862Z" fill="white"/>
<path d="M33.8162 60.2618C33.8162 60.3177 33.5088 61.8557 33.1455 63.6733C31.9996 69.4617 31.9996 68.8186 33.2014 68.8186H34.2634L35.1577 64.8198C35.6607 62.6387 36.052 60.6813 36.052 60.4855C36.052 60.2898 35.6328 60.15 34.9341 60.15C34.3193 60.15 33.8162 60.2059 33.8162 60.2618Z" fill="white"/>
<path d="M82.8633 60.4861C82.6956 60.9615 81.3262 68.1762 81.3262 68.5397C81.3262 68.7075 81.7454 68.8193 82.2764 68.8193C82.9471 68.8193 83.2825 68.6795 83.3943 68.316C83.6458 67.4491 85.2388 60.6539 85.2388 60.4022C85.2388 60.0107 83.003 60.0946 82.8633 60.4861Z" fill="white"/>
<path d="M87.8938 60.4303C87.81 60.5701 87.3629 62.5276 86.9436 64.7646L86.1611 68.8193H87.2231H88.2572L89.0117 65.5197C89.4309 63.73 89.8501 61.8565 89.9899 61.3531C90.1017 60.8777 90.1296 60.4024 90.0458 60.3185C89.7942 60.0388 88.0895 60.1227 87.8938 60.4303Z" fill="white"/>
<path d="M21.2399 61.7445C20.0941 63.1147 18.3055 66.8339 17.7466 68.9591C17.0758 71.5877 16.7684 75.3069 17.0479 77.7677C17.523 81.9622 18.4732 84.7026 20.5972 87.8905L21.8548 89.792H23.2242C23.9788 89.792 24.5936 89.7081 24.5936 89.6242C24.5936 89.5403 24.2862 89.0649 23.9229 88.5896C22.805 87.1075 21.2399 83.6959 20.6251 81.4309C19.7867 78.4108 19.7867 72.147 20.6251 69.071C21.2399 66.8059 22.4696 64.1214 23.7831 62.1919C24.2303 61.5488 24.5936 60.9615 24.5936 60.8776C24.5936 60.7938 24.0347 60.7099 23.3639 60.7099C22.274 60.7099 22.0225 60.8497 21.2399 61.7445Z" fill="white"/>
<path d="M39.6848 62.3597C41.138 64.4849 42.0603 66.5263 42.7869 69.2667C43.6253 72.3986 43.6253 78.1032 42.7869 81.2631C42.0603 83.9196 40.8586 86.5762 39.545 88.4497L38.5669 89.792H39.9363C41.1939 89.792 41.3896 89.7081 42.2 88.7573C43.3179 87.3871 45.1065 83.7239 45.7493 81.4029C46.448 78.8303 46.448 71.6716 45.7493 69.0989C45.0786 66.75 43.6253 63.7299 42.3398 62.0242C41.3896 60.7658 41.2778 60.7099 39.9363 60.7099H38.5669L39.6848 62.3597Z" fill="white"/>
<path d="M75.6808 61.1852C75.4293 61.4649 74.8145 62.3877 74.2835 63.2266C69.7281 70.4692 69.8958 80.9555 74.6747 88.0582L75.8764 89.792H77.3297H78.8109L77.8327 88.4497C76.4913 86.5762 75.2896 83.9196 74.5909 81.2631C74.1158 79.5014 74.004 78.2151 74.004 75.2509C74.004 69.826 75.038 66.2467 77.693 62.3597L78.8109 60.7099H77.4694C76.5192 60.7099 75.9603 60.8497 75.6808 61.1852Z" fill="white"/>
<path d="M92.7847 60.8776C92.7847 60.9615 93.148 61.5488 93.5951 62.1919C94.8807 64.0935 96.0824 66.6941 96.7532 69.015C97.6475 72.147 97.6475 78.3549 96.7532 81.4588C95.9986 84.1713 95.1043 86.1847 93.7908 88.0862C93.2318 88.8972 92.7847 89.6242 92.7847 89.6801C92.7847 89.7361 93.3995 89.792 94.1261 89.792C95.4117 89.792 95.5235 89.7361 96.3898 88.5336C97.7313 86.688 99.3522 82.9689 99.9112 80.564C100.61 77.5439 100.554 72.4546 99.7994 69.5184C99.1287 66.9457 97.3959 63.2825 96.1383 61.7445C95.3558 60.8497 95.1043 60.7099 94.0143 60.7099C93.3436 60.7099 92.7847 60.7938 92.7847 60.8776Z" fill="white"/>
<path d="M48.9072 89.0926V90.0713H58.6887H68.4702V89.0926V88.1138H58.6887H48.9072V89.0926Z" fill="white"/>
</mask>
<g mask="url(#mask0)">
<rect y="0.0283203" width="121.637" height="90.0429" fill="url(#paint0_linear)"/>
</g>
<defs>
<linearGradient id="paint0_linear" x1="0" y1="0.0283203" x2="127.053" y2="11.644" gradientUnits="userSpaceOnUse">
<stop stop-color="#00C9E4"/>
<stop offset="1" stop-color="#2035F0"/>
</linearGradient>
</defs>
</svg>
