<svg width="76" height="76" viewBox="0 0 76 76" fill="none" xmlns="http://www.w3.org/2000/svg">
<path d="M67.347 0H8.0817C3.61997 0 6.86646e-05 3.63532 6.86646e-05 8.11607V67.6339C6.86646e-05 72.1147 3.61997 75.75 8.0817 75.75H67.347C71.8087 75.75 75.4286 72.1147 75.4286 67.6339V8.11607C75.4286 3.63532 71.8087 0 67.347 0Z" fill="url(#paint0_linear)"/>
<g clip-path="url(#clip0)">
<path d="M36.976 24.2487C29.7358 24.2487 23.8958 30.1602 23.8958 37.4891C23.8958 44.818 29.7358 50.7295 36.976 50.7295C44.2162 50.7295 50.0561 44.818 50.0561 37.4891C50.0561 30.1602 44.2162 24.2487 36.976 24.2487ZM36.976 46.0971C32.2972 46.0971 28.4722 42.2368 28.4722 37.4891C28.4722 32.7415 32.2858 28.8811 36.976 28.8811C41.6662 28.8811 45.4798 32.7415 45.4798 37.4891C45.4798 42.2368 41.6548 46.0971 36.976 46.0971ZM53.6421 23.7071C53.6421 25.4241 52.276 26.7954 50.5912 26.7954C48.895 26.7954 47.5403 25.4125 47.5403 23.7071C47.5403 22.0016 48.9063 20.6188 50.5912 20.6188C52.276 20.6188 53.6421 22.0016 53.6421 23.7071ZM62.3052 26.8415C62.1117 22.7045 61.1782 19.0401 58.1842 16.0209C55.2017 13.0018 51.5816 12.0569 47.4947 11.8495C43.2827 11.6075 30.6579 11.6075 26.4458 11.8495C22.3704 12.0454 18.7503 12.9903 15.7563 16.0094C12.7624 19.0286 11.8403 22.693 11.6354 26.8299C11.3963 31.0936 11.3963 43.8731 11.6354 48.1368C11.8289 52.2737 12.7624 55.9381 15.7563 58.9573C18.7503 61.9764 22.359 62.9213 26.4458 63.1288C30.6579 63.3708 43.2827 63.3708 47.4947 63.1288C51.5816 62.9329 55.2017 61.9879 58.1842 58.9573C61.1668 55.9381 62.1003 52.2737 62.3052 48.1368C62.5443 43.8731 62.5443 31.1051 62.3052 26.8415ZM56.8637 52.7116C55.9758 54.9702 54.2568 56.7102 52.0142 57.6206C48.6559 58.9688 40.6871 58.6577 36.976 58.6577C33.2648 58.6577 25.2847 58.9573 21.9378 57.6206C19.7066 56.7217 17.9876 54.9817 17.0883 52.7116C15.7563 49.3122 16.0637 41.2458 16.0637 37.4891C16.0637 33.7325 15.7677 25.6545 17.0883 22.2667C17.9762 20.0081 19.6952 18.268 21.9378 17.3577C25.2961 16.0094 33.2648 16.3206 36.976 16.3206C40.6871 16.3206 48.6673 16.0209 52.0142 17.3577C54.2454 18.2565 55.9644 19.9965 56.8637 22.2667C58.1956 25.6661 57.8883 33.7325 57.8883 37.4891C57.8883 41.2458 58.1956 49.3237 56.8637 52.7116Z" fill="black"/>
</g>
<defs>
<linearGradient id="paint0_linear" x1="75.4644" y1="-7.06718e-07" x2="50.1786" y2="82.75" gradientUnits="userSpaceOnUse">
<stop stop-color="#7D23B7"/>
<stop offset="0.364583" stop-color="#BC296E"/>
<stop offset="1" stop-color="#D77A47"/>
</linearGradient>
<clipPath id="clip0">
<rect width="51" height="59" fill="white" transform="translate(11.4648 8)"/>
</clipPath>
</defs>
</svg>
