<svg width="78" height="89" viewBox="0 0 78 89" fill="none" xmlns="http://www.w3.org/2000/svg">
<path d="M32.5232 35.1307L49.0982 44.5348L32.5232 53.9389V35.1307ZM78 13.9062V75.0938C78 79.7002 74.2567 83.4375 69.6429 83.4375H8.35714C3.7433 83.4375 0 79.7002 0 75.0938V13.9062C0 9.2998 3.7433 5.5625 8.35714 5.5625H69.6429C74.2567 5.5625 78 9.2998 78 13.9062ZM70.6875 44.5521C70.6875 44.5521 70.6875 34.192 69.3643 29.2205C68.633 26.474 66.4915 24.3186 63.758 23.5885C58.8308 22.25 39 22.25 39 22.25C39 22.25 19.1692 22.25 14.242 23.5885C11.5085 24.3186 9.36696 26.474 8.63571 29.2205C7.3125 34.1746 7.3125 44.5521 7.3125 44.5521C7.3125 44.5521 7.3125 54.9123 8.63571 59.8838C9.36696 62.6303 11.5085 64.6988 14.242 65.4289C19.1692 66.75 39 66.75 39 66.75C39 66.75 58.8308 66.75 63.758 65.4115C66.4915 64.6814 68.633 62.6129 69.3643 59.8664C70.6875 54.9123 70.6875 44.5521 70.6875 44.5521V44.5521Z" fill="url(#paint0_linear)"/>
<defs>
<linearGradient id="paint0_linear" x1="39" y1="5.5625" x2="39" y2="83.4375" gradientUnits="userSpaceOnUse">
<stop stop-color="#FF0000"/>
<stop offset="1" stop-color="#8A1414"/>
</linearGradient>
</defs>
</svg>
