<svg width="162" height="213" viewBox="0 0 162 213" fill="none" xmlns="http://www.w3.org/2000/svg">
    <path d="M8.196 210h-3v3h3v-3zm150.739 0v3h3v-3h-3zm0-39.673h3v-3h-3v3zm-79.347 0h-3v3h3v-3zm0-1.293l-2.016-2.221-.984.893v1.328h3zm24.759-22.472l-1.967-2.265-.025.022-.025.022 2.017 2.221zm50.71-78.252l3-.011v-.014l-3 .025zM3.92 70.994l-3 .007.008 2.993H3.92v-3zm46.733 0v3h3.017l-.017-3.016-3 .016zm31.819 38.58l1.976 2.257.02-.018.02-.018-2.016-2.221zM8.196 174.602l-1.976-2.257-1.024.896v1.361h3zm0 38.398h150.739v-6H8.196v6zm153.739-3v-39.673h-6V210h6zm-3-42.673H79.588v6h79.347v-6zm-76.347 3v-1.293h-6v1.293h6zm-.984.929l24.759-22.472-4.033-4.443-24.758 22.472 4.032 4.443zm24.709-22.428c36.119-31.343 51.849-51.826 51.744-80.53l-6 .023c.094 25.785-13.608 44.677-49.677 75.976l3.933 4.531zm51.744-80.543c-.156-19.146-7.646-36.146-21.258-48.334C123.203 7.777 103.705.58 79.787.58v6c22.716 0 40.703 6.822 53.009 17.84 12.291 11.005 19.118 26.37 19.261 43.914l6-.049zM79.787.58C56.706.58 36.96 7.232 22.95 19.48 8.899 31.765.869 49.47.92 71l6-.014c-.048-19.932 7.333-35.934 19.979-46.99C39.589 12.903 57.825 6.58 79.787 6.58v-6zM3.92 73.994h46.733v-6H3.92v6zm49.733-3.016c-.046-8.57 2.702-14.991 7.148-19.276 4.467-4.304 10.948-6.742 18.886-6.742v-6c-9.163 0-17.249 2.832-23.049 8.422-5.82 5.608-9.038 13.705-8.984 23.628l6-.032zM79.688 44.96c7.642 0 14.147 2.368 18.703 6.454 4.52 4.055 7.331 9.985 7.331 17.592h6c0-9.197-3.454-16.79-9.324-22.058-5.836-5.234-13.848-7.988-22.71-7.988v6zm26.034 24.046c0 13.695-8.898 23.484-25.267 38.347l4.033 4.442c16.046-14.569 27.234-26.059 27.234-42.79h-6zm-25.227 38.311L6.22 172.345l3.952 4.514 74.276-65.028-3.953-4.514zM5.196 174.602V210h6v-35.398h-6z" fill="url(#a)"/>
    <defs>
        <linearGradient id="a" x1="88" y1="-59" x2="88" y2="337" gradientUnits="userSpaceOnUse">
            <stop stop-color="#00D6EF"/>
            <stop offset=".328" stop-color="#810BFF"/>
            <stop offset=".677" stop-color="#FF0B9D"/>
            <stop offset="1" stop-color="#A60636"/>
        </linearGradient>
    </defs>
</svg>
