<svg width="169" height="216" viewBox="0 0 169 216" fill="none" xmlns="http://www.w3.org/2000/svg">
    <path d="M165.006 152.131l-3-.012v.02l3-.008zm-47.728-46.634h-3v2.669l2.652.311.348-2.98zm0-1.591l-.426-2.969-2.574.369v2.6h3zm40.171-42.06l-3-.008v.022l3-.013zM7.506 65.228l-3-.033-.033 3.033h3.033v-3zm47.03 0v3h2.916l.084-2.914-3-.086zm55.484-.199l-3-.022v.043l3-.02zM59.707 88.892v-3h-3v3h3zm0 35h-3v3h3v-3zm53.594 24.46l-3-.041v.083l3-.042zm-60.355 1.79l2.998-.111-.107-2.889h-2.891v3zm-49.517 0v-3H.396l.033 3.032 3-.032zm80.043 65.642c24.364 0 45.44-6.444 60.493-17.646 15.1-11.238 24.093-27.256 24.041-46.016l-6 .017c.046 16.638-7.864 30.946-21.623 41.186-13.808 10.275-33.549 16.459-56.911 16.459v6zm84.534-63.641c.052-13.222-4.269-24.76-12.916-33.461-8.615-8.668-21.27-14.268-37.463-16.164l-.697 5.959c15.227 1.783 26.485 6.97 33.904 14.435 7.386 7.432 11.219 17.371 11.172 29.207l6 .024zm-47.728-46.646v-1.591h-6v1.591h6zm-2.574 1.379c24.695-3.543 42.852-20.346 42.745-45.043l-6 .027c.091 21.041-15.161 35.858-37.597 39.077l.852 5.939zm42.745-45.02C160.555 26.399 128.527.58 83.869.58v6c42.644 0 70.673 24.293 70.58 55.258l6 .018zM83.869.58C38.885.58 4.928 26.81 4.506 65.194l6 .066c.373-34.001 30.45-58.68 73.363-58.68v-6zM7.506 68.227h47.03v-6H7.507v6zm50.03-2.914C57.87 53.589 68.444 44.96 83.869 44.96v-6c-17.387 0-31.87 10.065-32.33 26.182l5.997.17zM83.869 44.96c7.21 0 13.023 2.177 16.98 5.674 3.926 3.47 6.215 8.398 6.171 14.373l6 .043c.056-7.648-2.926-14.253-8.197-18.912-5.24-4.631-12.552-7.178-20.954-7.178v6zm23.151 20.09c.043 6.077-2.597 11.18-7.285 14.84-4.743 3.702-11.704 6.002-20.24 6.002v6c9.56 0 17.91-2.572 23.932-7.272 6.075-4.743 9.649-11.571 9.593-19.613l-6 .042zM79.494 85.891H59.707v6h19.787v-6zm-22.787 3v35h6v-35h-6zm3 38h19.787v-6H59.707v6zm19.787 0c9.834 0 17.663 2.426 22.924 6.281 5.194 3.806 7.968 9.038 7.883 15.138l6 .083c.114-8.218-3.725-15.216-10.337-20.061-6.547-4.796-15.721-7.441-26.47-7.441v6zm30.807 21.502c.087 6.268-2.52 11.525-7.084 15.278-4.608 3.789-11.35 6.14-19.546 6.14v6c9.303 0 17.476-2.67 23.357-7.506 5.927-4.873 9.385-11.846 9.273-19.995l-6 .083zm-26.63 21.418c-16.584 0-27.315-8.662-27.727-19.781l-5.996.222c.583 15.728 15.505 25.559 33.723 25.559v-6zm-30.725-22.67H3.429v6h49.517v-6zM.429 150.174c.422 39.049 35.555 65.61 83.043 65.61v-6c-45.581 0-76.67-25.143-77.043-59.674l-6 .064z" fill="url(#a)"/>
    <defs>
        <linearGradient id="a" x1="89" y1="-59" x2="89" y2="337" gradientUnits="userSpaceOnUse">
            <stop stop-color="#00D6EF"/>
            <stop offset=".328" stop-color="#810BFF"/>
            <stop offset=".677" stop-color="#FF0B9D"/>
            <stop offset="1" stop-color="#A60636"/>
        </linearGradient>
    </defs>
</svg>
