<svg width="177" height="210" viewBox="0 0 177 210" fill="none" xmlns="http://www.w3.org/2000/svg">
    <path d="M3.528 173.193h-3v3h3v-3zm98.338 0h3v-3h-3v3zm0 33.807h-3v3h3v-3zm47.032 0v3h3v-3h-3zm0-33.807v-3h-3v3h3zm24.361 0v3h3v-3h-3zm0-38.778h3v-3h-3v3zm-24.361 0h-3v3h3v-3zm0-131.051h3v-3h-3v3zm-61.946 0v-3h-1.65l-.883 1.392 2.533 1.608zM3.528 134.812l-2.533-1.607-.467.736v.871h3zm99.333-.397v3h3v-3h-3zm-50.412 0h-3v3h3v-3zm0-1.591l-2.537-1.601-.463.733v.868h3zm48.821-77.358v-3h-1.654l-.883 1.399 2.537 1.6zm1.591 0h3v-3h-3v3zM3.528 176.193h98.338v-6H3.528v6zm95.338-3V207h6v-33.807h-6zm3 36.807h47.032v-6h-47.032v6zm50.032-3v-33.807h-6V207h6zm-3-30.807h24.361v-6h-24.361v6zm27.361-3v-38.778h-6v38.778h6zm-3-41.778h-24.361v6h24.361v-6zm-21.361 3V3.364h-6v131.051h6zm-3-134.051H86.952v6h61.946v-6zm-64.48 1.392L.996 133.205l5.066 3.215L89.485 4.971l-5.066-3.215zM.529 134.812v38.381h6v-38.381h-6zm102.333-3.397H52.449v6h50.412v-6zm-47.412 3v-1.591h-6v1.591h6zm-.463.01l48.821-77.358-5.074-3.202-48.821 77.358 5.074 3.202zm46.284-75.96h1.591v-6h-1.591v6zm-1.41-3v78.95h6.001v-78.95h-6z" fill="url(#a)"/>
    <defs>
        <linearGradient id="a" x1="89" y1="-62" x2="89" y2="334" gradientUnits="userSpaceOnUse">
            <stop stop-color="#00D6EF"/>
            <stop offset=".328" stop-color="#810BFF"/>
            <stop offset=".677" stop-color="#FF0B9D"/>
            <stop offset="1" stop-color="#A60636"/>
        </linearGradient>
    </defs>
</svg>
