<svg width="305" height="229" viewBox="0 0 305 229" fill="none" xmlns="http://www.w3.org/2000/svg">
<mask id="mask0" mask-type="alpha" maskUnits="userSpaceOnUse" x="0" y="0" width="306" height="229">
<path d="M94.543 18.8434C89.5187 28.6857 84.6358 38.1031 83.6451 39.8024L81.876 42.8472L84.9189 42.6347L87.8911 42.4223L98.3644 21.959L108.838 1.49562L119.169 22.1006L129.501 42.7764H132.332H135.163L124.76 22.0298L114.287 1.354L108.979 1.14158L103.601 0.929156L94.543 18.8434Z" fill="white"/>
<path d="M187.316 13.8869C183.637 21.0385 178.825 30.4559 176.631 34.7751L172.668 42.7764H175.286H177.975L188.59 22.1714L199.134 1.56643L209.466 22.1714L219.727 42.7764H222.345C223.832 42.7764 225.035 42.6348 225.035 42.4223C225.035 42.2099 220.435 32.7925 214.774 21.5341L204.513 0.999972H199.276H194.039L187.316 13.8869Z" fill="white"/>
<path d="M134.667 45.3255C134.455 45.892 134.596 46.7417 134.95 47.0957C135.304 47.4498 143.159 47.6622 154.34 47.5914C172.456 47.379 173.022 47.3082 173.022 45.9628C173.022 44.6174 172.456 44.5465 154.057 44.3341C137.356 44.1925 135.092 44.3341 134.667 45.3255Z" fill="white"/>
<path d="M71.9687 65.9305C65.5291 74.8522 62.3446 84.482 61.7785 97.0149C61.1416 110.61 64.1137 121.656 70.9072 131.781L73.9502 136.242H77.63H81.3806L78.9038 132.843C72.5349 123.922 69.2796 113.088 69.2089 100.484C69.1381 86.7478 71.6149 77.5429 77.913 67.8423L81.3806 62.6025H77.913C74.5871 62.6025 74.304 62.7442 71.9687 65.9305Z" fill="white"/>
<path d="M224.044 63.4522C224.327 63.9479 225.318 65.364 226.238 66.5677C229.069 70.3913 233.385 80.5168 234.518 86.1106C236.145 93.8994 236.004 106.786 234.235 114.079C232.607 120.806 229.847 127.25 226.238 132.56L223.69 136.313L227.37 136.101L231.05 135.888L234.376 130.932C240.886 121.231 243.929 109.194 243.222 96.0236C242.585 84.3404 239.188 74.4274 233.032 65.9305C230.696 62.7442 230.413 62.6025 227.087 62.6025C224.398 62.6025 223.69 62.815 224.044 63.4522Z" fill="white"/>
<path d="M99.4261 87.3852C93.7648 98.6436 89.165 108.061 89.165 108.273C89.165 108.557 90.7926 108.627 92.7741 108.486L96.4539 108.273L104.38 91.492C108.696 82.2162 112.447 74.4982 112.659 74.2858C112.801 74.0734 116.622 81.579 121.01 90.9964C125.468 100.414 129.431 108.203 129.926 108.415C130.351 108.557 132.049 108.627 133.535 108.486L136.366 108.273L126.246 87.5268L116.127 66.851H112.942H109.687L99.4261 87.3852Z" fill="white"/>
<path d="M178.754 87.5268L168.635 108.273L171.465 108.486C172.951 108.627 174.65 108.557 175.074 108.415C175.57 108.203 179.533 100.414 183.991 90.9964C188.378 81.579 192.2 74.0734 192.412 74.2858C192.624 74.4982 196.304 82.2162 200.692 91.492L208.547 108.273L212.226 108.486C214.208 108.627 215.835 108.557 215.835 108.273C215.835 108.061 211.236 98.6436 205.574 87.3852L195.313 66.851H192.058H188.874L178.754 87.5268Z" fill="white"/>
<path d="M0 92.3415V95.1738H25.8295H51.6589V92.3415V89.5092H25.8295H0V92.3415Z" fill="white"/>
<path d="M253.341 92.3415V95.1738H279.17H305V92.3415V89.5092H279.17H253.341V92.3415Z" fill="white"/>
<path d="M0 110.044V112.876L25.6879 112.734L51.3051 112.522L51.5174 109.831L51.7297 107.211H25.9002H0V110.044Z" fill="white"/>
<path d="M253.483 109.831L253.695 112.522L279.383 112.734L305 112.876V110.044V107.211H279.1H253.271L253.483 109.831Z" fill="white"/>
<path d="M148.962 116.77C145.282 120.381 147.901 126.329 153.208 126.329C156.463 126.329 159.223 123.78 159.223 120.665C159.223 117.549 156.463 115 153.208 115C151.439 115 150.094 115.566 148.962 116.77Z" fill="white"/>
<path d="M73.2429 154.086C73.0306 154.582 71.9692 159.538 70.8369 165.061L68.8555 175.187H71.5446H74.1629L76.3566 165.769C79.3288 152.67 79.3995 153.661 76.2151 153.378C74.5167 153.236 73.4552 153.449 73.2429 154.086Z" fill="white"/>
<path d="M85.6266 153.52C85.6266 153.661 84.8482 157.556 83.9282 162.158C81.0268 176.815 81.0268 175.186 84.0697 175.186H86.7588L89.0233 165.061C90.2971 159.538 91.2878 154.582 91.2878 154.086C91.2878 153.59 90.2264 153.236 88.4572 153.236C86.9004 153.236 85.6266 153.378 85.6266 153.52Z" fill="white"/>
<path d="M209.82 154.086C209.395 155.289 205.928 173.558 205.928 174.478C205.928 174.903 206.989 175.187 208.334 175.187C210.032 175.187 210.881 174.832 211.164 173.912C211.801 171.717 215.835 154.511 215.835 153.873C215.835 152.882 210.174 153.094 209.82 154.086Z" fill="white"/>
<path d="M222.558 153.944C222.346 154.299 221.214 159.255 220.152 164.92L218.171 175.187H220.86H223.478L225.389 166.831C226.45 162.3 227.512 157.556 227.866 156.281C228.149 155.077 228.22 153.874 228.007 153.661C227.37 152.953 223.054 153.166 222.558 153.944Z" fill="white"/>
<path d="M53.782 157.272C50.8807 160.742 46.3517 170.159 44.9363 175.541C43.238 182.196 42.4595 191.614 43.1672 197.845C44.3702 208.466 46.7762 215.405 52.1544 223.477L55.3389 228.292H58.8064C60.7171 228.292 62.2739 228.08 62.2739 227.867C62.2739 227.655 61.4955 226.451 60.5755 225.247C57.7449 221.494 53.782 212.856 52.2252 207.121C50.1022 199.473 50.1022 183.613 52.2252 175.824C53.782 170.088 56.8957 163.291 60.2217 158.405C61.354 156.777 62.2739 155.29 62.2739 155.077C62.2739 154.865 60.8586 154.652 59.1602 154.652C56.4004 154.652 55.7635 155.006 53.782 157.272Z" fill="white"/>
<path d="M100.487 158.83C104.167 164.211 106.502 169.38 108.342 176.319C110.465 184.25 110.465 198.695 108.342 206.696C106.502 213.422 103.459 220.149 100.133 224.893L97.6562 228.292H101.124C104.308 228.292 104.804 228.08 106.856 225.672C109.686 222.203 114.215 212.927 115.843 207.05C117.612 200.536 117.612 182.409 115.843 175.895C114.145 169.947 110.465 162.3 107.21 157.98C104.804 154.794 104.521 154.652 101.124 154.652H97.6562L100.487 158.83Z" fill="white"/>
<path d="M191.633 155.856C190.996 156.564 189.439 158.901 188.095 161.025C176.56 179.364 176.985 205.917 189.085 223.902L192.128 228.292H195.808H199.559L197.082 224.893C193.685 220.149 190.642 213.422 188.873 206.696C187.67 202.235 187.387 198.978 187.387 191.472C187.387 177.736 190.005 168.672 196.728 158.83L199.559 154.652H196.162C193.756 154.652 192.341 155.006 191.633 155.856Z" fill="white"/>
<path d="M234.942 155.077C234.942 155.29 235.862 156.777 236.995 158.405C240.25 163.22 243.293 169.805 244.991 175.682C247.256 183.613 247.256 199.332 244.991 207.191C243.08 214.06 240.816 219.158 237.49 223.973C236.075 226.026 234.942 227.867 234.942 228.009C234.942 228.15 236.499 228.292 238.339 228.292C241.594 228.292 241.877 228.15 244.071 225.106C247.468 220.432 251.572 211.015 252.988 204.926C254.757 197.278 254.615 184.391 252.705 176.957C251.006 170.442 246.619 161.167 243.434 157.272C241.453 155.006 240.816 154.652 238.056 154.652C236.358 154.652 234.942 154.865 234.942 155.077Z" fill="white"/>
<path d="M123.84 226.522V229H148.608H173.376V226.522V224.043H148.608H123.84V226.522Z" fill="white"/>
</mask>
<g mask="url(#mask0)">
<rect y="1" width="308" height="228" fill="url(#paint0_linear)"/>
</g>
<defs>
<linearGradient id="paint0_linear" x1="0" y1="1" x2="321.713" y2="30.4123" gradientUnits="userSpaceOnUse">
<stop stop-color="#00C9E4"/>
<stop offset="1" stop-color="#2035F0"/>
</linearGradient>
</defs>
</svg>
