<svg width="238" height="48" viewBox="0 0 238 48" fill="none" xmlns="http://www.w3.org/2000/svg">
<path d="M25.5752 19.565L10.4252 24.765L25.5752 29.965V38.465L0.0751953 29.215V20.315L25.5752 11.065V19.565Z" fill="white"/>
<path d="M34.1811 7.26501H45.9811V42.265H34.1811V7.26501Z" fill="white"/>
<path d="M84.6615 7.26501V42.265H74.9615L61.6615 26.365V42.265H50.1615V7.26501H59.8615L73.1615 23.165V7.26501H84.6615Z" fill="white"/>
<path d="M105.697 7.26501C108.93 7.26501 111.747 7.79834 114.147 8.86501C116.547 9.93168 118.397 11.465 119.697 13.465C120.997 15.465 121.647 17.7983 121.647 20.465C121.647 23.1317 120.997 25.465 119.697 27.465C118.397 29.465 116.547 30.9983 114.147 32.065C111.747 33.1317 108.93 33.665 105.697 33.665H100.647V42.265H88.8471V7.26501H105.697ZM104.947 24.565C106.547 24.565 107.747 24.215 108.547 23.515C109.347 22.7817 109.747 21.765 109.747 20.465C109.747 19.165 109.347 18.165 108.547 17.465C107.747 16.7317 106.547 16.365 104.947 16.365H100.647V24.565H104.947Z" fill="white"/>
<path d="M141.755 43.065C136.389 43.065 132.205 41.615 129.205 38.715C126.205 35.815 124.705 31.7483 124.705 26.515V7.26501H136.505V26.165C136.505 28.7317 136.955 30.5983 137.855 31.765C138.789 32.9317 140.122 33.515 141.855 33.515C143.589 33.515 144.905 32.9317 145.805 31.765C146.739 30.5983 147.205 28.7317 147.205 26.165V7.26501H158.805V26.515C158.805 31.7483 157.305 35.815 154.305 38.715C151.305 41.615 147.122 43.065 141.755 43.065Z" fill="white"/>
<path d="M172.814 16.415H162.564V7.26501H194.864V16.415H184.614V42.265H172.814V16.415Z" fill="white"/>
<path d="M209.579 0.165009H219.579L203.079 47.265H193.079L209.579 0.165009Z" fill="white"/>
<path d="M237.851 20.315V29.215L212.351 38.465V29.965L227.501 24.765L212.351 19.565V11.065L237.851 20.315Z" fill="white"/>
<path d="M25.5752 19.565L10.4252 24.765L25.5752 29.965V38.465L0.0751953 29.215V20.315L25.5752 11.065V19.565Z" fill="url(#paint0_linear)"/>
<path d="M209.579 0.165009H219.579L203.079 47.265H193.079L209.579 0.165009Z" fill="url(#paint1_linear)"/>
<path d="M237.851 20.315V29.215L212.351 38.465V29.965L227.501 24.765L212.351 19.565V11.065L237.851 20.315Z" fill="url(#paint2_linear)"/>
<defs>
<linearGradient id="paint0_linear" x1="0.0751953" y1="24.765" x2="25.5752" y2="24.765" gradientUnits="userSpaceOnUse">
<stop stop-color="#FF0000"/>
<stop offset="1" stop-color="#FFFF00"/>
</linearGradient>
<linearGradient id="paint1_linear" x1="193.079" y1="23.715" x2="237.851" y2="23.715" gradientUnits="userSpaceOnUse">
<stop stop-color="#FF0000"/>
<stop offset="1" stop-color="#FFFF00"/>
</linearGradient>
<linearGradient id="paint2_linear" x1="193.079" y1="23.715" x2="237.851" y2="23.715" gradientUnits="userSpaceOnUse">
<stop stop-color="#FF0000"/>
<stop offset="1" stop-color="#FFFF00"/>
</linearGradient>
</defs>
</svg>
