<svg width="161" height="27" xmlns="http://www.w3.org/2000/svg">
  <path d="M7.69 13.44c-1.1.31-2.16.36-3.18.14A5.55 5.55 0 0 1 .25 9.56 5.55 5.55 0 0 1 1.7 3.9 6.47 6.47 0 0 1 4.49 2.3a6.53 6.53 0 0 1 2.67-.25c.85.11 1.62.4 2.3.87L8.3 4.87c-.98-.63-2-.8-3.07-.48-.67.2-1.22.51-1.66.96-.44.44-.73.96-.87 1.57-.14.6-.11 1.25.08 1.91.2.67.51 1.22.96 1.66.44.43.96.72 1.57.86.6.14 1.25.12 1.91-.07 1.08-.32 1.86-1 2.34-2.06l2.02 1a5.19 5.19 0 0 1-1.49 1.99c-.66.55-1.46.96-2.4 1.23zM19.17 3.9l-2.86.56 1.25 6.44-2.43.47-1.25-6.44-2.86.55-.39-2.01 8.15-1.58.4 2.01zm6.25 6.13c-.9.09-1.73-.03-2.48-.34a4.22 4.22 0 0 1-2.65-3.63A4.22 4.22 0 0 1 22.22 2c.68-.45 1.48-.7 2.38-.8.9-.08 1.73.04 2.47.35a4.24 4.24 0 0 1 2.64 3.63 4.24 4.24 0 0 1-1.92 4.06c-.68.45-1.47.7-2.37.8zM25.22 8a2.08 2.08 0 0 0 1.52-.79c.37-.47.52-1.06.45-1.78a2.42 2.42 0 0 0-.77-1.67c-.45-.4-1-.56-1.63-.5a2.1 2.1 0 0 0-1.52.79 2.4 2.4 0 0 0-.46 1.78c.07.73.33 1.28.78 1.68.46.39 1 .55 1.64.5zm15.39-6.89l-.25 8.6-2.5-.06.2-6.56-3.59-.1-.19 6.55-2.48-.07.25-8.6 8.56.24zm3.01 9a1.52 1.52 0 0 1-1.36-1.73c.05-.45.24-.8.57-1.05.33-.25.71-.35 1.15-.3.43.05.78.23 1.04.55.27.31.38.7.32 1.15a1.52 1.52 0 0 1-1.72 1.39zM53.84.27l2.52.52-2.28 10.97-2.52-.53L53.84.26zm14.73 10.78c.87.61 1.16 1.41.87 2.4a2.1 2.1 0 0 1-1.36 1.47c-.68.25-1.58.2-2.7-.13l-4.4-1.31 2.46-8.25 4.22 1.25c1.03.31 1.78.74 2.25 1.28.47.55.6 1.16.4 1.84a1.97 1.97 0 0 1-1.74 1.45zm-3.95-1.78l1.81.54c.84.25 1.35.08 1.52-.52.18-.58-.15-1-1-1.25l-1.8-.53-.53 1.76zm1.05 3.83c.88.27 1.4.1 1.59-.5.1-.33.06-.59-.1-.8-.16-.2-.46-.38-.9-.5l-2.06-.62-.54 1.83 2 .6zm8.7 4.64a5.3 5.3 0 0 1-2.17-1.32 4.25 4.25 0 0 1-1-4.4 4.25 4.25 0 0 1 3.42-2.94 5.3 5.3 0 0 1 2.51.24c.87.28 1.56.7 2.08 1.28.53.57.83 1.24.9 2l-2.16.39a2.12 2.12 0 0 0-1.47-1.73c-.62-.2-1.2-.17-1.73.1-.54.27-.93.76-1.16 1.46-.23.7-.2 1.31.07 1.85s.71.91 1.33 1.12c.81.26 1.55.09 2.21-.52l1.5 1.6c-.5.56-1.13.9-1.9 1.06-.76.15-1.57.09-2.43-.2zm14.3-.05c0 .03-.09.24-.25.63l-6.2-1.97c-.05.54.09 1.03.4 1.45.33.43.8.74 1.42.94a2.89 2.89 0 0 0 2.31-.14l.83 1.77c-1.05.64-2.32.73-3.8.26a5.62 5.62 0 0 1-2.29-1.33 4.16 4.16 0 0 1-1.05-4.38 4.4 4.4 0 0 1 1.26-2 4.2 4.2 0 0 1 2.05-1c.78-.16 1.58-.1 2.4.16.8.25 1.48.66 2.02 1.21.54.55.9 1.21 1.06 1.97.17.77.11 1.58-.16 2.43zm-3.47-3.8a2.15 2.15 0 0 0-1.5.02c-.47.19-.82.54-1.07 1.04l4.04 1.28c.08-.54-.01-1.03-.28-1.45a2.1 2.1 0 0 0-1.2-.9zm17.42 8.03l-1.18-.24-.65 3.2-2.41-.5.65-3.19-1.18-.24-2.43 2.84-2.89-.59 3.53-3.82-1.63-4.57 2.58.52 1.2 3.66 1.21.24.67-3.28 2.41.5-.66 3.27 1.2.24 2.54-2.9 2.58.53-3.28 3.58 1.78 4.9-2.9-.6-1.14-3.55zm17.21-1.79l-2.91-.07-.15 6.56-2.48-.05.15-6.56-2.91-.07.05-2.05 8.3.2-.05 2.04zm3.75-2.54c1.32-.11 2.37.11 3.14.68.77.57 1.2 1.5 1.32 2.77l.42 4.9-2.32.2-.1-1.07c-.4.84-1.23 1.31-2.5 1.42-.67.06-1.25 0-1.75-.18s-.9-.46-1.19-.83c-.29-.37-.45-.8-.5-1.3-.07-.8.18-1.45.74-1.96s1.47-.82 2.72-.93l1.98-.17c-.05-.55-.25-.95-.6-1.21-.36-.27-.87-.37-1.53-.31a4.34 4.34 0 0 0-2.4 1.01l-1.04-1.66a5.4 5.4 0 0 1 1.61-.91c.64-.24 1.3-.39 2-.45zm.43 7.18c.42-.04.8-.17 1.1-.4.32-.22.53-.53.63-.93l-.08-.87-1.7.14c-1.02.1-1.5.47-1.44 1.14a.9.9 0 0 0 .44.73c.26.16.61.22 1.05.19zm9.66-3.1l-1.27.25.65 3.2-2.44.5-1.71-8.44 2.44-.5.67 3.28 1.31-.27 1.63-3.74 2.6-.52-2.13 4.64 4.05 3.75-2.89.59-2.9-2.75zm4.38-6.42l2.36-.74 1.54 4.88 2.46-6.14 2.18-.7 2.6 8.22-2.37.74-1.55-4.88-2.44 6.14-2.2.7-2.58-8.22zm14.27 4.53c-.4.16-.8.15-1.2-.02a1.52 1.52 0 0 1-.81-.88c-.17-.43-.17-.83.01-1.2.18-.37.47-.64.88-.8.4-.15.8-.16 1.18 0 .38.15.65.45.82.87a1.52 1.52 0 0 1-.88 2.03zm3.9-1.59c-.4.17-.8.18-1.2.02-.38-.16-.67-.44-.84-.85a1.46 1.46 0 0 1-.02-1.2c.16-.38.44-.65.85-.82.4-.18.8-.19 1.18-.05.38.15.67.43.85.85a1.52 1.52 0 0 1-.82 2.05zm3.83-1.69a1.52 1.52 0 0 1-2.06-.78c-.2-.41-.22-.81-.06-1.2.15-.37.43-.66.82-.84.4-.18.8-.2 1.18-.07.4.13.68.4.87.82a1.52 1.52 0 0 1-.75 2.07z" fill="#000" fill-rule="nonzero"/>
</svg>
