<?xml version="1.0" encoding="UTF-8"?><!DOCTYPE svg PUBLIC "-//W3C//DTD SVG 1.1//EN" "http://www.w3.org/Graphics/SVG/1.1/DTD/svg11.dtd"><svg xmlns="http://www.w3.org/2000/svg" xmlns:xlink="http://www.w3.org/1999/xlink"><symbol id="icon-Slogan-end-2" viewBox="0 0 187 30">
    <!-- Generator: Sketch 53.2 (72643) - https://sketchapp.com -->
    <title>Group</title>
    <desc>Created with Sketch.</desc>
    <g id="Page-1" stroke-width="1" fill-rule="evenodd">
        <g id="Group" transform="translate(-0.000000, -0.742677)">
            <path d="M2,18.0629899 C80.7637576,-5.45654136 102.81761,53.3833024 186.5,18.0629899" id="Underline" stroke-opacity="0.301983173"/>
            <path d="M10.4936285,1.35684986 L13.2446322,12.2137361 L10.7475483,12.8464669 L8.51530538,4.03687925 L3.61419673,5.2787609 L5.8464397,14.0883486 L3.34935586,14.7210794 L0.59835221,3.86419319 L10.4936285,1.35684986 Z M19.3923001,2.25747836 C20.1820773,2.12997051 20.9300903,2.19558615 21.6363612,2.45432726 C22.3426322,2.71306837 22.9331685,3.14175453 23.4079878,3.7403986 C23.882807,4.33904267 24.1907664,5.07536375 24.3318751,5.94938394 C24.4729838,6.82340413 24.4123859,7.61922798 24.1500797,8.33687937 C23.8877735,9.05453077 23.462145,9.64727457 22.8731812,10.1151286 C22.2842174,10.5829825 21.5948573,10.880659 20.80508,11.0081668 C19.7204525,11.1832776 18.8122533,10.9787523 18.080455,10.3945849 L18.7205412,14.359247 L16.2564484,14.7570695 L14.3897429,3.19478796 L16.7432674,2.81481647 L16.9013763,3.7941354 C17.3931301,2.95840387 18.2234297,2.44618998 19.3923001,2.25747836 Z M20.0521839,9.05520101 C20.6840057,8.95319473 21.1681918,8.65622917 21.5047565,8.16429541 C21.8413213,7.67236165 21.9517985,7.06837146 21.8361914,6.35230673 C21.7205842,5.636242 21.4256485,5.09770486 20.9513752,4.73667916 C20.477102,4.37565346 19.9240628,4.24614569 19.2922409,4.34815197 C18.6604191,4.45015825 18.1762331,4.74712382 17.8396683,5.23905758 C17.5031036,5.73099134 17.3926264,6.33498152 17.5082335,7.05104626 C17.6238406,7.76711099 17.9187764,8.30564812 18.3930496,8.66667382 C18.8673229,9.02769952 19.4203621,9.15720729 20.0521839,9.05520101 Z M26.1712061,1.4479396 L28.6455709,1.2808498 L28.9905305,6.38921577 L32.8280455,0.998414146 L35.1108466,0.844260333 L35.6908099,9.43270062 L33.2164451,9.59979042 L32.8714855,4.49142445 L29.0499341,9.88114808 L26.7511694,10.0363799 L26.1712061,1.4479396 Z M50.8961495,1.35778942 L50.3329352,9.94734433 L47.8422836,9.78403311 L48.0516569,6.59089002 C47.3041451,6.90532318 46.494003,7.03392333 45.6212061,6.97669433 C44.461025,6.90062163 43.6028535,6.57978734 43.0466659,6.01418183 C42.4904782,5.44857632 42.2486796,4.6123052 42.3212627,3.5053434 L42.4981832,0.807137487 L44.9888348,0.970448707 L44.822383,3.50899746 C44.7881852,4.03054678 44.8991168,4.41729654 45.1551812,4.66925836 C45.4112456,4.92122019 45.7947248,5.06394891 46.3056302,5.09744881 C46.9549059,5.14002161 47.5759916,5.04178295 48.168906,4.80272989 L48.4054979,1.1944782 L50.8961495,1.35778942 Z M56.679966,10.9265981 C55.7833634,10.7918521 55.007208,10.4837499 54.3514763,10.0022823 C53.6957447,9.52081468 53.2174043,8.91769986 52.9164407,8.19291974 C52.6154772,7.46813961 52.5284066,6.68383069 52.6552264,5.83996944 C52.7820462,4.9961082 53.0958037,4.27203776 53.5965083,3.66773642 C54.097213,3.06343508 54.7316979,2.62756132 55.4999821,2.36010207 C56.2682663,2.09264283 57.1006972,2.0262872 57.9972998,2.16103321 C58.8939024,2.29577921 59.6674208,2.60348509 60.3178783,3.08416008 C60.9683359,3.56483507 61.4440393,4.16755358 61.7450028,4.8923337 C62.0459663,5.61711383 62.1330369,6.40142275 62.0062171,7.245284 C61.8793973,8.08914524 61.5656398,8.81321568 61.0649352,9.41751702 C60.5642305,10.0218184 59.9323826,10.4580884 59.1693725,10.7263403 C58.4063625,10.9945922 57.5765686,11.0613441 56.679966,10.9265981 Z M56.9843319,8.90134122 C57.6172279,8.99645605 58.1688229,8.86092913 58.6391337,8.49475638 C59.1094444,8.12858364 59.3984938,7.58686437 59.5062907,6.8695823 C59.6140875,6.15230024 59.4970348,5.54954987 59.155129,5.0613131 C58.8132233,4.57307633 58.3258298,4.2814049 57.6929339,4.18629008 C57.0600379,4.09117525 56.5058058,4.22630587 56.030221,4.59168599 C55.5546361,4.9570661 55.2629497,5.49838907 55.1551528,6.21567113 C55.047356,6.93295319 55.1670458,7.53609987 55.5142256,8.02512927 C55.8614055,8.51415866 56.351436,8.80622639 56.9843319,8.90134122 Z M71.2278471,13.7188453 L72.381244,8.69761242 L68.9034935,12.3312645 L67.8742967,12.094854 L66.3967718,7.30653905 L65.239793,12.3433658 L63.0410544,11.838307 L64.9681585,3.44879362 L67.5099627,4.03265601 L69.0781168,9.49845628 L73.045794,5.30425813 L75.322502,5.82722689 L73.4265858,14.2239042 L71.2278471,13.7188453 Z M86.3546201,8.8008362 L80.1650995,16.5643969 C79.5195258,17.4147332 78.8624698,17.9574504 78.1939118,18.192565 C77.5253539,18.4276795 76.7953733,18.435417 76.0039481,18.2157778 C75.5722616,18.0959746 75.1642614,17.9107918 74.7799351,17.6602238 C74.3956089,17.4096558 74.1026362,17.1290942 73.9010082,16.8185306 L75.2547259,15.3510946 C75.394095,15.5668908 75.5717103,15.7545546 75.7875771,15.9140916 C76.0034438,16.0736286 76.2295736,16.1861986 76.4659734,16.2518051 C76.7948773,16.3430838 77.084214,16.3375913 77.3339921,16.2353276 C77.5837702,16.1330639 77.8422255,15.9197464 78.109366,15.5953688 L78.1615939,15.5268396 L76.8884001,6.1737361 L79.3705848,6.86260111 L80.136884,13.1359927 L84.0420256,8.1590365 L86.3546201,8.8008362 Z M98.3050249,14.3361958 L95.5042523,13.5390654 L93.708519,19.8484982 L91.3232456,19.1696234 L93.1189789,12.8601907 L90.3182063,12.0630603 L90.8788255,10.0932861 L98.865644,12.3664217 L98.3050249,14.3361958 Z M108.379861,14.80137 L102.344134,22.6850893 C101.715398,23.5479504 101.069137,24.1034776 100.405329,24.3516876 C99.7415217,24.5998976 99.0118342,24.6219818 98.2162448,24.4179409 C97.782287,24.3066459 97.3707257,24.1295183 96.9815486,23.8865529 C96.5923715,23.6435874 96.2939408,23.3688386 96.0862475,23.062298 L97.4108604,21.5685375 C97.5544442,21.7815526 97.7357138,21.965689 97.9546747,22.1209522 C98.1736355,22.2762154 98.4019343,22.384319 98.6395779,22.4452663 C98.9702124,22.5300625 99.2593852,22.518884 99.507105,22.4117305 C99.7548248,22.3045771 100.009037,22.0862207 100.26975,21.7566549 L100.320621,21.6871125 L98.8638329,12.3608412 L101.359078,13.0007844 L102.248536,19.257902 L106.055099,14.2051496 L108.379861,14.80137 Z M115.891035,18.4126612 L113.038322,17.828051 L111.721343,24.2544938 L109.291834,23.7566114 L110.608813,17.3301687 L107.756099,16.7455585 L108.167254,14.7392544 L116.30219,16.4063572 L115.891035,18.4126612 Z M124.45754,22.7927676 L123.167537,22.6682269 L122.853879,25.9171213 L120.369431,25.6772651 L121.196627,17.1091025 L123.681076,17.3489587 L123.35973,20.6774828 L124.69751,20.8066361 L127.344045,17.7025928 L129.987753,17.9578244 L126.596989,21.7776627 L129.367594,26.545975 L126.437219,26.2630677 L124.45754,22.7927676 Z M134.360538,26.673091 C133.453879,26.6684633 132.64153,26.474983 131.923469,26.0926445 C131.205407,25.7103059 130.645435,25.1821128 130.243535,24.5080494 C129.841635,23.8339859 129.642865,23.0703024 129.647221,22.2169759 C129.651576,21.3636494 129.858131,20.6020347 130.266891,19.932109 C130.675651,19.2621832 131.240986,18.7397338 131.962913,18.3647451 C132.68484,17.9897564 133.499121,17.8045787 134.40578,17.8092064 C135.31244,17.8138341 136.122121,18.0073007 136.83485,18.3896121 C137.547578,18.7719234 138.104884,19.3001029 138.506784,19.9741663 C138.908684,20.6482298 139.107453,21.4119133 139.103098,22.2652398 C139.098742,23.1185663 138.892188,23.880181 138.483428,24.5501067 C138.074668,25.2200325 137.511999,25.7424955 136.795405,26.1175114 C136.078812,26.4925273 135.267197,26.6777187 134.360538,26.673091 Z M134.370991,24.6251176 C135.010986,24.6283842 135.53741,24.4150705 135.950278,23.9851701 C136.363146,23.5552696 136.571428,22.9776643 136.575131,22.2523368 C136.578833,21.5270093 136.376458,20.9473079 135.967999,20.5132153 C135.559541,20.0791227 135.035322,19.8604463 134.395327,19.8571797 C133.755332,19.8539131 133.226242,20.0672132 132.80804,20.4970865 C132.389839,20.9269597 132.17889,21.5045514 132.175188,22.2298789 C132.171486,22.9552065 132.376528,23.5349214 132.790319,23.9690413 C133.204111,24.4031611 133.730996,24.621851 134.370991,24.6251176 Z M147.133323,19.3483106 L144.23089,19.584161 L144.762201,26.1226094 L142.290348,26.3234711 L141.759037,19.7850226 L138.856604,20.020873 L138.690731,17.9796013 L146.96745,17.3070389 L147.133323,19.3483106 Z M147.54303,17.189156 L149.987994,16.7737588 L150.845588,21.8214248 L154.12077,16.0716035 L156.376446,15.6883661 L157.818276,24.1747546 L155.373313,24.5901518 L154.515719,19.5424858 L151.25631,25.2896271 L148.984861,25.6755445 L147.54303,17.189156 Z M163.004422,19.5720134 L161.749686,19.8964383 L162.566756,23.0565162 L160.150226,23.6813347 L157.995403,15.3474039 L160.411933,14.7225854 L161.24903,17.9601161 L162.550238,17.6236754 L163.974766,13.8013786 L166.546202,13.1365077 L164.667327,17.8860631 L168.902402,21.4183703 L166.052136,22.1553357 L163.004422,19.5720134 Z M167.302069,12.8781285 L169.650331,12.0805912 L171.296859,16.9286159 L173.619651,10.732496 L175.786112,9.99670352 L178.554338,18.1474451 L176.206076,18.9449824 L174.559547,14.0969576 L172.251906,20.2879322 L170.070295,21.02887 L167.302069,12.8781285 Z M181.823727,12.7232506 C181.613884,12.2098069 181.55638,11.7378193 181.651212,11.3072736 C181.746045,10.8767278 181.932895,10.3682501 182.211769,9.78182513 C182.416545,9.35243844 182.554091,9.00526807 182.62441,8.74030362 C182.694729,8.47533916 182.677429,8.21449994 182.572507,7.95777814 C182.423197,7.59244325 182.159524,7.36315726 181.781482,7.26991329 C181.403439,7.17666931 180.972514,7.2289146 180.488692,7.42665072 C180.024618,7.61631598 179.651733,7.88106193 179.370026,8.22089652 C179.088319,8.5607311 178.894664,8.95387891 178.789056,9.40035174 L176.567178,9.08121203 C176.723615,8.27979332 177.084201,7.56203455 177.648946,6.92791418 C178.213691,6.29379382 178.979873,5.77900524 179.947517,5.383533 C181.083017,4.91945844 182.092739,4.78910282 182.976712,4.99246224 C183.860686,5.19582166 184.478204,5.72700873 184.829287,6.5860394 C184.994739,6.99086995 185.073365,7.37356434 185.065165,7.73413404 C185.056966,8.09470375 184.999977,8.42047376 184.894198,8.71145385 C184.788418,9.00243395 184.638981,9.3487028 184.445881,9.7502708 C184.213716,10.225421 184.059106,10.608373 183.982046,10.8991385 C183.904987,11.1899039 183.931024,11.4932647 184.060157,11.80923 L181.823727,12.7232506 Z M184.46868,15.9807244 C184.063849,16.1461771 183.672204,16.1535611 183.293732,16.0028767 C182.915261,15.8521923 182.649356,15.5892496 182.496009,15.2140408 C182.342663,14.838832 182.347836,14.4708624 182.511528,14.1101209 C182.67522,13.7493794 182.964414,13.4842686 183.379119,13.3147805 C183.793823,13.1452924 184.185919,13.1319626 184.555418,13.2747909 C184.924918,13.4176191 185.186336,13.6766337 185.339683,14.0518425 C185.493029,14.4270513 185.487406,14.8009666 185.322812,15.1735998 C185.158218,15.5462329 184.87351,15.8152717 184.46868,15.9807244 Z" id="&#x41F;&#x440;&#x438;&#x447;&#x43E;&#x43C;&#x443;&#x442;&#x443;&#x442;&#x43A;&#x43E;&#x442;&#x438;&#x43A;&#x438;?" fill-rule="nonzero"/>
        </g>
    </g>
</symbol><symbol id="icon-Slogan-end-3" viewBox="0 0 187 30">
  <g fill-rule="evenodd">
    <path d="M2 17.32c78.76-23.52 100.82 35.32 184.5 0" stroke-opacity=".3"/>
    <path d="M10.5.61l2.74 10.86-2.5.63-2.22-8.8-4.9 1.24 2.23 8.8-2.5.64L.6 3.12l9.9-2.5zm8.9.9a4.39 4.39 0 0 1 2.24.2c.7.26 1.3.69 1.77 1.29.47.6.78 1.33.92 2.2.14.88.08 1.68-.18 2.4a3.96 3.96 0 0 1-1.28 1.77c-.59.47-1.28.77-2.06.9-1.09.17-2-.03-2.73-.62l.64 3.97-2.46.4-1.87-11.57 2.35-.38.16.98c.5-.83 1.32-1.35 2.5-1.54zm.65 6.8c.63-.1 1.12-.4 1.45-.89.34-.49.45-1.1.34-1.81a2.42 2.42 0 0 0-.89-1.62 2.08 2.08 0 0 0-1.66-.38c-.63.1-1.11.4-1.45.89-.34.49-.45 1.1-.33 1.8.11.72.4 1.26.88 1.62.48.37 1.03.5 1.66.4zm6.12-7.6l2.48-.17.34 5.1L32.83.27 35.1.1l.58 8.59-2.47.17-.35-5.11-3.82 5.39-2.3.15-.58-8.58zM50.9.6l-.57 8.6-2.49-.17.21-3.2a5.3 5.3 0 0 1-2.43.4c-1.16-.08-2.02-.4-2.57-.97-.56-.56-.8-1.4-.73-2.5l.18-2.7 2.49.16-.17 2.54c-.03.52.08.9.34 1.16.25.25.63.4 1.15.42.64.05 1.27-.05 1.86-.29l.24-3.6 2.49.16zm5.78 9.57a5.16 5.16 0 0 1-2.33-.92 4.22 4.22 0 0 1-1.7-4.16 4.22 4.22 0 0 1 2.84-3.48c.78-.27 1.61-.34 2.5-.2.9.13 1.68.44 2.33.92A4.24 4.24 0 0 1 62 6.5a4.24 4.24 0 0 1-2.84 3.48c-.76.27-1.6.34-2.49.2zm.3-2.02c.64.1 1.19-.04 1.66-.4.47-.37.76-.92.87-1.63.1-.72-.01-1.32-.35-1.81a2.08 2.08 0 0 0-1.47-.88 2.1 2.1 0 0 0-1.66.4c-.48.37-.77.92-.87 1.63-.11.72 0 1.32.35 1.81.35.5.84.78 1.47.88zm14.25 4.82l1.15-5.03-3.48 3.64-1.03-.24-1.47-4.79-1.16 5.04-2.2-.5 1.93-8.4 2.54.59 1.57 5.47 3.97-4.2 2.27.52-1.9 8.4-2.2-.5zm15.12-4.92l-6.18 7.76a4.5 4.5 0 0 1-1.98 1.63c-.66.24-1.4.24-2.19.02-.43-.12-.84-.3-1.22-.55a2.93 2.93 0 0 1-.88-.84l1.35-1.47a2.14 2.14 0 0 0 1.22.9c.32.09.61.08.86-.02s.51-.31.78-.64l.05-.07-1.27-9.35 2.48.69.77 6.27 3.9-4.97 2.31.64zm11.96 5.53l-2.8-.8-1.8 6.32-2.39-.68 1.8-6.31-2.8-.8.56-1.97 7.99 2.27-.56 1.97zm10.07.47l-6.04 7.88a4.5 4.5 0 0 1-1.93 1.67c-.67.25-1.4.27-2.2.07a4.37 4.37 0 0 1-1.23-.54 2.93 2.93 0 0 1-.9-.82l1.33-1.5a2.14 2.14 0 0 0 1.23.88c.33.09.62.08.87-.03.24-.1.5-.33.76-.66l.05-.07-1.46-9.32 2.5.64.89 6.26 3.8-5.06 2.33.6zm7.51 3.61l-2.85-.58-1.32 6.42-2.43-.5 1.32-6.42-2.85-.59.4-2 8.14 1.66-.4 2.01zm8.57 4.38l-1.3-.12-.3 3.24-2.5-.24.84-8.56 2.48.24-.32 3.32 1.34.13 2.64-3.1 2.65.26-3.4 3.81 2.78 4.77-2.93-.28-1.98-3.47zm9.9 3.88c-.9 0-1.72-.2-2.44-.58a4.22 4.22 0 0 1-2.27-3.88 4.22 4.22 0 0 1 2.32-3.85 5.16 5.16 0 0 1 2.44-.55c.9 0 1.71.2 2.42.58a4.24 4.24 0 0 1 2.27 3.87 4.24 4.24 0 0 1-2.3 3.85c-.72.38-1.53.57-2.44.56zm.01-2.05c.64 0 1.17-.2 1.58-.64.41-.43.62-1 .63-1.73 0-.73-.2-1.3-.61-1.74-.41-.43-.93-.65-1.57-.66a2.1 2.1 0 0 0-1.6.64c-.41.43-.62 1.01-.62 1.74 0 .72.2 1.3.61 1.74.41.43.94.65 1.58.65zm12.76-5.27l-2.9.23.53 6.54-2.47.2-.53-6.54-2.9.24-.17-2.04 8.28-.68.16 2.05zm.41-2.16l2.45-.42.86 5.05 3.27-5.75 2.26-.38 1.44 8.48-2.45.42-.85-5.05-3.26 5.75-2.28.38-1.44-8.48zM163 18.83l-1.25.32.82 3.16-2.42.63L158 14.6l2.41-.62.84 3.24 1.3-.34 1.42-3.82 2.58-.67-1.88 4.75 4.23 3.54-2.85.73-3.05-2.58zm4.3-6.7l2.35-.8 1.65 4.86 2.32-6.2 2.17-.74 2.76 8.15-2.34.8-1.65-4.85-2.3 6.2-2.19.74-2.77-8.15zm14.52-.15a2.37 2.37 0 0 1-.17-1.42c.1-.43.28-.93.56-1.52.2-.43.34-.78.41-1.04a1.2 1.2 0 0 0-.05-.78 1.1 1.1 0 0 0-.79-.7c-.38-.09-.8-.03-1.3.16a2.8 2.8 0 0 0-1.7 1.98l-2.21-.32c.15-.8.51-1.52 1.08-2.15a6.1 6.1 0 0 1 2.3-1.55 5.02 5.02 0 0 1 3.03-.39c.88.2 1.5.73 1.85 1.6a2.86 2.86 0 0 1 .06 2.12c-.1.29-.25.64-.44 1.04-.24.47-.4.86-.47 1.15-.08.29-.05.6.08.9l-2.24.92zm2.65 3.26c-.4.16-.8.17-1.18.02a1.38 1.38 0 0 1-.8-.79c-.15-.37-.14-.74.02-1.1.17-.36.45-.63.87-.8.41-.17.8-.18 1.18-.04.36.14.63.4.78.78.15.37.15.75-.02 1.12-.16.37-.45.64-.85.8z" fill-rule="nonzero"/>
  </g>
</symbol><symbol id="icon-Slogan-end" viewBox="0 0 187 30">
  <g fill-rule="evenodd">
    <path d="M2 17.32c78.76-23.52 100.82 35.32 184.5 0" stroke-opacity=".3"/>
    <path d="M10.5.61l2.74 10.86-2.5.63-2.22-8.8-4.9 1.24 2.23 8.8-2.5.64L.6 3.12l9.9-2.5zm8.9.9a4.39 4.39 0 0 1 2.24.2c.7.26 1.3.69 1.77 1.29.47.6.78 1.33.92 2.2.14.88.08 1.68-.18 2.4a3.96 3.96 0 0 1-1.28 1.77c-.59.47-1.28.77-2.06.9-1.09.17-2-.03-2.73-.62l.64 3.97-2.46.4-1.87-11.57 2.35-.38.16.98c.5-.83 1.32-1.35 2.5-1.54zm.65 6.8c.63-.1 1.12-.4 1.45-.89.34-.49.45-1.1.34-1.81a2.42 2.42 0 0 0-.89-1.62 2.08 2.08 0 0 0-1.66-.38c-.63.1-1.11.4-1.45.89-.34.49-.45 1.1-.33 1.8.11.72.4 1.26.88 1.62.48.37 1.03.5 1.66.4zm6.12-7.6l2.48-.17.34 5.1L32.83.27 35.1.1l.58 8.59-2.47.17-.35-5.11-3.82 5.39-2.3.15-.58-8.58zM50.9.6l-.57 8.6-2.49-.17.21-3.2a5.3 5.3 0 0 1-2.43.4c-1.16-.08-2.02-.4-2.57-.97-.56-.56-.8-1.4-.73-2.5l.18-2.7 2.49.16-.17 2.54c-.03.52.08.9.34 1.16.25.25.63.4 1.15.42.64.05 1.27-.05 1.86-.29l.24-3.6 2.49.16zm5.78 9.57a5.16 5.16 0 0 1-2.33-.92 4.22 4.22 0 0 1-1.7-4.16 4.22 4.22 0 0 1 2.84-3.48c.78-.27 1.61-.34 2.5-.2.9.13 1.68.44 2.33.92A4.24 4.24 0 0 1 62 6.5a4.24 4.24 0 0 1-2.84 3.48c-.76.27-1.6.34-2.49.2zm.3-2.02c.64.1 1.19-.04 1.66-.4.47-.37.76-.92.87-1.63.1-.72-.01-1.32-.35-1.81a2.08 2.08 0 0 0-1.47-.88 2.1 2.1 0 0 0-1.66.4c-.48.37-.77.92-.87 1.63-.11.72 0 1.32.35 1.81.35.5.84.78 1.47.88zm14.25 4.82l1.15-5.03-3.48 3.64-1.03-.24-1.47-4.79-1.16 5.04-2.2-.5 1.93-8.4 2.54.59 1.57 5.47 3.97-4.2 2.27.52-1.9 8.4-2.2-.5zm15.12-4.92l-6.18 7.76a4.5 4.5 0 0 1-1.98 1.63c-.66.24-1.4.24-2.19.02-.43-.12-.84-.3-1.22-.55a2.93 2.93 0 0 1-.88-.84l1.35-1.47a2.14 2.14 0 0 0 1.22.9c.32.09.61.08.86-.02s.51-.31.78-.64l.05-.07-1.27-9.35 2.48.69.77 6.27 3.9-4.97 2.31.64zm11.96 5.53l-2.8-.8-1.8 6.32-2.39-.68 1.8-6.31-2.8-.8.56-1.97 7.99 2.27-.56 1.97zm10.07.47l-6.04 7.88a4.5 4.5 0 0 1-1.93 1.67c-.67.25-1.4.27-2.2.07a4.37 4.37 0 0 1-1.23-.54 2.93 2.93 0 0 1-.9-.82l1.33-1.5a2.14 2.14 0 0 0 1.23.88c.33.09.62.08.87-.03.24-.1.5-.33.76-.66l.05-.07-1.46-9.32 2.5.64.89 6.26 3.8-5.06 2.33.6zm7.51 3.61l-2.85-.58-1.32 6.42-2.43-.5 1.32-6.42-2.85-.59.4-2 8.14 1.66-.4 2.01zm8.57 4.38l-1.3-.12-.3 3.24-2.5-.24.84-8.56 2.48.24-.32 3.32 1.34.13 2.64-3.1 2.65.26-3.4 3.81 2.78 4.77-2.93-.28-1.98-3.47zm9.9 3.88c-.9 0-1.72-.2-2.44-.58a4.22 4.22 0 0 1-2.27-3.88 4.22 4.22 0 0 1 2.32-3.85 5.16 5.16 0 0 1 2.44-.55c.9 0 1.71.2 2.42.58a4.24 4.24 0 0 1 2.27 3.87 4.24 4.24 0 0 1-2.3 3.85c-.72.38-1.53.57-2.44.56zm.01-2.05c.64 0 1.17-.2 1.58-.64.41-.43.62-1 .63-1.73 0-.73-.2-1.3-.61-1.74-.41-.43-.93-.65-1.57-.66a2.1 2.1 0 0 0-1.6.64c-.41.43-.62 1.01-.62 1.74 0 .72.2 1.3.61 1.74.41.43.94.65 1.58.65zm12.76-5.27l-2.9.23.53 6.54-2.47.2-.53-6.54-2.9.24-.17-2.04 8.28-.68.16 2.05zm.41-2.16l2.45-.42.86 5.05 3.27-5.75 2.26-.38 1.44 8.48-2.45.42-.85-5.05-3.26 5.75-2.28.38-1.44-8.48zM163 18.83l-1.25.32.82 3.16-2.42.63L158 14.6l2.41-.62.84 3.24 1.3-.34 1.42-3.82 2.58-.67-1.88 4.75 4.23 3.54-2.85.73-3.05-2.58zm4.3-6.7l2.35-.8 1.65 4.86 2.32-6.2 2.17-.74 2.76 8.15-2.34.8-1.65-4.85-2.3 6.2-2.19.74-2.77-8.15zm14.52-.15a2.37 2.37 0 0 1-.17-1.42c.1-.43.28-.93.56-1.52.2-.43.34-.78.41-1.04a1.2 1.2 0 0 0-.05-.78 1.1 1.1 0 0 0-.79-.7c-.38-.09-.8-.03-1.3.16a2.8 2.8 0 0 0-1.7 1.98l-2.21-.32c.15-.8.51-1.52 1.08-2.15a6.1 6.1 0 0 1 2.3-1.55 5.02 5.02 0 0 1 3.03-.39c.88.2 1.5.73 1.85 1.6a2.86 2.86 0 0 1 .06 2.12c-.1.29-.25.64-.44 1.04-.24.47-.4.86-.47 1.15-.08.29-.05.6.08.9l-2.24.92zm2.65 3.26c-.4.16-.8.17-1.18.02a1.38 1.38 0 0 1-.8-.79c-.15-.37-.14-.74.02-1.1.17-.36.45-.63.87-.8.41-.17.8-.18 1.18-.04.36.14.63.4.78.78.15.37.15.75-.02 1.12-.16.37-.45.64-.85.8z" fill-rule="nonzero"/>
  </g>
</symbol><symbol id="icon-Slogan-start" viewBox="0 0 161 27">
  <path d="M7.69 13.44c-1.1.31-2.16.36-3.18.14A5.55 5.55 0 0 1 .25 9.56 5.55 5.55 0 0 1 1.7 3.9 6.47 6.47 0 0 1 4.49 2.3a6.53 6.53 0 0 1 2.67-.25c.85.11 1.62.4 2.3.87L8.3 4.87c-.98-.63-2-.8-3.07-.48-.67.2-1.22.51-1.66.96-.44.44-.73.96-.87 1.57-.14.6-.11 1.25.08 1.91.2.67.51 1.22.96 1.66.44.43.96.72 1.57.86.6.14 1.25.12 1.91-.07 1.08-.32 1.86-1 2.34-2.06l2.02 1a5.19 5.19 0 0 1-1.49 1.99c-.66.55-1.46.96-2.4 1.23zM19.17 3.9l-2.86.56 1.25 6.44-2.43.47-1.25-6.44-2.86.55-.39-2.01 8.15-1.58.4 2.01zm6.25 6.13c-.9.09-1.73-.03-2.48-.34a4.22 4.22 0 0 1-2.65-3.63A4.22 4.22 0 0 1 22.22 2c.68-.45 1.48-.7 2.38-.8.9-.08 1.73.04 2.47.35a4.24 4.24 0 0 1 2.64 3.63 4.24 4.24 0 0 1-1.92 4.06c-.68.45-1.47.7-2.37.8zM25.22 8a2.08 2.08 0 0 0 1.52-.79c.37-.47.52-1.06.45-1.78a2.42 2.42 0 0 0-.77-1.67c-.45-.4-1-.56-1.63-.5a2.1 2.1 0 0 0-1.52.79 2.4 2.4 0 0 0-.46 1.78c.07.73.33 1.28.78 1.68.46.39 1 .55 1.64.5zm15.39-6.89l-.25 8.6-2.5-.06.2-6.56-3.59-.1-.19 6.55-2.48-.07.25-8.6 8.56.24zm3.01 9a1.52 1.52 0 0 1-1.36-1.73c.05-.45.24-.8.57-1.05.33-.25.71-.35 1.15-.3.43.05.78.23 1.04.55.27.31.38.7.32 1.15a1.52 1.52 0 0 1-1.72 1.39zM53.84.27l2.52.52-2.28 10.97-2.52-.53L53.84.26zm14.73 10.78c.87.61 1.16 1.41.87 2.4a2.1 2.1 0 0 1-1.36 1.47c-.68.25-1.58.2-2.7-.13l-4.4-1.31 2.46-8.25 4.22 1.25c1.03.31 1.78.74 2.25 1.28.47.55.6 1.16.4 1.84a1.97 1.97 0 0 1-1.74 1.45zm-3.95-1.78l1.81.54c.84.25 1.35.08 1.52-.52.18-.58-.15-1-1-1.25l-1.8-.53-.53 1.76zm1.05 3.83c.88.27 1.4.1 1.59-.5.1-.33.06-.59-.1-.8-.16-.2-.46-.38-.9-.5l-2.06-.62-.54 1.83 2 .6zm8.7 4.64a5.3 5.3 0 0 1-2.17-1.32 4.25 4.25 0 0 1-1-4.4 4.25 4.25 0 0 1 3.42-2.94 5.3 5.3 0 0 1 2.51.24c.87.28 1.56.7 2.08 1.28.53.57.83 1.24.9 2l-2.16.39a2.12 2.12 0 0 0-1.47-1.73c-.62-.2-1.2-.17-1.73.1-.54.27-.93.76-1.16 1.46-.23.7-.2 1.31.07 1.85s.71.91 1.33 1.12c.81.26 1.55.09 2.21-.52l1.5 1.6c-.5.56-1.13.9-1.9 1.06-.76.15-1.57.09-2.43-.2zm14.3-.05c0 .03-.09.24-.25.63l-6.2-1.97c-.05.54.09 1.03.4 1.45.33.43.8.74 1.42.94a2.89 2.89 0 0 0 2.31-.14l.83 1.77c-1.05.64-2.32.73-3.8.26a5.62 5.62 0 0 1-2.29-1.33 4.16 4.16 0 0 1-1.05-4.38 4.4 4.4 0 0 1 1.26-2 4.2 4.2 0 0 1 2.05-1c.78-.16 1.58-.1 2.4.16.8.25 1.48.66 2.02 1.21.54.55.9 1.21 1.06 1.97.17.77.11 1.58-.16 2.43zm-3.47-3.8a2.15 2.15 0 0 0-1.5.02c-.47.19-.82.54-1.07 1.04l4.04 1.28c.08-.54-.01-1.03-.28-1.45a2.1 2.1 0 0 0-1.2-.9zm17.42 8.03l-1.18-.24-.65 3.2-2.41-.5.65-3.19-1.18-.24-2.43 2.84-2.89-.59 3.53-3.82-1.63-4.57 2.58.52 1.2 3.66 1.21.24.67-3.28 2.41.5-.66 3.27 1.2.24 2.54-2.9 2.58.53-3.28 3.58 1.78 4.9-2.9-.6-1.14-3.55zm17.21-1.79l-2.91-.07-.15 6.56-2.48-.05.15-6.56-2.91-.07.05-2.05 8.3.2-.05 2.04zm3.75-2.54c1.32-.11 2.37.11 3.14.68.77.57 1.2 1.5 1.32 2.77l.42 4.9-2.32.2-.1-1.07c-.4.84-1.23 1.31-2.5 1.42-.67.06-1.25 0-1.75-.18s-.9-.46-1.19-.83c-.29-.37-.45-.8-.5-1.3-.07-.8.18-1.45.74-1.96s1.47-.82 2.72-.93l1.98-.17c-.05-.55-.25-.95-.6-1.21-.36-.27-.87-.37-1.53-.31a4.34 4.34 0 0 0-2.4 1.01l-1.04-1.66a5.4 5.4 0 0 1 1.61-.91c.64-.24 1.3-.39 2-.45zm.43 7.18c.42-.04.8-.17 1.1-.4.32-.22.53-.53.63-.93l-.08-.87-1.7.14c-1.02.1-1.5.47-1.44 1.14a.9.9 0 0 0 .44.73c.26.16.61.22 1.05.19zm9.66-3.1l-1.27.25.65 3.2-2.44.5-1.71-8.44 2.44-.5.67 3.28 1.31-.27 1.63-3.74 2.6-.52-2.13 4.64 4.05 3.75-2.89.59-2.9-2.75zm4.38-6.42l2.36-.74 1.54 4.88 2.46-6.14 2.18-.7 2.6 8.22-2.37.74-1.55-4.88-2.44 6.14-2.2.7-2.58-8.22zm14.27 4.53c-.4.16-.8.15-1.2-.02a1.52 1.52 0 0 1-.81-.88c-.17-.43-.17-.83.01-1.2.18-.37.47-.64.88-.8.4-.15.8-.16 1.18 0 .38.15.65.45.82.87a1.52 1.52 0 0 1-.88 2.03zm3.9-1.59c-.4.17-.8.18-1.2.02-.38-.16-.67-.44-.84-.85a1.46 1.46 0 0 1-.02-1.2c.16-.38.44-.65.85-.82.4-.18.8-.19 1.18-.05.38.15.67.43.85.85a1.52 1.52 0 0 1-.82 2.05zm3.83-1.69a1.52 1.52 0 0 1-2.06-.78c-.2-.41-.22-.81-.06-1.2.15-.37.43-.66.82-.84.4-.18.8-.2 1.18-.07.4.13.68.4.87.82a1.52 1.52 0 0 1-.75 2.07z" fill-rule="nonzero"/>
</symbol></svg>