<?xml version="1.0" encoding="UTF-8"?><!DOCTYPE svg PUBLIC "-//W3C//DTD SVG 1.1//EN" "http://www.w3.org/Graphics/SVG/1.1/DTD/svg11.dtd"><svg xmlns="http://www.w3.org/2000/svg"><defs>
<lineargradient id="paint0_linear" x1="0" y1="6.26855" x2="79.0863" y2="11.5982" gradientunits="userSpaceOnUse">
<stop stop-color="#00C9E4"/>
<stop offset="1" stop-color="#2035F0"/>
</lineargradient>
<clippath id="clip0">
<rect width="75.4286" height="86.5714" transform="translate(0 0.857422)"/>
</clippath>

<lineargradient id="paint0_linear" x1="38.2856" y1="6.26855" x2="38.2856" y2="82.0186" gradientunits="userSpaceOnUse">
<stop stop-color="#6100FF"/>
<stop offset="0.375" stop-color="#C10CC5"/>
<stop offset="0.848958" stop-color="#121898"/>
</lineargradient>
<clippath id="clip0">
<rect width="75.4286" height="86.5714" transform="translate(0.571289 0.857422)"/>
</clippath>

<lineargradient id="paint0_linear" x1="0.428711" y1="1.42871" x2="84.0053" y2="7.08497" gradientunits="userSpaceOnUse">
<stop stop-color="#FFD646"/>
<stop offset="1" stop-color="#FF2C0F"/>
</lineargradient>
<clippath id="clip0">
<rect width="79.7143" height="82.2857" transform="translate(0.428711 0.142578)"/>
</clippath>

<lineargradient id="paint0_linear" x1="37.8574" y1="5.41113" x2="37.8574" y2="81.1611" gradientunits="userSpaceOnUse">
<stop stop-color="#EBFF06"/>
<stop offset="0.625" stop-color="#2BEF0B"/>
<stop offset="0.880208" stop-color="#23A60E"/>
</lineargradient>
<clippath id="clip0">
<rect width="75.4286" height="86.5714" transform="translate(0.143066)"/>
</clippath>
</defs><symbol id="icon-Slogan-end" viewBox="0 0 187 30">
  <g fill-rule="evenodd">
    <path d="M2 17.32c78.76-23.52 100.82 35.32 184.5 0" stroke-opacity=".3"/>
    <path d="M10.5.61l2.74 10.86-2.5.63-2.22-8.8-4.9 1.24 2.23 8.8-2.5.64L.6 3.12l9.9-2.5zm8.9.9a4.39 4.39 0 0 1 2.24.2c.7.26 1.3.69 1.77 1.29.47.6.78 1.33.92 2.2.14.88.08 1.68-.18 2.4a3.96 3.96 0 0 1-1.28 1.77c-.59.47-1.28.77-2.06.9-1.09.17-2-.03-2.73-.62l.64 3.97-2.46.4-1.87-11.57 2.35-.38.16.98c.5-.83 1.32-1.35 2.5-1.54zm.65 6.8c.63-.1 1.12-.4 1.45-.89.34-.49.45-1.1.34-1.81a2.42 2.42 0 0 0-.89-1.62 2.08 2.08 0 0 0-1.66-.38c-.63.1-1.11.4-1.45.89-.34.49-.45 1.1-.33 1.8.11.72.4 1.26.88 1.62.48.37 1.03.5 1.66.4zm6.12-7.6l2.48-.17.34 5.1L32.83.27 35.1.1l.58 8.59-2.47.17-.35-5.11-3.82 5.39-2.3.15-.58-8.58zM50.9.6l-.57 8.6-2.49-.17.21-3.2a5.3 5.3 0 0 1-2.43.4c-1.16-.08-2.02-.4-2.57-.97-.56-.56-.8-1.4-.73-2.5l.18-2.7 2.49.16-.17 2.54c-.03.52.08.9.34 1.16.25.25.63.4 1.15.42.64.05 1.27-.05 1.86-.29l.24-3.6 2.49.16zm5.78 9.57a5.16 5.16 0 0 1-2.33-.92 4.22 4.22 0 0 1-1.7-4.16 4.22 4.22 0 0 1 2.84-3.48c.78-.27 1.61-.34 2.5-.2.9.13 1.68.44 2.33.92A4.24 4.24 0 0 1 62 6.5a4.24 4.24 0 0 1-2.84 3.48c-.76.27-1.6.34-2.49.2zm.3-2.02c.64.1 1.19-.04 1.66-.4.47-.37.76-.92.87-1.63.1-.72-.01-1.32-.35-1.81a2.08 2.08 0 0 0-1.47-.88 2.1 2.1 0 0 0-1.66.4c-.48.37-.77.92-.87 1.63-.11.72 0 1.32.35 1.81.35.5.84.78 1.47.88zm14.25 4.82l1.15-5.03-3.48 3.64-1.03-.24-1.47-4.79-1.16 5.04-2.2-.5 1.93-8.4 2.54.59 1.57 5.47 3.97-4.2 2.27.52-1.9 8.4-2.2-.5zm15.12-4.92l-6.18 7.76a4.5 4.5 0 0 1-1.98 1.63c-.66.24-1.4.24-2.19.02-.43-.12-.84-.3-1.22-.55a2.93 2.93 0 0 1-.88-.84l1.35-1.47a2.14 2.14 0 0 0 1.22.9c.32.09.61.08.86-.02s.51-.31.78-.64l.05-.07-1.27-9.35 2.48.69.77 6.27 3.9-4.97 2.31.64zm11.96 5.53l-2.8-.8-1.8 6.32-2.39-.68 1.8-6.31-2.8-.8.56-1.97 7.99 2.27-.56 1.97zm10.07.47l-6.04 7.88a4.5 4.5 0 0 1-1.93 1.67c-.67.25-1.4.27-2.2.07a4.37 4.37 0 0 1-1.23-.54 2.93 2.93 0 0 1-.9-.82l1.33-1.5a2.14 2.14 0 0 0 1.23.88c.33.09.62.08.87-.03.24-.1.5-.33.76-.66l.05-.07-1.46-9.32 2.5.64.89 6.26 3.8-5.06 2.33.6zm7.51 3.61l-2.85-.58-1.32 6.42-2.43-.5 1.32-6.42-2.85-.59.4-2 8.14 1.66-.4 2.01zm8.57 4.38l-1.3-.12-.3 3.24-2.5-.24.84-8.56 2.48.24-.32 3.32 1.34.13 2.64-3.1 2.65.26-3.4 3.81 2.78 4.77-2.93-.28-1.98-3.47zm9.9 3.88c-.9 0-1.72-.2-2.44-.58a4.22 4.22 0 0 1-2.27-3.88 4.22 4.22 0 0 1 2.32-3.85 5.16 5.16 0 0 1 2.44-.55c.9 0 1.71.2 2.42.58a4.24 4.24 0 0 1 2.27 3.87 4.24 4.24 0 0 1-2.3 3.85c-.72.38-1.53.57-2.44.56zm.01-2.05c.64 0 1.17-.2 1.58-.64.41-.43.62-1 .63-1.73 0-.73-.2-1.3-.61-1.74-.41-.43-.93-.65-1.57-.66a2.1 2.1 0 0 0-1.6.64c-.41.43-.62 1.01-.62 1.74 0 .72.2 1.3.61 1.74.41.43.94.65 1.58.65zm12.76-5.27l-2.9.23.53 6.54-2.47.2-.53-6.54-2.9.24-.17-2.04 8.28-.68.16 2.05zm.41-2.16l2.45-.42.86 5.05 3.27-5.75 2.26-.38 1.44 8.48-2.45.42-.85-5.05-3.26 5.75-2.28.38-1.44-8.48zM163 18.83l-1.25.32.82 3.16-2.42.63L158 14.6l2.41-.62.84 3.24 1.3-.34 1.42-3.82 2.58-.67-1.88 4.75 4.23 3.54-2.85.73-3.05-2.58zm4.3-6.7l2.35-.8 1.65 4.86 2.32-6.2 2.17-.74 2.76 8.15-2.34.8-1.65-4.85-2.3 6.2-2.19.74-2.77-8.15zm14.52-.15a2.37 2.37 0 0 1-.17-1.42c.1-.43.28-.93.56-1.52.2-.43.34-.78.41-1.04a1.2 1.2 0 0 0-.05-.78 1.1 1.1 0 0 0-.79-.7c-.38-.09-.8-.03-1.3.16a2.8 2.8 0 0 0-1.7 1.98l-2.21-.32c.15-.8.51-1.52 1.08-2.15a6.1 6.1 0 0 1 2.3-1.55 5.02 5.02 0 0 1 3.03-.39c.88.2 1.5.73 1.85 1.6a2.86 2.86 0 0 1 .06 2.12c-.1.29-.25.64-.44 1.04-.24.47-.4.86-.47 1.15-.08.29-.05.6.08.9l-2.24.92zm2.65 3.26c-.4.16-.8.17-1.18.02a1.38 1.38 0 0 1-.8-.79c-.15-.37-.14-.74.02-1.1.17-.36.45-.63.87-.8.41-.17.8-.18 1.18-.04.36.14.63.4.78.78.15.37.15.75-.02 1.12-.16.37-.45.64-.85.8z" fill-rule="nonzero"/>
  </g>
</symbol><symbol id="icon-Slogan-start" viewBox="0 0 161 27">
  <path d="M7.69 13.44c-1.1.31-2.16.36-3.18.14A5.55 5.55 0 0 1 .25 9.56 5.55 5.55 0 0 1 1.7 3.9 6.47 6.47 0 0 1 4.49 2.3a6.53 6.53 0 0 1 2.67-.25c.85.11 1.62.4 2.3.87L8.3 4.87c-.98-.63-2-.8-3.07-.48-.67.2-1.22.51-1.66.96-.44.44-.73.96-.87 1.57-.14.6-.11 1.25.08 1.91.2.67.51 1.22.96 1.66.44.43.96.72 1.57.86.6.14 1.25.12 1.91-.07 1.08-.32 1.86-1 2.34-2.06l2.02 1a5.19 5.19 0 0 1-1.49 1.99c-.66.55-1.46.96-2.4 1.23zM19.17 3.9l-2.86.56 1.25 6.44-2.43.47-1.25-6.44-2.86.55-.39-2.01 8.15-1.58.4 2.01zm6.25 6.13c-.9.09-1.73-.03-2.48-.34a4.22 4.22 0 0 1-2.65-3.63A4.22 4.22 0 0 1 22.22 2c.68-.45 1.48-.7 2.38-.8.9-.08 1.73.04 2.47.35a4.24 4.24 0 0 1 2.64 3.63 4.24 4.24 0 0 1-1.92 4.06c-.68.45-1.47.7-2.37.8zM25.22 8a2.08 2.08 0 0 0 1.52-.79c.37-.47.52-1.06.45-1.78a2.42 2.42 0 0 0-.77-1.67c-.45-.4-1-.56-1.63-.5a2.1 2.1 0 0 0-1.52.79 2.4 2.4 0 0 0-.46 1.78c.07.73.33 1.28.78 1.68.46.39 1 .55 1.64.5zm15.39-6.89l-.25 8.6-2.5-.06.2-6.56-3.59-.1-.19 6.55-2.48-.07.25-8.6 8.56.24zm3.01 9a1.52 1.52 0 0 1-1.36-1.73c.05-.45.24-.8.57-1.05.33-.25.71-.35 1.15-.3.43.05.78.23 1.04.55.27.31.38.7.32 1.15a1.52 1.52 0 0 1-1.72 1.39zM53.84.27l2.52.52-2.28 10.97-2.52-.53L53.84.26zm14.73 10.78c.87.61 1.16 1.41.87 2.4a2.1 2.1 0 0 1-1.36 1.47c-.68.25-1.58.2-2.7-.13l-4.4-1.31 2.46-8.25 4.22 1.25c1.03.31 1.78.74 2.25 1.28.47.55.6 1.16.4 1.84a1.97 1.97 0 0 1-1.74 1.45zm-3.95-1.78l1.81.54c.84.25 1.35.08 1.52-.52.18-.58-.15-1-1-1.25l-1.8-.53-.53 1.76zm1.05 3.83c.88.27 1.4.1 1.59-.5.1-.33.06-.59-.1-.8-.16-.2-.46-.38-.9-.5l-2.06-.62-.54 1.83 2 .6zm8.7 4.64a5.3 5.3 0 0 1-2.17-1.32 4.25 4.25 0 0 1-1-4.4 4.25 4.25 0 0 1 3.42-2.94 5.3 5.3 0 0 1 2.51.24c.87.28 1.56.7 2.08 1.28.53.57.83 1.24.9 2l-2.16.39a2.12 2.12 0 0 0-1.47-1.73c-.62-.2-1.2-.17-1.73.1-.54.27-.93.76-1.16 1.46-.23.7-.2 1.31.07 1.85s.71.91 1.33 1.12c.81.26 1.55.09 2.21-.52l1.5 1.6c-.5.56-1.13.9-1.9 1.06-.76.15-1.57.09-2.43-.2zm14.3-.05c0 .03-.09.24-.25.63l-6.2-1.97c-.05.54.09 1.03.4 1.45.33.43.8.74 1.42.94a2.89 2.89 0 0 0 2.31-.14l.83 1.77c-1.05.64-2.32.73-3.8.26a5.62 5.62 0 0 1-2.29-1.33 4.16 4.16 0 0 1-1.05-4.38 4.4 4.4 0 0 1 1.26-2 4.2 4.2 0 0 1 2.05-1c.78-.16 1.58-.1 2.4.16.8.25 1.48.66 2.02 1.21.54.55.9 1.21 1.06 1.97.17.77.11 1.58-.16 2.43zm-3.47-3.8a2.15 2.15 0 0 0-1.5.02c-.47.19-.82.54-1.07 1.04l4.04 1.28c.08-.54-.01-1.03-.28-1.45a2.1 2.1 0 0 0-1.2-.9zm17.42 8.03l-1.18-.24-.65 3.2-2.41-.5.65-3.19-1.18-.24-2.43 2.84-2.89-.59 3.53-3.82-1.63-4.57 2.58.52 1.2 3.66 1.21.24.67-3.28 2.41.5-.66 3.27 1.2.24 2.54-2.9 2.58.53-3.28 3.58 1.78 4.9-2.9-.6-1.14-3.55zm17.21-1.79l-2.91-.07-.15 6.56-2.48-.05.15-6.56-2.91-.07.05-2.05 8.3.2-.05 2.04zm3.75-2.54c1.32-.11 2.37.11 3.14.68.77.57 1.2 1.5 1.32 2.77l.42 4.9-2.32.2-.1-1.07c-.4.84-1.23 1.31-2.5 1.42-.67.06-1.25 0-1.75-.18s-.9-.46-1.19-.83c-.29-.37-.45-.8-.5-1.3-.07-.8.18-1.45.74-1.96s1.47-.82 2.72-.93l1.98-.17c-.05-.55-.25-.95-.6-1.21-.36-.27-.87-.37-1.53-.31a4.34 4.34 0 0 0-2.4 1.01l-1.04-1.66a5.4 5.4 0 0 1 1.61-.91c.64-.24 1.3-.39 2-.45zm.43 7.18c.42-.04.8-.17 1.1-.4.32-.22.53-.53.63-.93l-.08-.87-1.7.14c-1.02.1-1.5.47-1.44 1.14a.9.9 0 0 0 .44.73c.26.16.61.22 1.05.19zm9.66-3.1l-1.27.25.65 3.2-2.44.5-1.71-8.44 2.44-.5.67 3.28 1.31-.27 1.63-3.74 2.6-.52-2.13 4.64 4.05 3.75-2.89.59-2.9-2.75zm4.38-6.42l2.36-.74 1.54 4.88 2.46-6.14 2.18-.7 2.6 8.22-2.37.74-1.55-4.88-2.44 6.14-2.2.7-2.58-8.22zm14.27 4.53c-.4.16-.8.15-1.2-.02a1.52 1.52 0 0 1-.81-.88c-.17-.43-.17-.83.01-1.2.18-.37.47-.64.88-.8.4-.15.8-.16 1.18 0 .38.15.65.45.82.87a1.52 1.52 0 0 1-.88 2.03zm3.9-1.59c-.4.17-.8.18-1.2.02-.38-.16-.67-.44-.84-.85a1.46 1.46 0 0 1-.02-1.2c.16-.38.44-.65.85-.82.4-.18.8-.19 1.18-.05.38.15.67.43.85.85a1.52 1.52 0 0 1-.82 2.05zm3.83-1.69a1.52 1.52 0 0 1-2.06-.78c-.2-.41-.22-.81-.06-1.2.15-.37.43-.66.82-.84.4-.18.8-.2 1.18-.07.4.13.68.4.87.82a1.52 1.52 0 0 1-.75 2.07z" fill-rule="nonzero"/>
</symbol><symbol id="icon-facebook" viewBox="0 0 76 88">
<g clip-path="url(#clip0)">
<path d="M75.4286 14.3846V73.9025C75.4286 78.3832 71.8087 82.0186 67.3469 82.0186H52.9852V52.0567H63.1883L64.6531 40.6266H52.9852V33.3221C52.9852 30.0081 53.8944 27.7592 58.6255 27.7592H64.6531V17.5465C63.6092 17.4112 60.0398 17.09 55.8643 17.09C47.1765 17.09 41.2163 22.4162 41.2163 32.2062V40.6435H30.9796V52.0736H41.2332V82.0186H8.08163C3.6199 82.0186 0 78.3832 0 73.9025V14.3846C0 9.90388 3.6199 6.26855 8.08163 6.26855H67.3469C71.8087 6.26855 75.4286 9.90388 75.4286 14.3846Z"/>
</g>

</symbol><symbol id="icon-mail" viewBox="0 0 76 88">
<g clip-path="url(#clip0)">
<path d="M67.9182 6.26855H8.65292C4.1895 6.26855 0.571289 9.90219 0.571289 14.3846V73.9025C0.571289 78.3849 4.1895 82.0186 8.65292 82.0186H67.9182C72.3817 82.0186 75.9999 78.3849 75.9999 73.9025V14.3846C75.9999 9.90219 72.3817 6.26855 67.9182 6.26855ZM30.5604 45.1756C15.2915 34.047 15.4471 34.0189 11.3468 30.8141V26.5587C11.3468 24.3175 13.1559 22.5007 15.3876 22.5007H61.1835C63.4152 22.5007 65.2243 24.3175 65.2243 26.5587V30.8141C61.1211 34.0215 61.2788 34.0477 46.0108 45.1758C44.2429 46.4702 40.7254 49.5923 38.2856 49.5541C35.8437 49.591 32.3309 46.4722 30.5604 45.1756ZM65.2243 37.6803V61.7284C65.2243 63.9696 63.4152 65.7864 61.1835 65.7864H15.3876C13.1559 65.7864 11.3468 63.9696 11.3468 61.7284V37.6803C13.6969 39.5054 16.9583 41.9473 27.3927 49.5524C29.7771 51.3009 33.7865 54.9876 38.2851 54.9648C42.812 54.9875 46.878 51.238 49.1818 49.5499C59.6135 41.947 62.8743 39.5052 65.2243 37.6803Z"/>
</g>

</symbol><symbol id="icon-telegram" viewBox="0 0 81 83">
<g clip-path="url(#clip0)">
<path d="M40.2859 1.42871C18.268 1.42871 0.428711 19.268 0.428711 41.2859C0.428711 63.3037 18.268 81.143 40.2859 81.143C62.3037 81.143 80.143 63.3037 80.143 41.2859C80.143 19.268 62.3037 1.42871 40.2859 1.42871ZM59.8609 28.7341L53.3198 59.5591C52.8376 61.7448 51.5359 62.2751 49.7198 61.2466L39.7555 53.9019L34.9501 58.5305C34.4198 59.0609 33.9698 59.5109 32.9412 59.5109L33.6484 49.3698L52.1144 32.6876C52.918 31.9805 51.9376 31.5787 50.8769 32.2859L28.0555 46.6537L18.2198 43.5841C16.0823 42.9091 16.0341 41.4466 18.6698 40.418L57.0966 25.6001C58.8805 24.9573 60.4394 26.0341 59.8609 28.7341Z"/>
</g>

</symbol><symbol id="icon-twitter" viewBox="0 0 76 87">
<g clip-path="url(#clip0)">
<path d="M67.49 5.41113H8.2247C3.76296 5.41113 0.143066 9.04646 0.143066 13.5272V73.0451C0.143066 77.5258 3.76296 81.1611 8.2247 81.1611H67.49C71.9517 81.1611 75.5716 77.5258 75.5716 73.0451V13.5272C75.5716 9.04646 71.9517 5.41113 67.49 5.41113ZM59.2568 32.2618C59.2905 32.7352 59.2905 33.2256 59.2905 33.699C59.2905 48.3587 48.1783 65.2502 27.8732 65.2502C21.6099 65.2502 15.8012 63.4241 10.9186 60.2792C11.8109 60.3806 12.6696 60.4144 13.5788 60.4144C18.7477 60.4144 23.4956 58.6559 27.2839 55.68C22.4349 55.5786 18.3604 52.3829 16.963 47.9867C18.6635 48.2403 20.1956 48.2403 21.9466 47.7838C16.8956 46.7524 13.1074 42.2885 13.1074 36.8947V36.7595C14.5721 37.588 16.2895 38.0952 18.091 38.1629C16.5764 37.1511 15.3348 35.7785 14.477 34.1677C13.6191 32.5567 13.1717 30.7576 13.1747 28.9308C13.1747 26.868 13.7135 24.9742 14.6732 23.3341C20.1114 30.0637 28.2773 34.4599 37.4364 34.9333C35.8706 27.4091 41.4773 21.3051 48.2119 21.3051C51.3941 21.3051 54.2563 22.6409 56.2767 24.8052C58.7686 24.3317 61.1594 23.4018 63.2808 22.1336C62.4558 24.7037 60.7216 26.868 58.4318 28.2376C60.6543 28.0009 62.8094 27.3753 64.7961 26.5129C63.2977 28.7279 61.4119 30.6893 59.2568 32.2618Z"/>
</g>

</symbol></svg>