<svg width="214" height="36" viewBox="0 0 214 36" fill="none" xmlns="http://www.w3.org/2000/svg">
<path d="M13.9 20.9H8.3V35H0.25V-2.38419e-06H8.3V14.15H14.1L23.3 -2.38419e-06H31.85L20.4 16.9L32.2 35H23L13.9 20.9ZM48.1039 35.4C45.2706 35.4 42.7206 34.8167 40.4539 33.65C38.2206 32.45 36.4706 30.8 35.2039 28.7C33.9372 26.6 33.3039 24.2167 33.3039 21.55C33.3039 18.8833 33.9372 16.5 35.2039 14.4C36.4706 12.3 38.2206 10.6667 40.4539 9.5C42.7206 8.3 45.2706 7.7 48.1039 7.7C50.9372 7.7 53.4706 8.3 55.7039 9.5C57.9372 10.6667 59.6872 12.3 60.9539 14.4C62.2206 16.5 62.8539 18.8833 62.8539 21.55C62.8539 24.2167 62.2206 26.6 60.9539 28.7C59.6872 30.8 57.9372 32.45 55.7039 33.65C53.4706 34.8167 50.9372 35.4 48.1039 35.4ZM48.1039 29C50.1039 29 51.7372 28.3333 53.0039 27C54.3039 25.6333 54.9539 23.8167 54.9539 21.55C54.9539 19.2833 54.3039 17.4833 53.0039 16.15C51.7372 14.7833 50.1039 14.1 48.1039 14.1C46.1039 14.1 44.4539 14.7833 43.1539 16.15C41.8539 17.4833 41.2039 19.2833 41.2039 21.55C41.2039 23.8167 41.8539 25.6333 43.1539 27C44.4539 28.3333 46.1039 29 48.1039 29ZM90.3422 14.5H81.2422V35H73.4922V14.5H64.3922V8.1H90.3422V14.5ZM117.844 14.5H108.744V35H100.994V14.5H91.8941V8.1H117.844V14.5ZM132.952 7.7C137.119 7.7 140.319 8.7 142.552 10.7C144.785 12.6667 145.902 15.65 145.902 19.65V35H138.602V31.65C137.135 34.15 134.402 35.4 130.402 35.4C128.335 35.4 126.535 35.05 125.002 34.35C123.502 33.65 122.352 32.6833 121.552 31.45C120.752 30.2167 120.352 28.8167 120.352 27.25C120.352 24.75 121.285 22.7833 123.152 21.35C125.052 19.9167 127.969 19.2 131.902 19.2H138.102C138.102 17.5 137.585 16.2 136.552 15.3C135.519 14.3667 133.969 13.9 131.902 13.9C130.469 13.9 129.052 14.1333 127.652 14.6C126.285 15.0333 125.119 15.6333 124.152 16.4L121.352 10.95C122.819 9.91667 124.569 9.11667 126.602 8.55C128.669 7.98333 130.785 7.7 132.952 7.7ZM132.352 30.15C133.685 30.15 134.869 29.85 135.902 29.25C136.935 28.6167 137.669 27.7 138.102 26.5V23.75H132.752C129.552 23.75 127.952 24.8 127.952 26.9C127.952 27.9 128.335 28.7 129.102 29.3C129.902 29.8667 130.985 30.15 132.352 30.15ZM153.178 8.1H160.928V18.6H172.628V8.1H180.428V35H172.628V24.95H160.928V35H153.178V8.1ZM201.195 35.4C198.328 35.4 195.745 34.8167 193.445 33.65C191.178 32.45 189.395 30.8 188.095 28.7C186.828 26.6 186.195 24.2167 186.195 21.55C186.195 18.8833 186.828 16.5 188.095 14.4C189.395 12.3 191.178 10.6667 193.445 9.5C195.745 8.3 198.328 7.7 201.195 7.7C204.028 7.7 206.495 8.3 208.595 9.5C210.728 10.6667 212.278 12.35 213.245 14.55L207.195 17.8C205.795 15.3333 203.778 14.1 201.145 14.1C199.111 14.1 197.428 14.7667 196.095 16.1C194.761 17.4333 194.095 19.25 194.095 21.55C194.095 23.85 194.761 25.6667 196.095 27C197.428 28.3333 199.111 29 201.145 29C203.811 29 205.828 27.7667 207.195 25.3L213.245 28.6C212.278 30.7333 210.728 32.4 208.595 33.6C206.495 34.8 204.028 35.4 201.195 35.4Z" fill="url(#paint0_linear)"/>
<defs>
<linearGradient id="paint0_linear" x1="-4" y1="-13" x2="213.804" y2="39.9207" gradientUnits="userSpaceOnUse">
<stop stop-color="#00C9E4"/>
<stop offset="1" stop-color="#2035F0"/>
</linearGradient>
</defs>
</svg>
