<svg width="187" height="30" xmlns="http://www.w3.org/2000/svg">
  <g fill="none" fill-rule="evenodd">
    <path d="M2 17.32c78.76-23.52 100.82 35.32 184.5 0" stroke-opacity=".3" stroke="#000"/>
    <path d="M10.5.61l2.74 10.86-2.5.63-2.22-8.8-4.9 1.24 2.23 8.8-2.5.64L.6 3.12l9.9-2.5zm8.9.9a4.39 4.39 0 0 1 2.24.2c.7.26 1.3.69 1.77 1.29.47.6.78 1.33.92 2.2.14.88.08 1.68-.18 2.4a3.96 3.96 0 0 1-1.28 1.77c-.59.47-1.28.77-2.06.9-1.09.17-2-.03-2.73-.62l.64 3.97-2.46.4-1.87-11.57 2.35-.38.16.98c.5-.83 1.32-1.35 2.5-1.54zm.65 6.8c.63-.1 1.12-.4 1.45-.89.34-.49.45-1.1.34-1.81a2.42 2.42 0 0 0-.89-1.62 2.08 2.08 0 0 0-1.66-.38c-.63.1-1.11.4-1.45.89-.34.49-.45 1.1-.33 1.8.11.72.4 1.26.88 1.62.48.37 1.03.5 1.66.4zm6.12-7.6l2.48-.17.34 5.1L32.83.27 35.1.1l.58 8.59-2.47.17-.35-5.11-3.82 5.39-2.3.15-.58-8.58zM50.9.6l-.57 8.6-2.49-.17.21-3.2a5.3 5.3 0 0 1-2.43.4c-1.16-.08-2.02-.4-2.57-.97-.56-.56-.8-1.4-.73-2.5l.18-2.7 2.49.16-.17 2.54c-.03.52.08.9.34 1.16.25.25.63.4 1.15.42.64.05 1.27-.05 1.86-.29l.24-3.6 2.49.16zm5.78 9.57a5.16 5.16 0 0 1-2.33-.92 4.22 4.22 0 0 1-1.7-4.16 4.22 4.22 0 0 1 2.84-3.48c.78-.27 1.61-.34 2.5-.2.9.13 1.68.44 2.33.92A4.24 4.24 0 0 1 62 6.5a4.24 4.24 0 0 1-2.84 3.48c-.76.27-1.6.34-2.49.2zm.3-2.02c.64.1 1.19-.04 1.66-.4.47-.37.76-.92.87-1.63.1-.72-.01-1.32-.35-1.81a2.08 2.08 0 0 0-1.47-.88 2.1 2.1 0 0 0-1.66.4c-.48.37-.77.92-.87 1.63-.11.72 0 1.32.35 1.81.35.5.84.78 1.47.88zm14.25 4.82l1.15-5.03-3.48 3.64-1.03-.24-1.47-4.79-1.16 5.04-2.2-.5 1.93-8.4 2.54.59 1.57 5.47 3.97-4.2 2.27.52-1.9 8.4-2.2-.5zm15.12-4.92l-6.18 7.76a4.5 4.5 0 0 1-1.98 1.63c-.66.24-1.4.24-2.19.02-.43-.12-.84-.3-1.22-.55a2.93 2.93 0 0 1-.88-.84l1.35-1.47a2.14 2.14 0 0 0 1.22.9c.32.09.61.08.86-.02s.51-.31.78-.64l.05-.07-1.27-9.35 2.48.69.77 6.27 3.9-4.97 2.31.64zm11.96 5.53l-2.8-.8-1.8 6.32-2.39-.68 1.8-6.31-2.8-.8.56-1.97 7.99 2.27-.56 1.97zm10.07.47l-6.04 7.88a4.5 4.5 0 0 1-1.93 1.67c-.67.25-1.4.27-2.2.07a4.37 4.37 0 0 1-1.23-.54 2.93 2.93 0 0 1-.9-.82l1.33-1.5a2.14 2.14 0 0 0 1.23.88c.33.09.62.08.87-.03.24-.1.5-.33.76-.66l.05-.07-1.46-9.32 2.5.64.89 6.26 3.8-5.06 2.33.6zm7.51 3.61l-2.85-.58-1.32 6.42-2.43-.5 1.32-6.42-2.85-.59.4-2 8.14 1.66-.4 2.01zm8.57 4.38l-1.3-.12-.3 3.24-2.5-.24.84-8.56 2.48.24-.32 3.32 1.34.13 2.64-3.1 2.65.26-3.4 3.81 2.78 4.77-2.93-.28-1.98-3.47zm9.9 3.88c-.9 0-1.72-.2-2.44-.58a4.22 4.22 0 0 1-2.27-3.88 4.22 4.22 0 0 1 2.32-3.85 5.16 5.16 0 0 1 2.44-.55c.9 0 1.71.2 2.42.58a4.24 4.24 0 0 1 2.27 3.87 4.24 4.24 0 0 1-2.3 3.85c-.72.38-1.53.57-2.44.56zm.01-2.05c.64 0 1.17-.2 1.58-.64.41-.43.62-1 .63-1.73 0-.73-.2-1.3-.61-1.74-.41-.43-.93-.65-1.57-.66a2.1 2.1 0 0 0-1.6.64c-.41.43-.62 1.01-.62 1.74 0 .72.2 1.3.61 1.74.41.43.94.65 1.58.65zm12.76-5.27l-2.9.23.53 6.54-2.47.2-.53-6.54-2.9.24-.17-2.04 8.28-.68.16 2.05zm.41-2.16l2.45-.42.86 5.05 3.27-5.75 2.26-.38 1.44 8.48-2.45.42-.85-5.05-3.26 5.75-2.28.38-1.44-8.48zM163 18.83l-1.25.32.82 3.16-2.42.63L158 14.6l2.41-.62.84 3.24 1.3-.34 1.42-3.82 2.58-.67-1.88 4.75 4.23 3.54-2.85.73-3.05-2.58zm4.3-6.7l2.35-.8 1.65 4.86 2.32-6.2 2.17-.74 2.76 8.15-2.34.8-1.65-4.85-2.3 6.2-2.19.74-2.77-8.15zm14.52-.15a2.37 2.37 0 0 1-.17-1.42c.1-.43.28-.93.56-1.52.2-.43.34-.78.41-1.04a1.2 1.2 0 0 0-.05-.78 1.1 1.1 0 0 0-.79-.7c-.38-.09-.8-.03-1.3.16a2.8 2.8 0 0 0-1.7 1.98l-2.21-.32c.15-.8.51-1.52 1.08-2.15a6.1 6.1 0 0 1 2.3-1.55 5.02 5.02 0 0 1 3.03-.39c.88.2 1.5.73 1.85 1.6a2.86 2.86 0 0 1 .06 2.12c-.1.29-.25.64-.44 1.04-.24.47-.4.86-.47 1.15-.08.29-.05.6.08.9l-2.24.92zm2.65 3.26c-.4.16-.8.17-1.18.02a1.38 1.38 0 0 1-.8-.79c-.15-.37-.14-.74.02-1.1.17-.36.45-.63.87-.8.41-.17.8-.18 1.18-.04.36.14.63.4.78.78.15.37.15.75-.02 1.12-.16.37-.45.64-.85.8z" fill="#000" fill-rule="nonzero"/>
  </g>
</svg>

