<svg width="81" height="83" viewBox="0 0 81 83" fill="none" xmlns="http://www.w3.org/2000/svg">
<g clip-path="url(#clip0)">
<path d="M40.2859 1.42871C18.268 1.42871 0.428711 19.268 0.428711 41.2859C0.428711 63.3037 18.268 81.143 40.2859 81.143C62.3037 81.143 80.143 63.3037 80.143 41.2859C80.143 19.268 62.3037 1.42871 40.2859 1.42871ZM59.8609 28.7341L53.3198 59.5591C52.8376 61.7448 51.5359 62.2751 49.7198 61.2466L39.7555 53.9019L34.9501 58.5305C34.4198 59.0609 33.9698 59.5109 32.9412 59.5109L33.6484 49.3698L52.1144 32.6876C52.918 31.9805 51.9376 31.5787 50.8769 32.2859L28.0555 46.6537L18.2198 43.5841C16.0823 42.9091 16.0341 41.4466 18.6698 40.418L57.0966 25.6001C58.8805 24.9573 60.4394 26.0341 59.8609 28.7341Z" fill="url(#paint0_linear)"/>
</g>
<defs>
<linearGradient id="paint0_linear" x1="0.428711" y1="1.42871" x2="84.0053" y2="7.08497" gradientUnits="userSpaceOnUse">
<stop stop-color="#FFD646"/>
<stop offset="1" stop-color="#FF2C0F"/>
</linearGradient>
<clipPath id="clip0">
<rect width="79.7143" height="82.2857" fill="white" transform="translate(0.428711 0.142578)"/>
</clipPath>
</defs>
</svg>
