<svg width="76" height="87" viewBox="0 0 76 87" fill="none" xmlns="http://www.w3.org/2000/svg">
<g clip-path="url(#clip0)">
<path d="M67.49 5.41113H8.2247C3.76296 5.41113 0.143066 9.04646 0.143066 13.5272V73.0451C0.143066 77.5258 3.76296 81.1611 8.2247 81.1611H67.49C71.9517 81.1611 75.5716 77.5258 75.5716 73.0451V13.5272C75.5716 9.04646 71.9517 5.41113 67.49 5.41113ZM59.2568 32.2618C59.2905 32.7352 59.2905 33.2256 59.2905 33.699C59.2905 48.3587 48.1783 65.2502 27.8732 65.2502C21.6099 65.2502 15.8012 63.4241 10.9186 60.2792C11.8109 60.3806 12.6696 60.4144 13.5788 60.4144C18.7477 60.4144 23.4956 58.6559 27.2839 55.68C22.4349 55.5786 18.3604 52.3829 16.963 47.9867C18.6635 48.2403 20.1956 48.2403 21.9466 47.7838C16.8956 46.7524 13.1074 42.2885 13.1074 36.8947V36.7595C14.5721 37.588 16.2895 38.0952 18.091 38.1629C16.5764 37.1511 15.3348 35.7785 14.477 34.1677C13.6191 32.5567 13.1717 30.7576 13.1747 28.9308C13.1747 26.868 13.7135 24.9742 14.6732 23.3341C20.1114 30.0637 28.2773 34.4599 37.4364 34.9333C35.8706 27.4091 41.4773 21.3051 48.2119 21.3051C51.3941 21.3051 54.2563 22.6409 56.2767 24.8052C58.7686 24.3317 61.1594 23.4018 63.2808 22.1336C62.4558 24.7037 60.7216 26.868 58.4318 28.2376C60.6543 28.0009 62.8094 27.3753 64.7961 26.5129C63.2977 28.7279 61.4119 30.6893 59.2568 32.2618Z" fill="url(#paint0_linear)"/>
</g>
<defs>
<linearGradient id="paint0_linear" x1="37.8574" y1="5.41113" x2="37.8574" y2="81.1611" gradientUnits="userSpaceOnUse">
<stop stop-color="#EBFF06"/>
<stop offset="0.625" stop-color="#2BEF0B"/>
<stop offset="0.880208" stop-color="#23A60E"/>
</linearGradient>
<clipPath id="clip0">
<rect width="75.4286" height="86.5714" fill="white" transform="translate(0.143066)"/>
</clipPath>
</defs>
</svg>
