<svg xmlns="http://www.w3.org/2000/svg" viewBox="0 0 73 45" xmlns:xlink="http://www.w3.org/1999/xlink">
  <defs>
    <linearGradient id="b" x1="36%" x2="57.333%" y1="0%" y2="100%">
      <stop stop-color="#848484" stop-opacity=".5" offset="0%"/>
      <stop stop-opacity=".3" offset="100%"/>
    </linearGradient>
    <path id="a" d="M16.818 0H1.708C.105 0 .003 1.67.003 1.67v11.46c0 2.256 2.285 2.205 2.285 2.205v2.317c-.042 1.726 1.166 1.77 3.172.613l5.216-2.965h6.04c1.67 0 1.944-1.806 1.944-1.806V2.044C18.66.172 16.818 0 16.818 0zm-.546 12.915h-4.434c-1.637 0-2.694.682-2.694.682L4.32 16.482v-1.48c0-2.21-2.032-2.19-2.032-2.19V2.25h13.984v10.665z"/>
    <path id="c" d="M14.124 8.754H4.812v1.742h9.312z"/>
    <path id="d" d="M14.124 5.307H4.812v1.74h9.312z"/>
  </defs>
  <g fill="none" fill-rule="evenodd">
    <path fill="#221E20" d="M71.844 22.33c-1.097-3.927-4.76-7.497-13.666-7.497-7.354 0-10.91 1.4-11.98 2.336-.706.61-1.006 1-1.006 2.17v21.17c0 1.967 1.585 3.562 3.54 3.562h4.183c1.956 0 3.542-1.595 3.542-3.563V22c0-1.534 4.402-2.127 4.402 1.14 0 .947-.03 17.37-.03 17.37 0 1.968 1.582 3.563 3.54 3.563h4.18c1.956 0 3.542-1.593 3.542-3.56v-15.32c0-1.468-.18-2.597-.257-2.867zm-59.562-7.82c-8.707 0-11.497 2.695-11.91 3.414-.724 1.266.364 3.737 2.23 3.874 1.51.11 6.64-2.746 12.533-1.052 2.066.594 1.746 3.168 1.746 3.984 0 .817-.51 1.114-1.62 1.114S0 24.136 0 34.974c0 8.24 9.57 9.43 13.52 9.43 3.95 0 13.52.147 13.52-4.16v-16.33c0-4.652-4.72-9.403-14.754-9.403zm4.336 22.655c0 1.125-.693 2.18-2.81 2.18-1.604 0-2.99-1.43-2.99-4.605 0-2.844 1.35-4.605 2.99-4.605 1.934 0 2.81 1.21 2.81 2.02v5.01z"/>
    <g transform="translate(26.365)">
      <use fill="#EF4A5F" xlink:href="#a"/>
      <use fill="url(#b)" style="mix-blend-mode:overlay" xlink:href="#a"/>
    </g>
    <g transform="translate(26.365)">
      <use fill="#EF4A5F" xlink:href="#c"/>
      <use fill="url(#b)" style="mix-blend-mode:overlay" xlink:href="#c"/>
    </g>
    <g transform="translate(26.365)">
      <use fill="#EF4A5F" xlink:href="#d"/>
      <use fill="url(#b)" style="mix-blend-mode:overlay" xlink:href="#d"/>
    </g>
    <path fill="#221E20" d="M38.535 18.192c-1.317 0-2.028.323-2.028.323s-4.39 2.34-4.85 2.587c-1.185.632-1.125 1.732-1.125 1.732v17.684c0 1.968 1.586 3.563 3.542 3.563h4.18c1.957 0 3.543-1.59 3.543-3.56V20.03c0-1.03-.48-1.837-1.48-1.837h-1.782z"/>
  </g>
</svg>
