<svg xmlns="http://www.w3.org/2000/svg" xmlns:xlink="http://www.w3.org/1999/xlink" viewBox="0 0 118.03 135.7"><style>.skdu{fill:url(#er5we);}.adr3{fill:url(#ew4t);}.d38f{fill:url(#e4tw);}.ds9d{fill:#3fbfef;}.w34tr{fill:url(#adv);}.d89d6{fill:#fff;}</style><linearGradient id="er5we" x1="10.05" y1="9.55" x2="108.69" y2="134.47" gradientTransform="matrix(1, 0, 0, -1, 0, 138)" gradientUnits="userSpaceOnUse"><stop offset="0" stop-color="#ab63a7"/><stop offset="0.64" stop-color="#ca5595"/><stop offset="1" stop-color="#d64d8e"/></linearGradient><linearGradient id="ew4t" x1="28.89" y1="90.62" x2="108.81" y2="129.86" gradientTransform="matrix(1, 0, 0, -1, 0, 138)" gradientUnits="userSpaceOnUse"><stop offset="0" stop-color="#ed427c"/><stop offset="0.43" stop-color="#e14885"/><stop offset="1" stop-color="#d64d8e"/></linearGradient><linearGradient id="e4tw" x1="20.75" y1="91.47" x2="90.59" y2="16.95" gradientTransform="matrix(1, 0, 0, -1, 0, 138)" gradientUnits="userSpaceOnUse"><stop offset="0" stop-color="#ed427c"/><stop offset="0.11" stop-color="#ee4c77"/><stop offset="0.54" stop-color="#f1685f"/><stop offset="0.84" stop-color="#f27748"/><stop offset="1" stop-color="#f37c3d"/></linearGradient><linearGradient id="adv" x1="7.97" y1="69.57" x2="95.81" y2="16.29" gradientTransform="matrix(1, 0, 0, -1, 0, 138)" gradientUnits="userSpaceOnUse"><stop offset="0" stop-color="#3fbfef"/><stop offset="0.33" stop-color="#a1aba8"/><stop offset="0.65" stop-color="#d0936f"/><stop offset="0.88" stop-color="#e9834c"/><stop offset="1" stop-color="#f37c3d"/></linearGradient></defs><title>jetbrains</title><path class="skdu" d="M116,12.3a7.51,7.51,0,0,0,2-5.2,7.2,7.2,0,0,0-7.5-7,6.94,6.94,0,0,0-5,2.3h0L2.8,119.7A9.13,9.13,0,0,0,0,126.4a9.39,9.39,0,0,0,9.5,9.3,9,9,0,0,0,7.1-3.4h0Z" transform="translate(0.03 0)"/><path class="adr3" d="M117.9,7a7.26,7.26,0,0,0-7.5-7,6.5,6.5,0,0,0-3.1.8h0l-85.5,42a5.85,5.85,0,0,0-3.5,5.8,5.94,5.94,0,0,0,6.3,5.6,6.11,6.11,0,0,0,2.4-.7h0L113.3,14A7.21,7.21,0,0,0,117.9,7Z" transform="translate(0.03 0)"/><path class="d38f" d="M93.2,106.8,28.5,44.6a6.26,6.26,0,0,0-4.7-1.9A5.94,5.94,0,0,0,18.2,49a6.41,6.41,0,0,0,1.3,3.4h0l56.3,69.8a11.66,11.66,0,1,0,17.4-15.4Z" transform="translate(0.03 0)"/><path class="ds9d" d="M90.4,104.9c3.8,1.9-.1-.1,0,0Z" transform="translate(0.03 0)"/><path class="w34tr" d="M96.8,114.6c.1-3.7-1.8-7.5-6.5-9.8-5.5-2.8-11.1-5.5-16.6-8.3s-11-5.5-16.4-8.2-11-5.5-16.5-8.2-11.1-5.6-16.6-8.3-17.8-9-17.8-9a4.78,4.78,0,0,0-2.9-.3A4.51,4.51,0,0,0,.1,68,5.05,5.05,0,0,0,2,70.8a.1.1,0,0,1,.1.1h.1a25.36,25.36,0,0,1,2.1,1.5l3.9,2.7c2.5,1.8,5,3.5,7.5,5.3L31,91.2c5,3.5,10,7.1,15,10.6s10.1,7.2,15.2,10.8,10.1,7.3,15.2,10.8c.6.4,1.2.9,1.9,1.3a.76.76,0,0,0,.4.2h0a11.84,11.84,0,0,0,6.7,2.1A11.69,11.69,0,0,0,97,115.3,1.08,1.08,0,0,1,96.8,114.6Z" transform="translate(0.03 0)"/><rect x="25.93" y="50.6" width="51" height="51"/><rect class="d89d6" x="30.33" y="92.1" width="19.1" height="3.2"/><path class="d89d6" d="M30.1,64.1l1.5-1.4a1.7,1.7,0,0,0,1.3.8q.9,0,.9-1.2V57h2.3v5.3A2.8,2.8,0,0,1,33,65.4,3.13,3.13,0,0,1,30.1,64.1Z" transform="translate(0.03 0)"/><path class="d89d6" d="M36.7,57h6.7v2H39v1.3h4v1.8H39v1.3h4.5v2H36.8V57Z" transform="translate(0.03 0)"/><path class="d89d6" d="M46.4,59H43.9V57h7.3v2H48.7v6.3H46.4Z" transform="translate(0.03 0)"/><path class="d89d6" d="M30.3,67.3h4.3a3.7,3.7,0,0,1,2.3.7,2,2,0,0,1,.5,1.4h0a2,2,0,0,1-1.3,1.9,2,2,0,0,1,1.7,2h0c0,1.4-1.2,2.3-3.1,2.3H30.4V67.3Zm4.8,2.5c0-.5-.4-.7-1-.7H32.6v1.5H34c.7,0,1.1-.2,1.1-.8Zm-.8,2.4H32.5v1.5h1.8c.7,0,1.1-.3,1.1-.8h0C35.5,72.5,35.1,72.2,34.3,72.2Z" transform="translate(0.03 0)"/><path class="d89d6" d="M38.1,67.3H42a3.37,3.37,0,0,1,2.7.9,2.49,2.49,0,0,1,.7,1.9h0a2.76,2.76,0,0,1-1.7,2.6l2,2.9H43.1l-1.7-2.5h-1v2.5H38.1Zm3.8,4c.8,0,1.2-.4,1.2-1h0c0-.7-.5-1-1.2-1H40.4v2Z" transform="translate(0.03 0)"/><path class="d89d6" d="M48.2,67.2h2.2l3.5,8.4H51.4l-.6-1.5H47.6L47,75.6H44.6Zm2,5.1L49.3,70l-.9,2.4h1.8Z" transform="translate(0.03 0)"/><path class="d89d6" d="M54.2,67.3h2.3v8.3H54.2Z" transform="translate(0.03 0)"/><path class="d89d6" d="M57.1,67.3h2.2l3.4,4.4V67.3H65v8.3H63L59.4,71v4.6H57.1Z" transform="translate(0.03 0)"/><path class="d89d6" d="M65.1,74.4l1.3-1.5a3.94,3.94,0,0,0,2.7,1c.6,0,1-.2,1-.6h0c0-.4-.3-.5-1.4-.8-1.8-.4-3.1-.9-3.1-2.6h0c0-1.5,1.2-2.7,3.2-2.7a5.33,5.33,0,0,1,3.4,1.1L71,69.9a4.55,4.55,0,0,0-2.3-.8c-.6,0-.8.2-.8.5h0c0,.4.3.5,1.4.8,1.9.4,3.1,1,3.1,2.6h0c0,1.7-1.3,2.7-3.4,2.7A5.75,5.75,0,0,1,65.1,74.4Z" transform="translate(0.03 0)"/></svg>
