<?xml version="1.0" encoding="UTF-8"?>
<!DOCTYPE svg PUBLIC "-//W3C//DTD SVG 1.1//EN" "http://www.w3.org/Graphics/SVG/1.1/DTD/svg11.dtd">
<!-- Creator: CorelDRAW X6 -->
<svg xmlns="http://www.w3.org/2000/svg" xml:space="preserve" width="17.6111in" height="2.66666in" version="1.1" style="shape-rendering:geometricPrecision; text-rendering:geometricPrecision; image-rendering:optimizeQuality; fill-rule:evenodd; clip-rule:evenodd"
viewBox="0 0 17611 2667"
 xmlns:xlink="http://www.w3.org/1999/xlink">
 <defs>
  <style type="text/css">
   <![CDATA[
    .fil0 {fill:#FEFEFE;fill-rule:nonzero}
    .fil1 {fill:url(#id0)}
    .fil2 {fill:url(#id1)}
    .fil3 {fill:url(#id2)}
    .fil4 {fill:url(#id3)}
    .fil5 {fill:url(#id4)}
    .fil6 {fill:url(#id5)}
    .fil7 {fill:url(#id6)}
    .fil8 {fill:url(#id7)}
    .fil9 {fill:url(#id8)}
   ]]>
  </style>
  <linearGradient id="id0" gradientUnits="userSpaceOnUse" x1="-0" y1="1424.22" x2="2439.54" y2="1424.22">
   <stop offset="0" style="stop-color:#E64542"/>
   <stop offset="1" style="stop-color:#B73538"/>
  </linearGradient>
  <linearGradient id="id1" gradientUnits="userSpaceOnUse" xlink:href="#id0" x1="2770.87" y1="1302.07" x2="3294.37" y2="1302.07">
  </linearGradient>
  <linearGradient id="id2" gradientUnits="userSpaceOnUse" xlink:href="#id0" x1="3625.81" y1="1841.28" x2="5381.28" y2="1841.28">
  </linearGradient>
  <linearGradient id="id3" gradientUnits="userSpaceOnUse" xlink:href="#id0" x1="5712.65" y1="1319.51" x2="7527.48" y2="1319.51">
  </linearGradient>
  <linearGradient id="id4" gradientUnits="userSpaceOnUse" xlink:href="#id0" x1="7771.57" y1="1841.28" x2="9586.4" y2="1841.28">
  </linearGradient>
  <linearGradient id="id5" gradientUnits="userSpaceOnUse" xlink:href="#id0" x1="10005" y1="1302.07" x2="10528.5" y2="1302.07">
  </linearGradient>
  <linearGradient id="id6" gradientUnits="userSpaceOnUse" xlink:href="#id0" x1="10860" y1="1424.22" x2="13243.6" y2="1424.22">
  </linearGradient>
  <linearGradient id="id7" gradientUnits="userSpaceOnUse" xlink:href="#id0" x1="13435.4" y1="1434.69" x2="15424.7" y2="1434.69">
  </linearGradient>
  <linearGradient id="id8" gradientUnits="userSpaceOnUse" xlink:href="#id0" x1="15633.9" y1="1434.69" x2="17623.2" y2="1434.69">
  </linearGradient>
 </defs>
 <g id="Layer_x0020_1">
  <metadata id="CorelCorpID_0Corel-Layer"/>
  <path class="fil0" d="M531 1431c0,401 314,740 691,740 230,0 524,-73 653,-433l-604 0 0 -394 1169 0 0 80c0,674 -541,1222 -1218,1222 -670,0 -1222,-551 -1222,-1222 0,-670 551,-1222 1222,-1222 524,0 995,342 1159,834l-576 0c-115,-251 -353,-346 -583,-346 -377,0 -691,339 -691,740z"/>
  <polygon class="fil0" points="2771,2611 3294,2611 3294,-7 2771,-7 "/>
  <path class="fil0" d="M4861 1846c0,-192 -84,-398 -356,-398 -276,0 -360,206 -360,398 0,195 77,401 360,401 279,0 356,-206 356,-401zm520 -3c0,492 -387,799 -876,799 -492,0 -879,-307 -879,-799 0,-482 398,-803 879,-803 478,0 876,321 876,803z"/>
  <path class="fil0" d="M6603 2227c209,0 366,-181 366,-384 0,-202 -157,-384 -366,-384 -209,0 -366,181 -366,384 0,202 157,384 366,384zm-366 -2234l-523 0 0 2617 523 0 0 -185c105,157 328,220 527,220 436,0 764,-377 764,-803 0,-426 -328,-806 -764,-806 -199,0 -391,56 -527,223l0 -1267z"/>
  <path class="fil0" d="M8696 1459c-209,0 -366,181 -366,384 0,202 157,384 366,384 209,0 366,-181 366,-384 0,-202 -157,-384 -366,-384zm890 1152l-524 0 0 -185c-105,157 -332,220 -527,220 -436,0 -764,-377 -764,-803 0,-426 328,-806 764,-806 195,0 391,56 527,223l0 -185 524 0 0 1536z"/>
  <polygon class="fil0" points="10005,2611 10528,2611 10528,-7 10005,-7 "/>
  <path class="fil0" d="M13244 1805c-161,489 -621,841 -1162,841 -674,0 -1222,-548 -1222,-1222 0,-674 548,-1222 1222,-1222 541,0 998,349 1159,834l-583 0c-98,-213 -335,-346 -576,-346 -384,0 -691,332 -691,733 0,405 307,733 691,733 244,0 482,-143 579,-352l583 0z"/>
  <path class="fil0" d="M14884 1962c0,-461 -1372,-164 -1372,-1040 0,-489 454,-719 886,-719 489,0 928,216 946,757l-506 0c-28,-248 -171,-328 -433,-328 -147,0 -353,70 -353,248 0,422 1372,119 1372,1023 0,558 -497,764 -982,764l-4 0c-523,-1 -1000,-259 -1003,-838l530 0c14,283 237,412 496,412 164,0 422,-66 422,-279z"/>
  <path class="fil0" d="M17082 1962c0,-461 -1372,-164 -1372,-1040 0,-489 454,-719 886,-719 489,0 928,216 946,757l-506 0c-28,-248 -171,-328 -433,-328 -147,0 -353,70 -353,248 0,422 1372,119 1372,1023 0,558 -497,764 -982,764l-4 0c-523,-1 -1000,-259 -1003,-838l531 0c14,283 237,412 496,412 164,0 422,-66 422,-279z"/>
  <path class="fil1" d="M531 1431c0,401 314,740 691,740 230,0 524,-73 653,-433l-604 0 0 -394 1169 0 0 80c0,674 -541,1222 -1218,1222 -670,0 -1222,-551 -1222,-1222 0,-670 551,-1222 1222,-1222 524,0 995,342 1159,834l-576 0c-115,-251 -353,-346 -583,-346 -377,0 -691,339 -691,740z"/>
  <polygon class="fil2" points="2771,2611 3294,2611 3294,-7 2771,-7 "/>
  <path class="fil3" d="M4861 1846c0,-192 -84,-398 -356,-398 -276,0 -360,206 -360,398 0,195 77,401 360,401 279,0 356,-206 356,-401zm520 -3c0,492 -387,799 -876,799 -492,0 -879,-307 -879,-799 0,-482 398,-803 879,-803 478,0 876,321 876,803z"/>
  <path class="fil4" d="M6603 2227c209,0 366,-181 366,-384 0,-202 -157,-384 -366,-384 -209,0 -366,181 -366,384 0,202 157,384 366,384zm-890 384l0 -2618 523 0 0 1267c136,-168 328,-223 527,-223 436,0 764,380 764,806 0,426 -328,803 -764,803 -199,0 -422,-63 -527,-220l0 185 -523 0z"/>
  <path class="fil5" d="M8696 1459c-209,0 -366,181 -366,384 0,202 157,384 366,384 209,0 366,-181 366,-384 0,-202 -157,-384 -366,-384zm890 1152l-524 0 0 -185c-105,157 -332,220 -527,220 -436,0 -764,-377 -764,-803 0,-426 328,-806 764,-806 195,0 391,56 527,223l0 -185 524 0 0 1536z"/>
  <polygon class="fil6" points="10005,2611 10528,2611 10528,-7 10005,-7 "/>
  <path class="fil7" d="M13244 1805c-161,489 -621,841 -1162,841 -674,0 -1222,-548 -1222,-1222 0,-674 548,-1222 1222,-1222 541,0 998,349 1159,834l-583 0c-98,-213 -335,-346 -576,-346 -384,0 -691,332 -691,733 0,405 307,733 691,733 244,0 482,-143 579,-352l583 0z"/>
  <path class="fil8" d="M14378 2665l0 0 -2 0c-16,-1 -32,-2 -48,-3l0 0 -1 0c-5,0 -11,-1 -16,-1l0 0 -1 0c-14,-1 -28,-3 -42,-4l0 0 0 0c-4,0 -7,-1 -11,-1l0 0 -1 0c-13,-2 -27,-3 -40,-5l0 0 -1 0c-14,-2 -27,-4 -41,-7l0 0 0 0c-2,0 -4,-1 -7,-1l0 0 -1 0c-9,-2 -18,-4 -27,-5l0 0 0 0c-4,-1 -8,-2 -12,-3l0 0 -1 0c-15,-3 -30,-7 -45,-11l0 0 -1 0c-2,0 -3,-1 -5,-1l0 0 0 0c-10,-3 -19,-5 -29,-8l0 0 0 0c-3,-1 -6,-2 -9,-3l0 0 0 0 -4 -1 0 0 0 0c-15,-5 -31,-10 -45,-15l0 0 0 0 -4 -1 0 0 0 0c-7,-3 -15,-5 -22,-8l0 0 0 0c-2,-1 -5,-2 -7,-3l0 0 0 0c-2,-1 -4,-2 -7,-3l0 0 0 0 -7 -3 0 0 0 0c-2,-1 -5,-2 -7,-3l0 0 0 0c-4,-2 -8,-4 -12,-5l0 0 0 0c-3,-1 -6,-3 -9,-4l0 0 0 0 -3 -1 0 0 0 0c-19,-9 -38,-18 -57,-28l0 0c-4,-2 -8,-5 -12,-7l0 0 0 0c-4,-2 -8,-5 -12,-7l0 0 0 0c-9,-5 -19,-11 -28,-17l0 0 0 0 -4 -2 0 0 0 0c-4,-2 -7,-5 -11,-7l0 0 0 0c-4,-3 -8,-5 -12,-8l0 0 0 0 -4 -3 0 0 0 0c-3,-2 -6,-4 -10,-7l0 0 0 0c-9,-6 -18,-13 -26,-19l0 0 0 0c-2,-1 -4,-3 -5,-4l0 0 0 0c-2,-2 -5,-4 -7,-5l0 0 0 0c-5,-4 -10,-8 -15,-12l0 0 0 0c-3,-3 -6,-5 -10,-8l0 0 0 0 -1 -1 0 0 0 0c-4,-3 -7,-6 -11,-10l0 0 0 0c-17,-15 -33,-31 -49,-48l0 0 0 0 -1 -1 0 0 0 0 -1 -1 0 0 0 0c-6,-7 -12,-14 -18,-21l0 0 0 0c-2,-2 -4,-4 -5,-7l0 0 0 0 -1 -1 0 0 0 0c-2,-2 -4,-5 -5,-7l0 0 0 0c-5,-6 -9,-12 -14,-18l0 0 0 0c-2,-3 -5,-6 -7,-9l0 0 0 0c-1,-2 -3,-4 -4,-6l0 0 0 0 -3 -4 0 0 0 0c-5,-7 -9,-14 -14,-21l0 0 0 0c-1,-1 -2,-3 -3,-4l0 0 0 0c-1,-2 -3,-4 -4,-7l0 0 0 0c-4,-7 -8,-14 -12,-21l0 0 0 0c-2,-4 -5,-8 -7,-12l0 0 0 0c0,-1 -1,-2 -1,-2l0 0 0 0c-7,-12 -13,-25 -19,-38l0 -1 0 0 -1 -2 0 0 0 0c-4,-9 -8,-19 -12,-29l0 -1 0 0c-1,-2 -2,-4 -3,-6l0 -1 0 0 -1 -3 0 0 0 0c0,-1 -1,-2 -1,-4l0 -1 0 0c-1,-2 -2,-5 -3,-7l0 0 0 0c-2,-6 -5,-13 -7,-19l0 0 0 0 -1 -4 0 0 0 0c0,-1 -1,-3 -1,-4l0 0 0 0 -1 -4 0 0 0 0c-3,-9 -6,-18 -8,-27l0 0 0 0c-1,-3 -2,-6 -3,-10l0 0 0 0c0,-2 -1,-3 -1,-5l0 -1 0 0c0,-2 -1,-3 -1,-5l0 -1 0 0c0,-2 -1,-3 -1,-5l0 -1 0 0c-2,-8 -4,-16 -5,-23l0 0 0 0c0,-2 -1,-4 -1,-6l0 -1 0 0c0,-2 -1,-4 -1,-6l0 -1 0 0c0,-2 -1,-4 -1,-6l0 0 0 0c-1,-8 -3,-15 -4,-23l0 0 0 0c0,-3 -1,-6 -1,-9l0 -1 0 0c0,-3 -1,-5 -1,-8l0 -2 0 0c0,-3 -1,-6 -1,-9l0 0 0 0c-1,-8 -2,-16 -3,-24l0 -1 0 0c0,-4 -1,-9 -1,-13l0 -3 0 0c0,-5 -1,-11 -1,-16l0 -1 0 0c-1,-9 -1,-18 -1,-26l0 -8 0 0c0,-8 0,-16 0,-24l530 0c14,283 237,412 496,412 164,0 422,-66 422,-279 0,-3 0,-6 0,-9l0 0 0 0c-2,-61 -30,-109 -75,-147l0 0 0 0c-7,-6 -15,-12 -24,-18l0 0 0 0c-143,-101 -420,-137 -679,-217l0 0 0 0c-212,-65 -412,-159 -517,-339l0 0 0 0c-9,-15 -16,-30 -24,-46l0 0 0 0c-14,-31 -26,-65 -35,-101l0 0c-11,-45 -17,-95 -18,-148l0 0 0 0c0,-5 0,-10 0,-14 0,-4 0,-9 0,-13l0 0 0 -10c0,-9 1,-18 1,-27l0 0 0 0c0,-5 1,-10 1,-15l0 0 0 -3c0,-4 1,-8 1,-12l0 0 0 -1c0,-4 1,-8 1,-12l0 0c0,-3 1,-6 1,-10l0 0 0 -1c0,-3 1,-5 1,-8l0 0 0 -2c0,-3 1,-5 1,-8l0 0 0 0c0,-3 1,-6 1,-8l0 0 0 0c0,-2 1,-5 1,-7l0 0 0 0 1 -7 0 0 0 0c0,-2 1,-4 1,-5l0 0 0 -2c0,-2 1,-4 1,-5l0 0 0 -1c1,-4 2,-8 3,-12l0 0 0 0c1,-5 3,-10 4,-15l0 0 0 -1c0,-2 1,-3 1,-5l0 0 0 0c0,-1 1,-3 1,-4l0 0 0 -1c1,-3 2,-6 3,-9l0 0 0 0c3,-8 5,-17 8,-25l0 0 0 -1c0,-1 1,-2 1,-3l0 0 0 0c3,-8 6,-17 10,-25l0 0 0 0c1,-2 2,-4 3,-7l0 0 0 0 1 -3 0 0 0 -1c1,-3 3,-6 4,-9l0 0 0 0c4,-8 7,-16 11,-23l0 0 0 0c5,-10 11,-21 17,-31l0 0 0 0c1,-2 3,-4 4,-7l0 0 0 0c5,-9 11,-18 16,-26l0 0 0 0 3 -4 0 0 0 0c1,-1 2,-3 3,-4l0 0 0 0 3 -4 0 0 0 0c2,-3 5,-6 7,-10l0 0 0 0c1,-2 3,-4 4,-6l0 0 0 0c1,-2 3,-4 4,-5l0 0 0 0c3,-4 6,-8 10,-12 2,-3 5,-6 7,-8l0 0 0 0c2,-3 5,-6 7,-8l0 0 0 0 1 -1 0 0 0 0c17,-20 36,-39 55,-57l0 0 0 0 1 -1 0 0 0 0c4,-4 8,-7 12,-11l0 0 0 0c3,-2 5,-5 8,-7l0 0 0 0c3,-2 5,-5 8,-7l0 0 0 0c5,-4 9,-7 14,-11l0 0 0 0c2,-1 4,-3 5,-4l0 0 0 0c2,-1 4,-3 5,-4l0 0 0 0c2,-1 4,-3 5,-4l0 0 0 0c8,-6 16,-11 24,-17l0 0 0 0 4 -3 0 0 0 0c1,-1 3,-2 4,-3l0 0 0 0c9,-6 17,-11 26,-17l0 0 0 0c2,-1 5,-3 7,-4l0 0 0 0c6,-4 13,-7 19,-11l0 0 0 0c5,-3 10,-6 15,-8l0 0 0 0c14,-7 28,-14 42,-21l0 0 0 0c5,-2 10,-5 15,-7l0 0 0 0c3,-1 6,-3 9,-4l0 0 0 0c12,-5 25,-10 37,-15l0 0 0 0c7,-3 15,-6 22,-8l0 0 0 0 4 -1 0 0 0 0c12,-4 25,-8 37,-12l0 0 0 0c5,-1 9,-3 14,-4l0 0 0 0c11,-3 23,-7 35,-10l0 0 0 0 5 -1 0 0 0 0c10,-2 19,-5 29,-7l1 0 0 0c4,-1 8,-2 12,-3l0 0 0 0c9,-2 18,-4 27,-5l1 0 0 0c2,0 5,-1 7,-1l0 0 0 0c11,-2 22,-4 33,-6l0 0 0 0c13,-2 27,-4 40,-5l1 0 0 0c8,-1 17,-2 25,-3l0 0 0 0c5,0 10,-1 15,-1l2 0 0 0c14,-1 27,-2 41,-3l2 0 0 0c16,-1 32,-1 48,-1l3 0 0 0c2,0 4,0 6,0 2,0 4,0 6,0l0 0 5 0c18,0 37,1 55,1l0 0 3 0c16,1 31,2 47,3l0 0 1 0c11,1 22,2 32,3l0 0 0 0c5,0 9,1 14,1l0 0 0 0c4,0 8,1 12,1l0 0 0 0c7,1 15,2 22,3l0 0 0 0c26,3 52,8 77,12l0 0 0 0 7 1 0 0 0 0c2,0 4,1 7,1l0 0 0 0c2,0 4,1 7,1 8,2 17,4 25,6l0 0 0 0 5 1 0 0 1 0c11,3 22,5 33,8l0 0 0 0c3,1 6,2 10,3l0 0 1 0c11,3 22,6 33,10l0 0 0 0 4 1 0 0 0 0 4 1 0 0 1 0c13,4 27,9 40,14l0 0 1 0c1,0 2,1 4,1l0 0 0 0c6,2 12,5 18,7l0 0 0 0c6,2 11,4 17,7l0 0 0 0c12,5 23,10 34,15l0 0 0 0 3 1 0 0 0 0c12,6 24,12 36,18l0 0 0 0 2 1 0 0 0 0c8,4 17,9 25,14l0 0 0 0c2,1 5,3 7,4l0 0 0 0c2,1 4,3 7,4l0 0 0 0c7,4 15,9 22,14l0 0 0 0c1,1 3,2 4,3l0 0 0 0c1,1 3,2 4,3l0 0 0 0c1,1 3,2 4,3l0 0 0 0c8,5 16,11 24,17l0 0 0 0c2,1 4,3 6,4l0 0 0 0c7,5 13,10 19,15l0 0 0 0c2,2 5,4 7,5l0 0 0 0 1 1 0 0 0 0c3,2 5,5 8,7l0 0 0 0c4,3 7,6 11,10l0 0 0 0c7,6 13,12 19,18l0 0 0 0 1 1 0 0 0 0c2,2 5,5 7,7l0 0 0 0 1 1 0 0 0 0 1 1 0 0 0 0 1 1 0 0 0 0 1 1 0 0 0 0 1 1 0 0 0 0c6,6 12,13 18,19l0 0 0 0c3,3 6,6 8,9l0 0 0 0 1 1 0 0 0 0c2,3 5,6 7,8l0 0 0 0c4,5 7,9 11,14l0 0 0 0c1,2 3,4 4,5l0 0 0 0c1,2 3,3 4,5l0 0 0 0c1,2 3,4 4,5l0 0 0 0c1,2 3,4 4,5l0 0 0 0c4,6 8,12 12,18l0 0 0 0c1,1 2,3 3,4l0 0 0 0c3,5 7,10 10,15l0 0 0 0c3,5 7,11 10,16l0 0 0 0c2,3 4,6 5,10l0 0 0 0c4,7 7,14 11,21l0 0 0 0 1 3 0 0 0 0c0,1 1,2 1,3l0 0 0 0 1 3 0 0 0 0c5,10 9,20 14,30l0 0 0 0 1 3 0 0 0 0c1,2 2,4 3,7l0 0 0 0c1,2 2,4 3,7l0 0 0 0c2,6 5,12 7,18l0 0 0 0c1,4 3,7 4,11l0 0 0 0c0,1 1,3 1,4l0 0 0 0 1 4 0 0 0 0 1 4 0 0 0 0c0,1 1,3 1,4l0 0 0 0c1,4 3,9 4,13l0 1 0 0 1 4 0 0 0 0c0,2 1,3 1,4l0 1 0 0c0,1 1,3 1,4l0 0 0 0c0,2 1,3 1,5l0 1 0 0c1,3 2,6 3,10l0 0 0 0c2,8 4,15 6,23l0 1 0 0c1,4 2,8 3,12l0 0 0 0c2,10 4,19 6,29l0 0 0 0c0,3 1,5 1,8l0 0 0 0c0,3 1,6 1,9l0 1 0 0c0,3 1,5 1,8l0 0 0 0c1,4 1,7 1,11l0 0 0 0c0,4 1,7 1,11l0 1 0 0c0,4 1,8 1,12l0 0 0 0c1,11 2,23 3,34l0 4 0 0c0,8 1,17 1,25l-506 0c-28,-248 -171,-328 -433,-328 -147,0 -353,70 -353,248 0,422 1372,119 1372,1023 0,14 0,27 -1,41l0 0 0 3c0,7 -1,14 -1,21l0 0 0 2c0,5 -1,9 -1,14l0 0 0 3c-1,8 -2,17 -3,25l0 0 0 0c0,3 -1,6 -1,9l0 0 0 1c0,3 -1,6 -1,9l0 0 0 1c0,2 -1,5 -1,7l0 0 0 1c-1,8 -3,15 -4,22l0 0 0 1c0,2 -1,4 -1,6l0 0 0 1c0,2 -1,4 -1,6l0 0 0 0c0,2 -1,3 -1,5l0 0 0 1 -1 6 0 0 0 0c-1,6 -3,11 -4,17l0 0 0 0c-1,3 -2,6 -3,10l0 0 0 1 -1 5 0 0 0 0c0,1 -1,3 -1,4l0 0 0 1c-3,10 -6,20 -9,30l0 0 0 1c0,1 -1,2 -1,3l0 0 0 1c0,1 -1,2 -1,3l0 0 0 0c-2,5 -4,10 -6,15l0 0 0 0c-1,2 -2,5 -3,7l0 0 0 0c-1,3 -3,6 -4,10l0 0 0 0c-1,2 -2,4 -3,6l0 0 0 0c0,1 -1,2 -1,3l0 0 0 0c-6,13 -11,25 -18,37l0 0 0 1 -1 2 0 0 0 0 -1 2 0 0 0 0 -1 3 0 0 0 0c-2,4 -5,8 -7,12l0 0 0 0c-1,2 -3,5 -4,7l0 0 0 0c0,1 -1,2 -1,2l0 0 0 0c-1,1 -2,3 -2,4l0 0 0 1 -1 2 0 0 0 0c-1,1 -2,3 -3,4l0 0 0 0c-1,2 -3,4 -4,7l0 0 0 0c-3,4 -5,8 -8,12l0 0 0 0c-1,1 -2,3 -3,4l0 0 0 0 -3 4 0 0 0 0c-1,2 -3,4 -4,5l0 0 0 0 -3 4 0 0 0 0c-4,6 -8,11 -12,17l0 0 0 0c-2,2 -4,5 -5,7l0 0 0 0c-2,2 -4,4 -5,7l0 0 0 0c-5,7 -11,13 -17,19l0 0 0 0 -1 1 0 0 0 0c-4,5 -8,9 -12,13l0 0 0 0c-6,6 -12,12 -18,18l0 0 0 0 -1 1 0 0 0 0 -1 1 0 0 0 0 -1 1 0 0 0 0 -1 1 0 0 0 0 -1 1 0 0 0 0c-5,5 -11,10 -17,15l0 0 0 0c-4,3 -7,6 -11,10l0 0 0 0c-3,3 -6,6 -10,8l0 0 0 0c-2,2 -5,4 -7,6l0 0 0 0c-2,2 -5,4 -7,6l0 0 0 0c-2,1 -4,3 -5,4l0 0 0 0c-9,7 -17,13 -26,19l0 0 0 0c-1,1 -3,2 -4,3l0 0 0 0c-10,7 -19,13 -29,19l0 0 0 0c-2,1 -4,3 -7,4l0 0 0 0c-10,6 -20,12 -30,18l0 0 0 0c-5,3 -10,6 -15,8l0 0 0 0c-19,10 -39,20 -59,29l0 0 0 0c-1,0 -2,1 -3,1l0 0 0 0c-3,1 -6,3 -10,4l0 0 0 0c-3,1 -6,3 -10,4l0 0 0 0c-5,2 -9,4 -14,6l0 0 0 0c-2,1 -4,2 -7,3l0 0 0 0c-6,2 -12,5 -18,7l0 0 0 0c-6,2 -13,5 -19,7l0 0 0 0c-1,0 -2,1 -4,1l-1 0 0 0c-1,0 -2,1 -4,1l-1 0 0 0c-8,3 -17,6 -25,8l0 0 0 0c-4,1 -9,3 -13,4l-1 0 0 0c-5,1 -9,3 -14,4l0 0 0 0c-8,2 -16,5 -25,7l0 0 0 0 -5 1 0 0 0 0c-9,2 -18,5 -28,7l0 0 0 0c-6,1 -12,3 -18,4l0 0 0 0c-9,2 -18,4 -26,6l0 0 0 0c-2,0 -5,1 -7,1l0 0 0 0c-7,1 -15,3 -22,4l0 0 0 0c-5,1 -11,2 -16,3l0 0 0 0c-3,0 -5,1 -8,1l0 0 0 0c-6,1 -12,2 -18,3l0 0 0 0c-10,1 -20,3 -30,4l0 0 0 0c-4,0 -7,1 -11,1l0 0 0 0c-13,2 -26,3 -40,4l-1 0 0 0c-11,1 -22,2 -33,3l-2 0 0 0c-16,1 -32,2 -48,3l-2 0 0 0c-21,1 -43,1 -64,1l-4 0c-20,0 -41,0 -61,-1z"/>
  <path class="fil9" d="M16575 2665l0 0 -1 0c-16,-1 -32,-2 -48,-3l0 0 -1 0c-6,0 -12,-1 -17,-1l0 0 0 0c-14,-1 -28,-3 -42,-4l0 0 0 0c-17,-2 -34,-4 -51,-7l0 0 -1 0c-14,-2 -27,-4 -41,-7l0 0 0 0c-11,-2 -23,-4 -34,-7l0 0 0 0c-2,0 -4,-1 -6,-1l0 0 0 0c-17,-4 -34,-8 -51,-12l0 0 -1 0c-2,0 -3,-1 -5,-1l0 0 0 0c-13,-3 -26,-7 -39,-11l0 0 0 0c-1,0 -3,-1 -4,-1l0 0 0 0c-17,-5 -33,-11 -50,-17l0 0 0 0c-7,-3 -15,-5 -22,-8l0 0 0 0c-2,-1 -5,-2 -7,-3l0 0 0 0c-2,-1 -4,-2 -6,-3l0 0 0 0c-12,-5 -24,-10 -36,-15l0 0 0 0c-25,-11 -49,-23 -72,-36l0 0 0 0 -2 -1 0 0 0 0c-3,-2 -6,-4 -10,-6l0 0 0 0c-9,-5 -19,-11 -28,-17l0 0 0 0c-4,-2 -7,-5 -11,-7l0 0 0 0c-6,-4 -11,-7 -17,-11l0 0 0 0 -4 -3 0 0 0 0c-3,-2 -6,-4 -10,-7l0 0 0 0c-1,-1 -3,-2 -4,-3l0 0 0 0c-7,-5 -15,-11 -22,-16l0 0 0 0c-2,-1 -4,-3 -5,-4l0 0 0 0c-2,-2 -4,-4 -7,-5l0 0 0 0c-5,-4 -10,-8 -15,-12l0 0 0 0c-3,-3 -6,-5 -10,-8l0 0 0 0 -1 -1 0 0 0 0c-21,-18 -41,-38 -59,-58l0 0 0 0 -1 -1 0 0 0 0 -1 -1 0 0 0 0c-6,-7 -12,-14 -18,-21l0 0 0 0c-2,-3 -5,-5 -7,-8l0 0 0 0c-2,-2 -4,-4 -5,-7l0 0 0 0c-2,-2 -4,-5 -5,-7l0 0 0 0c-3,-4 -6,-7 -8,-11l0 0 0 0c-1,-2 -3,-4 -4,-5l0 0 0 0c-1,-1 -2,-2 -3,-4l0 -1 0 0c-1,-2 -3,-4 -4,-5l0 0 0 0c-6,-8 -11,-16 -17,-25l0 0 0 0c-1,-1 -2,-3 -3,-4l0 0 0 0c-1,-1 -2,-3 -3,-4l0 0 0 0 -1 -2 0 0 0 0c-1,-1 -2,-3 -2,-4l0 0 0 0c-3,-5 -7,-11 -10,-16l0 0 0 0c-2,-3 -4,-6 -5,-10l0 0 0 0c0,-1 -1,-2 -1,-2l0 0 0 0c0,-1 -1,-1 -1,-2l0 -1 0 0c-3,-5 -5,-10 -8,-15l0 0 0 0 -1 -3 0 0 0 0c-4,-8 -7,-15 -11,-23l0 -1 0 0 -1 -3 0 0 0 0c-3,-7 -7,-15 -10,-22l0 0 0 0c-1,-2 -2,-4 -3,-7l0 0 0 0c-1,-2 -2,-4 -3,-7l0 0 0 0c-1,-4 -3,-7 -4,-11l0 0 0 0c-1,-4 -3,-7 -4,-11l0 0 0 0c0,-1 -1,-3 -1,-4l0 0 0 0 -1 -4 0 0 0 0 -1 -4 0 -1 0 0c0,-1 -1,-2 -1,-4l0 -1 0 0 -1 -4 0 -1 0 0c0,-1 -1,-3 -1,-4l0 0 0 0c-3,-11 -7,-22 -10,-33l0 -1 0 0c0,-2 -1,-3 -1,-4l0 -1 0 0c0,-1 -1,-3 -1,-4l0 -1 0 0c-2,-7 -4,-15 -5,-22l0 0 0 0c0,-2 -1,-4 -1,-6l0 -1 0 0c0,-2 -1,-4 -1,-6l0 -1 0 0c0,-2 -1,-4 -1,-5l0 -2 0 0c0,-2 -1,-4 -1,-6l0 -1 0 0 -1 -6 0 0 0 0c-1,-8 -3,-16 -4,-25l0 0 0 0c0,-3 -1,-6 -1,-9l0 -2 0 0c0,-3 -1,-6 -1,-9l0 -1 0 0c0,-3 -1,-6 -1,-10l0 0 0 0c-1,-4 -1,-9 -1,-13l0 -1 0 0c0,-4 -1,-9 -1,-13l0 -3 0 0c0,-5 -1,-11 -1,-16l0 -1 0 0c-1,-9 -1,-17 -1,-26l0 -8 0 0c0,-9 0,-18 -1,-26l531 0c14,283 237,412 496,412 164,0 422,-66 422,-279 0,-461 -1372,-164 -1372,-1040 0,-5 0,-10 0,-15l0 0 0 -10c0,-9 1,-17 1,-26l0 0 0 -1c0,-5 1,-11 1,-16l0 0 0 -2c1,-8 2,-16 3,-24l0 0 0 0c0,-3 1,-6 1,-9l0 0 0 -1c0,-3 1,-6 1,-9l0 0 0 0c0,-3 1,-5 1,-8l0 0 0 0c1,-5 2,-10 3,-15l0 0 0 0c0,-2 1,-4 1,-7l0 0 0 0c0,-2 1,-4 1,-6l0 0 0 0c0,-2 1,-3 1,-5l0 0 0 -1c1,-6 3,-12 4,-17l0 0 0 0c1,-5 3,-10 4,-15l0 0 0 -1c1,-3 2,-6 3,-9l0 0 0 0c3,-10 6,-20 9,-29l0 0 0 -1c0,-1 1,-2 1,-3l0 0 0 0 1 -4 0 0 0 0c3,-9 7,-19 11,-28l0 0 0 0c1,-3 3,-6 4,-9l0 0 0 0c4,-8 7,-16 11,-24l0 0 0 0c0,-1 1,-2 1,-3l0 0 0 0 1 -3 0 0 0 0c5,-9 10,-19 15,-28l0 0 0 0c1,-2 3,-4 4,-7l0 0 0 0c6,-10 12,-20 19,-30l0 0 0 0c1,-1 2,-2 3,-4l0 0 0 0 3 -4 0 0 0 0c2,-3 5,-6 7,-10l0 0 0 0c1,-2 3,-4 4,-5l0 0 0 0c1,-2 3,-4 4,-5l0 0 0 0c3,-4 6,-8 10,-12l0 0 0 0c5,-6 9,-11 14,-17l0 0 0 0 1 -1 0 0 0 0c17,-20 36,-39 55,-57l0 0 0 0 1 -1 0 0 0 0c4,-4 8,-7 12,-11l0 0 0 0c3,-2 5,-5 8,-7l0 0 0 0 1 -1 0 0 0 0c2,-2 5,-4 7,-6l0 0 0 0c5,-4 9,-7 14,-11l0 0 0 0c2,-1 4,-3 5,-4l0 0 0 0c2,-1 3,-3 5,-4l0 0 0 0c2,-1 4,-3 5,-4l0 0 0 0c8,-6 16,-11 23,-17l0 0 0 0 4 -3 0 0 0 0c1,-1 3,-2 4,-3l0 0 0 0 4 -3 0 0 0 0c7,-5 15,-9 22,-14l0 0 0 0c2,-1 5,-3 7,-4l0 0 0 0c6,-4 13,-7 19,-11l0 0 0 0c4,-2 8,-5 12,-7l0 0 3 -1 0 0 0 0c19,-10 37,-19 57,-28l0 0 0 0c3,-1 6,-3 9,-4l0 0 0 0c15,-6 29,-12 44,-18l0 0 0 0c5,-2 10,-4 15,-6l0 0 0 0c14,-5 28,-9 41,-14l0 0 0 0c5,-1 9,-3 14,-4l0 0 0 0c11,-3 23,-7 35,-10l0 0 0 0c2,0 4,-1 5,-1l0 0 0 0c9,-2 19,-5 29,-7l1 0 0 0c13,-3 26,-6 39,-8l1 0 0 0c2,0 4,-1 7,-1l0 0 0 0c11,-2 22,-4 33,-6l1 0 0 0c13,-2 27,-4 40,-5l1 0 0 0c8,-1 17,-2 25,-3l0 0 0 0c5,0 10,-1 15,-1l2 0 0 0c13,-1 27,-2 40,-3l3 0 0 0c16,-1 32,-1 48,-1l3 0 0 0c2,0 4,0 5,0 2,0 4,0 6,0l0 0 5 0c18,0 37,1 55,1l0 0 3 0c16,1 31,2 47,3l0 0 1 0c15,1 30,2 45,4l0 0 1 0c12,1 23,3 35,4l0 0 0 0c3,0 6,1 9,1l0 0 1 0c25,3 50,8 74,12l0 0 0 0c2,0 5,1 7,1l0 0 0 0c13,3 25,5 37,8l0 0 0 0 5 1 0 0 1 0c12,3 25,6 37,10l0 0 0 0c3,1 6,2 9,3l0 0 0 0c9,3 18,5 27,8l0 0 0 0c1,0 3,1 4,1l0 0 0 0 4 1 0 0 0 0c7,2 14,5 20,7l0 0 0 0c5,2 10,4 15,5l0 0 0 0c4,1 7,3 11,4l0 0 0 0c9,4 18,7 28,11l0 0 0 0c3,1 6,3 9,4l0 0 0 0c8,4 17,7 25,11l0 0 0 0 3 1 0 0 0 0c1,0 2,1 2,1l0 0 0 0c10,5 20,10 30,15l0 0 0 0c1,0 2,1 2,1l0 0 0 0 2 1 0 0 0 0c11,6 21,12 32,18l0 0 0 0c2,1 4,3 7,4l0 0 0 0c2,1 5,3 7,4l0 0c7,4 13,8 19,12l0 0 0 0c1,1 3,2 4,3l0 0 0 0c6,4 12,8 18,12l0 0 0 0 6 4 0 0 0 0c2,1 4,3 5,4l0 0 0 0c8,6 16,12 23,18l0 0 0 0c3,2 6,4 8,7l0 0 0 0c7,6 14,12 21,18l0 0 0 0c8,7 16,15 24,22l0 0 0 0c12,12 24,24 35,37l0 0 0 0 1 1 0 0 0 0c2,3 5,5 7,8l0 0 0 0c6,7 11,14 17,21l0 0 0 0c1,2 3,4 4,5l0 0 0 0c1,2 3,4 4,6l0 0 0 0c7,10 14,20 21,30l0 0 0 0c1,1 2,3 3,4l0 0 0 0c4,6 7,12 11,18l0 0 0 0c1,2 3,5 4,7l0 0 0 0 1 2 0 0 0 0c2,3 4,6 5,10l0 0 0 0c10,18 19,37 28,57l0 0 0 0c1,2 2,4 3,6l0 1 0 0c1,3 3,6 4,10l0 0 0 0c1,2 2,5 3,7l0 0 0 0c2,5 4,10 6,15l0 0 0 0c0,1 1,2 1,3l0 1 0 0c4,11 7,22 11,33l0 0 0 0c1,3 2,6 3,9l0 1 0 0c1,3 2,6 3,10l0 0 0 0c2,9 5,18 7,27l0 0 0 0c0,2 1,4 1,5l0 0 0 0c0,2 1,4 1,6l0 1 0 0c2,9 4,18 5,27l0 0 0 0c0,2 1,5 1,7l0 1 0 0c0,2 1,5 1,8l0 1 0 0c2,9 3,19 4,29l0 0 0 0c0,4 1,7 1,11l0 2 0 0c0,4 1,8 1,12l0 0 0 0c0,5 1,10 1,15l0 0 0 0c1,6 1,13 1,19l0 4 0 0c0,7 1,15 1,23l-506 0c-28,-248 -171,-328 -433,-328 -147,0 -353,70 -353,248 0,96 71,154 180,198l0 0 0 0c358,143 1128,128 1187,746l0 0c2,25 4,51 4,79 0,12 0,24 -1,35l0 0 0 5c0,8 -1,15 -1,23l0 0 0 1c0,5 -1,9 -1,14l0 0 0 3c0,5 -1,9 -1,14l0 0c-1,7 -2,14 -3,21l0 0 0 1c0,3 -1,6 -1,8l0 0 0 2c0,3 -1,5 -1,8l0 0 0 0c0,3 -1,5 -1,8l0 0 0 0c-1,7 -3,15 -4,22l0 0 0 0c0,2 -1,4 -1,5l0 0 0 1c0,2 -1,4 -1,6l0 0 0 0c-2,9 -4,18 -7,27l0 0 0 1c0,2 -1,3 -1,5l0 0 0 0c-1,3 -2,6 -3,9l0 0 0 0c-3,9 -5,17 -8,26l0 0 0 0 -1 4 0 0 0 0c0,1 -1,3 -1,4l0 0 0 0c0,1 -1,3 -1,4l0 0 0 0c-1,2 -2,5 -3,7l0 0 0 1 -1 4 0 0 0 0c-2,5 -4,9 -5,14l0 0 0 0c-1,2 -2,4 -3,7l0 0 0 0c0,1 -1,2 -1,3l0 0 0 1c-1,2 -2,4 -3,6l0 0 0 0 -1 3 0 0 0 0c-3,8 -7,16 -11,23l0 0 0 0 -1 2 0 0 0 1c0,1 -1,2 -1,2l0 0 0 1 -1 2 0 0 0 1c0,1 -1,2 -1,2l0 0 0 0 -1 2 0 0 0 0 -1 3c-4,8 -8,15 -12,22l0 0 0 0c-1,2 -3,5 -4,7l0 0 0 0c-1,2 -3,4 -4,7l0 0 0 0c-2,4 -5,7 -7,11l0 0 0 0c-1,1 -2,3 -3,4l0 0 0 0 -3 4 0 0 0 0c-2,3 -4,7 -7,10l0 0 0 0c-1,1 -2,2 -3,4l0 0 0 0c-4,5 -7,10 -11,15l0 0 0 0c-2,2 -4,5 -5,7l0 0 0 0c-1,2 -3,4 -4,5l0 0 0 0 -1 1 0 0 0 0c-7,8 -14,17 -21,25l0 0 0 0 -1 1 0 0 0 0 -1 1 0 0 0 0c-4,5 -8,9 -12,13l0 0 0 0c-3,3 -6,6 -10,10l0 0 0 0 -1 1 0 0 0 0 -1 1 0 0 0 0 -1 1 0 0 0 0 -1 1 0 0 0 0 -1 1 0 0 0 0 -1 1 0 0 0 0 -1 1 0 0 0 0 -1 1 0 0 0 0c-6,6 -12,11 -18,17l0 0 0 0 -1 1 0 0 0 0c-3,3 -6,6 -9,8l0 0 0 0c-8,7 -15,13 -23,19l0 0 0 0c-2,2 -5,4 -7,5l0 0 0 0c-2,1 -4,3 -5,4l0 0 0 0c-8,6 -16,12 -25,18l0 0 0 0c-1,1 -3,2 -4,3l0 0 0 0c-7,5 -14,9 -21,14l0 0 0 0c-4,2 -7,5 -11,7l0 0 0 0c-2,1 -4,3 -7,4l0 0 0 0c-5,3 -9,5 -14,8l0 0 0 0c-3,2 -6,4 -10,6l0 0 0 0 -2 1 0 0 0 0c-4,2 -8,5 -12,7l0 0 0 0c-19,10 -39,20 -60,29l0 0 0 0c-3,1 -6,3 -9,4l0 0 0 0c-6,3 -13,6 -19,8l0 0 0 0c-2,1 -5,2 -7,3l0 0 0 0c-2,1 -5,2 -7,3l0 0 0 0c-4,1 -7,3 -11,4l0 0 0 0c-9,3 -17,7 -26,10l0 0 0 0c-1,0 -3,1 -4,1l0 0 0 0c-1,0 -3,1 -4,1l0 0 0 0 -4 1 0 0 0 0c-11,4 -23,7 -34,11l0 0 0 0c-5,1 -9,3 -14,4l0 0 0 0c-3,1 -6,2 -10,3l0 0 0 0c-5,1 -10,3 -15,4l0 0 0 0 -5 1 0 0 0 0 -5 1 0 0 0 0c-7,2 -15,4 -22,5l0 0 0 0c-4,1 -8,2 -12,3l-1 0 0 0c-18,4 -36,8 -54,11l0 0 0 0c-8,1 -16,3 -23,4l0 0 0 0c-3,0 -5,1 -8,1l0 0 0 0c-6,1 -12,2 -18,3l0 0 0 0c-10,1 -20,3 -30,4l0 0 0 0c-17,2 -34,4 -51,6l-1 0 0 0c-11,1 -22,2 -33,3l-2 0 0 0c-16,1 -32,2 -48,3l-3 0 0 0c-21,1 -42,1 -63,1l-4 0c-21,0 -41,-1 -62,-1z"/>
 </g>
</svg>
