<svg width="177" height="210" viewBox="0 0 177 210" fill="none" xmlns="http://www.w3.org/2000/svg">
<path d="M3.52841 173.193H0.52841V176.193H3.52841V173.193ZM101.866 173.193H104.866V170.193H101.866V173.193ZM101.866 207H98.8665V210H101.866V207ZM148.898 207V210H151.898V207H148.898ZM148.898 173.193V170.193H145.898V173.193H148.898ZM173.259 173.193V176.193H176.259V173.193H173.259ZM173.259 134.415H176.259V131.415H173.259V134.415ZM148.898 134.415H145.898V137.415H148.898V134.415ZM148.898 3.36363H151.898V0.363632H148.898V3.36363ZM86.9517 3.36363V0.363632H85.3025L84.4187 1.7561L86.9517 3.36363ZM3.52841 134.812L0.995455 133.205L0.52841 133.941V134.812H3.52841ZM102.861 134.415V137.415H105.861V134.415H102.861ZM52.4489 134.415H49.4489V137.415H52.4489V134.415ZM52.4489 132.824L49.9119 131.223L49.4489 131.956V132.824H52.4489ZM101.27 55.4659V52.4659H99.6157L98.7329 53.8648L101.27 55.4659ZM102.861 55.4659H105.861V52.4659H102.861V55.4659ZM3.52841 176.193H101.866V170.193H3.52841V176.193ZM98.8665 173.193V207H104.866V173.193H98.8665ZM101.866 210H148.898V204H101.866V210ZM151.898 207V173.193H145.898V207H151.898ZM148.898 176.193H173.259V170.193H148.898V176.193ZM176.259 173.193V134.415H170.259V173.193H176.259ZM173.259 131.415H148.898V137.415H173.259V131.415ZM151.898 134.415V3.36363H145.898V134.415H151.898ZM148.898 0.363632H86.9517V6.36363H148.898V0.363632ZM84.4187 1.7561L0.995455 133.205L6.06136 136.42L89.4847 4.97115L84.4187 1.7561ZM0.52841 134.812V173.193H6.52841V134.812H0.52841ZM102.861 131.415H52.4489V137.415H102.861V131.415ZM55.4489 134.415V132.824H49.4489V134.415H55.4489ZM54.9859 134.425L103.807 57.067L98.7329 53.8648L49.9119 131.223L54.9859 134.425ZM101.27 58.4659H102.861V52.4659H101.27V58.4659ZM99.8608 55.4659V134.415H105.861V55.4659H99.8608Z" fill="url(#paint0_linear)"/>
<defs>
<linearGradient id="paint0_linear" x1="89" y1="-62" x2="89" y2="334" gradientUnits="userSpaceOnUse">
<stop stop-color="#00D6EF"/>
<stop offset="0.328125" stop-color="#810BFF"/>
<stop offset="0.677083" stop-color="#FF0B9D"/>
<stop offset="1" stop-color="#A60636"/>
</linearGradient>
</defs>
</svg>
